<svg width="707" height="700" viewBox="0 0 707 700" fill="none" xmlns="http://www.w3.org/2000/svg">
<ellipse cx="353.5" cy="344.5" rx="353.5" ry="344.5" fill="url(#paint0_linear)"/>
<path d="M367.099 401.435H364.896V399.232H367.099V401.435Z" fill="#2A232B"/>
<path d="M576.249 620.195C571.41 609.737 558.191 594.239 543.505 589.958C525.35 584.663 484.37 578.262 469.174 574.703C456.993 571.847 432.459 549.817 423.861 542.422C422.319 541.1 421.056 538.37 421.025 536.34C420.719 512.401 430.269 448.808 430.269 448.808H365.997H301.728C301.728 448.808 311.278 512.399 310.967 536.34C310.943 538.37 309.674 541.1 308.136 542.422C299.537 549.817 275.004 571.847 262.823 574.703C247.625 578.262 206.644 584.881 188.492 590.176C173.801 594.455 160.587 609.735 155.748 620.192C147.577 637.838 145.647 669.771 145.647 697.315H365.997H586.348C586.348 669.773 584.415 637.84 576.249 620.195Z" fill="#CB8D60"/>
<path d="M496.348 585.555C549.986 593.36 572.558 604.744 579.627 697.319H586.348C586.348 669.776 584.416 637.842 576.249 620.197C571.41 609.739 558.192 594.242 543.505 589.96C525.351 584.665 484.37 578.264 469.174 574.705C456.993 571.85 428.978 548.111 421.484 538.678C428.888 549.043 449.669 573.064 467.877 579.355C476.587 582.365 483.841 583.735 496.348 585.555ZM264.121 579.355C282.328 573.066 303.107 549.043 310.513 538.678C303.021 548.109 275.006 571.85 262.823 574.705C247.628 578.264 206.647 584.883 188.492 590.178C173.806 594.458 160.587 609.737 155.748 620.195C147.582 637.84 145.649 669.773 145.649 697.317H152.37C159.395 605.334 182.062 593.349 235.649 585.553C248.154 583.735 255.41 582.365 264.121 579.355Z" fill="#DAA47D"/>
<path d="M356.404 615.439C356.404 615.439 345.223 611.894 340.796 610.197C317.772 601.363 242.972 595.639 242.972 595.639C242.972 595.639 321.756 598.765 339.141 601.762C338.132 591.258 332.493 557.683 332.493 557.683C332.493 557.683 343.839 594.735 346.616 604.082C348.101 609.08 356.404 615.439 356.404 615.439ZM380.199 612.482C380.003 612.643 379.778 612.852 379.534 613.073C379.783 612.885 380.008 612.689 380.199 612.482ZM356.404 615.439C356.404 615.439 362.778 622.032 365.982 622.116C370.191 622.228 376.621 615.728 379.536 613.073C376.749 615.182 370.372 616.138 367.835 616.237C364.905 616.349 356.404 615.439 356.404 615.439ZM402.717 598.871C399.312 599.418 393.052 600.61 393.052 600.61L398.092 567.8C396.668 574.567 388.233 603.521 380.199 612.482C384.408 608.921 393.768 607.214 398.541 606.524C421.096 603.254 421.087 603.256 489.022 595.639C489.022 595.639 424.963 595.297 402.717 598.871Z" fill="#BC7746"/>
<path d="M576.249 620.195C571.41 609.737 558.191 594.239 543.505 589.958C525.35 584.663 484.37 578.262 469.174 574.703C456.993 571.847 432.459 549.817 423.861 542.422C422.319 541.1 421.056 538.37 421.025 536.34C420.719 512.401 430.269 448.808 430.269 448.808H365.997H301.728C301.728 448.808 311.278 512.399 310.967 536.34C310.943 538.37 309.674 541.1 308.136 542.422C299.537 549.817 275.004 571.847 262.823 574.703C247.625 578.262 206.644 584.881 188.492 590.176C173.801 594.455 160.587 609.735 155.748 620.192C147.577 637.838 145.647 669.771 145.647 697.315H365.997H586.348C586.348 669.773 584.415 637.84 576.249 620.195Z" stroke="#9D521B" stroke-width="3.825"/>
<path d="M312.049 539.269C327.427 549.273 347.982 558.69 366.002 558.69C383.251 558.69 404.222 549.195 419.895 539.147C419.576 538.204 419.382 537.248 419.369 536.362C419.091 514.598 426.739 461.397 428.35 450.463H303.645C305.254 461.399 312.904 514.598 312.622 536.36C312.611 537.272 312.4 538.279 312.049 539.269Z" fill="url(#paint1_linear)"/>
<path d="M392.012 699.763C349.848 699.763 300.666 699.6 241.66 699.258L189.484 698.976C157.978 698.805 156.12 698.769 152.273 698.769L141.478 698.785C131.406 606.513 173.231 582.285 237.908 573.828C255.071 571.411 271.95 567.004 285.193 558.466C321.17 607.478 428.004 597.164 446.276 557.08C449.339 558.247 451.87 559.757 455.039 560.9C465.321 568.465 479.436 573.76 493.882 574.56C551.191 577.735 591.76 603.197 590.962 694.959C590.969 695.323 590.971 697.549 590.933 698.243C563.361 698.243 553.02 698.509 531.364 698.82C501.989 699.239 465.429 699.761 392.039 699.761C392.028 699.763 392.021 699.763 392.012 699.763Z" fill="#004A7C"/>
<path d="M588.673 697.013C587.769 680.74 579.718 635.187 565.844 614.291C538.34 572.854 472.724 587.395 457.582 570.898C446.595 593.283 402.549 607.465 387.964 609.547C430.23 595.533 447.981 585.399 454.995 561.357C469.108 579.712 545.502 565.7 575.564 614.97C584.367 629.396 592.738 675.315 588.673 697.013ZM268.627 571.387C271.617 570.693 273.109 568.635 276.077 567.83L272.935 563.664C252.995 579.203 178.385 569.492 152.802 616.627C144.739 631.481 139.301 666.841 143.565 696.921C144.748 678.446 145.326 638.938 159.199 618.039C184.151 580.448 229.654 590.379 264.128 574.465C279.515 593.415 303.544 602.732 327.994 606.586C297.319 598.585 279.731 585.075 268.627 571.387Z" fill="#0E598B"/>
<path d="M443.803 561.727C431.613 587.098 339.467 616.645 287.509 563.664C284.278 565.034 274.614 568.317 274.614 568.317C312.461 619.849 423.374 620.175 452.897 568.066C452.767 568.016 446.804 563.252 443.803 561.727Z" fill="#00416D"/>
<path d="M446.161 556.786C425.42 598.261 317.483 604.129 285.279 558.179C273.519 561.656 262.21 569.067 250.825 570.92C182.693 581.067 132.325 586.166 141.24 699.023C163.143 699.023 126.673 698.879 241.656 699.496C513.987 701.061 505.111 698.481 591.145 698.481C591.209 698.172 591.178 695.281 591.191 694.964C595.81 570.607 523.209 577.949 474.141 569.375C467.213 567.793 460.775 563.265 455.114 560.682C451.987 559.252 449.33 557.968 446.161 556.786ZM284.499 559.57C313.087 611.114 426.006 600.773 447.807 559.792C450.451 560.903 451.128 561.343 454.193 562.43C431.611 609.781 319.907 624.87 274.217 564.992C274.539 564.902 281.277 560.777 284.499 559.57ZM143.785 697.317C138.451 639.076 147.745 591.454 216.016 579.771C238.659 575.593 252.5 575.448 271.95 567.004C308.887 627.391 430.818 618.033 456.158 564.129C459.799 567.233 465.475 570.805 472.475 572.469C512.354 581.942 593.311 570.499 589.036 697.315C469.921 695.768 371.187 692.15 143.785 697.317Z" fill="#002F4E"/>
<path d="M249.692 359.579C247.561 354.099 231.883 346.354 224.991 347.577C217.195 348.959 214.33 357.175 215.364 363.264C217.794 377.558 224.169 383.578 227.034 394.743C229.449 404.159 234.598 409.577 237.143 413.579C240.272 418.488 243.159 429.754 243.804 431.398C244.825 433.998 248.438 440.307 254.826 439.983C262.171 439.604 271.452 425.246 271.604 422.058C272.446 404.76 255.234 373.845 249.692 359.579Z" fill="#CB8D60" stroke="#9D521B" stroke-width="3.825"/>
<path d="M251.311 417.873C251.311 417.873 252.257 415.513 251.104 413.418C249.623 410.723 245.765 405.776 244.888 402.817C244.172 400.397 244.536 395.226 244.419 392.696C244.212 388.223 241.131 385.16 240.173 382.593C233.752 365.421 225.206 354.778 220.341 352.568C216.743 361.358 219.594 367.788 224.616 381.313C221.586 362.931 224.497 357.184 224.497 357.184C224.497 357.184 233.351 364.819 237.72 381.802C238.511 384.867 235.272 391.264 235.891 394.373C236.667 398.277 245.111 405.833 247.475 408.993C249.319 411.454 251.311 417.873 251.311 417.873Z" fill="#9D521B"/>
<path d="M481.726 359.579C483.857 354.099 499.534 346.354 506.429 347.577C514.227 348.959 517.09 357.175 516.056 363.264C513.624 377.558 507.251 383.578 504.384 394.743C501.969 404.159 496.817 409.577 494.275 413.579C491.146 418.488 488.259 429.754 487.613 431.398C486.593 433.998 482.977 440.307 476.592 439.983C469.249 439.604 459.966 425.246 459.816 422.058C458.97 404.76 476.186 373.845 481.726 359.579Z" fill="#CB8D60" stroke="#9D521B" stroke-width="3.825"/>
<path d="M480.106 417.873C480.106 417.873 479.159 415.513 480.313 413.418C481.794 410.723 485.655 405.776 486.527 402.817C487.241 400.397 486.88 395.226 487.001 392.696C487.208 388.223 490.284 385.16 491.245 382.593C497.666 365.421 506.213 354.778 511.076 352.568C514.675 361.358 511.821 367.788 506.804 381.313C509.834 362.931 506.921 357.184 506.921 357.184C506.921 357.184 498.067 364.819 493.695 381.802C492.908 384.867 496.143 391.264 495.524 394.373C494.748 398.277 486.305 405.833 483.942 408.993C482.098 411.454 480.106 417.873 480.106 417.873Z" fill="#9D521B"/>
<path d="M366.002 181.893C291.925 182.01 231.764 242.862 231.879 317.834C231.899 329.74 233.43 341.284 236.29 352.284H236.293C236.319 352.403 258.965 421.549 264.824 449.359C270.068 474.254 293.379 494.447 303.87 505.451C315.923 518.104 330.988 536.823 366.002 536.657C401.013 536.823 416.081 518.104 428.134 505.451C438.625 494.447 461.936 474.254 467.18 449.359C473.039 421.549 495.687 352.405 495.709 352.284H495.713C498.574 341.284 500.107 329.74 500.125 317.834C500.242 242.862 440.079 182.01 366.002 181.893Z" fill="#CB8D60"/>
<path d="M439.749 204.36C471.929 229.033 492.922 269.335 492.853 314.877C492.836 326.783 491.39 338.329 488.684 349.327H488.68C488.656 349.446 467.24 418.587 461.696 446.395C456.736 471.295 434.69 491.483 424.765 502.492C413.366 515.145 399.116 533.863 366.004 533.698C332.89 533.863 318.64 515.145 307.241 502.492C297.321 491.483 275.273 471.295 270.313 446.395C264.769 418.587 243.353 349.446 243.326 349.327H243.324C240.618 338.327 239.17 326.783 239.153 314.877C239.087 269.335 260.08 229.033 292.259 204.362C255.853 228.691 231.811 270.428 231.883 317.834C231.903 329.74 233.435 341.284 236.295 352.284H236.297C236.324 352.403 258.969 421.549 264.828 449.359C270.072 474.254 293.383 494.447 303.874 505.451C315.927 518.104 330.993 536.823 366.006 536.657C401.018 536.823 416.085 518.104 428.139 505.451C438.629 494.447 461.94 474.254 467.185 449.359C473.044 421.549 495.691 352.405 495.713 352.284H495.718C498.578 341.284 500.112 329.74 500.129 317.834C500.197 270.428 476.155 228.689 439.749 204.36Z" fill="#C38253"/>
<path d="M366.002 181.893C291.925 182.01 231.764 242.862 231.879 317.834C231.899 329.74 233.43 341.284 236.29 352.284H236.293C236.319 352.403 258.965 421.549 264.824 449.359C270.068 474.254 293.379 494.447 303.87 505.451C315.923 518.104 330.988 536.823 366.002 536.657C401.013 536.823 416.081 518.104 428.134 505.451C438.625 494.447 461.936 474.254 467.18 449.359C473.039 421.549 495.687 352.405 495.709 352.284H495.713C498.574 341.284 500.107 329.74 500.125 317.834C500.242 242.862 440.079 182.01 366.002 181.893Z" stroke="#9D521B" stroke-width="3.825"/>
<path d="M366.438 494.967C360.198 495.285 358.409 488.901 358.409 488.901C358.409 488.901 367.071 490.146 373.813 488.123C373.816 488.125 371.929 494.692 366.438 494.967Z" fill="url(#paint2_linear)"/>
<path d="M367.073 490.148C362.701 490.368 358.777 489.979 358.53 489.952C358.226 489.921 358.006 489.652 358.037 489.353C358.07 489.049 358.352 488.839 358.64 488.859C358.731 488.866 367.666 489.752 373.488 488.117C373.776 488.046 374.085 488.207 374.168 488.5C374.252 488.793 374.08 489.095 373.787 489.179C371.729 489.756 369.341 490.034 367.073 490.148Z" fill="#9D521B"/>
<path d="M327.436 467.097C327.436 467.097 355.05 470.372 364.274 470.4C374.307 470.427 406.762 467.097 406.762 467.097C397.38 474.884 387.056 482.372 363.673 482.52C342.757 482.654 337.398 475.059 327.436 467.097Z" fill="white"/>
<path d="M327.436 467.097C327.436 467.097 355.05 470.372 364.274 470.4C374.307 470.427 406.762 467.097 406.762 467.097C397.38 474.884 387.056 482.372 363.673 482.52C342.757 482.654 337.398 475.059 327.436 467.097Z" stroke="#9D521B" stroke-width="1.9125"/>
<path d="M336.755 366.723C337.11 367.981 337.321 369.273 337.321 370.597C337.321 373.86 336.169 376.945 334.148 379.708C325.165 379.792 296.764 381.264 292.425 379.041C286.227 375.866 280.696 362.803 280.292 359.59C302.316 346.923 318.567 349.386 336.755 366.723Z" fill="url(#paint3_radial)"/>
<path d="M323.58 366.179C323.58 373.479 317.659 379.4 310.359 379.4C303.059 379.4 297.138 373.479 297.138 366.179C297.138 358.877 303.059 352.958 310.359 352.958C317.659 352.956 323.58 358.877 323.58 366.179Z" fill="#7B5C33"/>
<path opacity="0.7" d="M308.878 353.103C308.828 353.109 308.775 353.116 308.722 353.122C308.786 353.42 308.848 353.72 308.909 354.017C308.896 353.715 308.889 353.407 308.878 353.103ZM308.907 354.015C309.061 358.36 309.315 362.232 310.046 363.631C310.432 362.097 309.775 358.276 308.907 354.015ZM310.048 363.633C309.954 364.001 309.81 364.252 309.59 364.336C309.37 364.42 309.092 364.323 308.779 364.109C308.87 364.477 308.861 364.764 308.7 364.942C308.541 365.121 308.257 365.165 307.878 365.114C308.127 365.4 308.255 365.663 308.2 365.892C308.14 366.121 307.904 366.293 307.554 366.425C307.904 366.564 308.14 366.736 308.195 366.965C308.25 367.194 308.123 367.456 307.876 367.74C308.25 367.694 308.539 367.743 308.693 367.921C308.85 368.1 308.859 368.388 308.77 368.756C309.081 368.543 309.354 368.45 309.575 368.536C309.797 368.62 309.94 368.871 310.029 369.241C310.207 368.906 310.405 368.692 310.646 368.668C310.875 368.637 311.122 368.798 311.371 369.082C311.373 368.703 311.452 368.424 311.65 368.289C311.844 368.155 312.133 368.181 312.486 368.318C312.314 367.983 312.254 367.699 312.364 367.487C312.475 367.278 312.746 367.165 313.122 367.121C312.812 366.903 312.622 366.681 312.627 366.443C312.627 366.205 312.812 365.982 313.127 365.768C312.752 365.722 312.486 365.61 312.373 365.4C312.265 365.191 312.325 364.905 312.501 364.57C312.144 364.702 311.858 364.728 311.664 364.594C311.468 364.459 311.388 364.18 311.388 363.801C311.141 364.083 310.895 364.239 310.661 364.208C310.423 364.177 310.223 363.97 310.048 363.633ZM311.386 363.798C312.441 362.62 313.636 358.931 314.845 354.755C312.964 358.671 311.388 362.216 311.386 363.798ZM314.843 354.755C314.975 354.486 315.11 354.213 315.235 353.94C315.189 353.925 315.143 353.902 315.097 353.883C315.013 354.176 314.929 354.469 314.843 354.755ZM312.501 364.57C313.982 364.014 316.756 361.302 319.766 358.168C316.282 360.76 313.237 363.168 312.501 364.57ZM319.766 358.168C319.986 358.003 320.213 357.838 320.438 357.673C320.407 357.633 320.372 357.6 320.345 357.565C320.154 357.763 319.962 357.968 319.766 358.168ZM313.122 365.768C314.693 365.962 318.411 364.849 322.536 363.474C318.243 364.153 314.431 364.869 313.122 365.768ZM322.536 363.477C322.778 363.441 323.031 363.402 323.278 363.362C323.269 363.32 323.258 363.278 323.247 363.237C323.012 363.316 322.769 363.397 322.536 363.477ZM313.12 367.119C314.42 368.027 318.228 368.765 322.511 369.461C318.402 368.067 314.693 366.932 313.12 367.119ZM322.514 369.461C322.723 369.534 322.935 369.609 323.142 369.677C323.153 369.64 323.162 369.605 323.168 369.567C322.954 369.534 322.732 369.499 322.514 369.461ZM312.486 368.316C313.219 369.719 316.249 372.145 319.717 374.759C316.723 371.608 313.968 368.88 312.486 368.316ZM319.72 374.754C319.85 374.891 319.984 375.032 320.114 375.171C320.136 375.144 320.156 375.124 320.18 375.1C320.026 374.986 319.867 374.869 319.72 374.754ZM311.373 369.08C311.366 370.665 312.922 374.217 314.782 378.143C313.594 373.963 312.424 370.266 311.373 369.08ZM314.782 378.145C314.828 378.311 314.876 378.48 314.92 378.65C314.953 378.637 314.975 378.628 315.006 378.619C314.934 378.461 314.857 378.297 314.782 378.145ZM310.031 369.239C309.29 370.642 309.015 374.505 308.837 378.848C309.727 374.596 310.408 370.777 310.031 369.239ZM308.837 378.848C308.799 379.014 308.768 379.181 308.733 379.351C308.764 379.357 308.788 379.357 308.819 379.362C308.823 379.192 308.832 379.016 308.837 378.848ZM308.773 368.754C307.459 369.651 305.421 372.95 303.246 376.709C306.009 373.359 308.389 370.292 308.773 368.754ZM303.246 376.709C303.129 376.848 303.008 376.995 302.889 377.134C302.918 377.152 302.942 377.165 302.973 377.187C303.061 377.028 303.156 376.867 303.246 376.709ZM307.88 367.743C306.302 367.926 302.964 369.898 299.291 372.214C303.297 370.535 306.823 368.928 307.88 367.743ZM299.289 372.218C299.099 372.297 298.905 372.377 298.709 372.46C298.722 372.489 298.742 372.52 298.76 372.549C298.938 372.441 299.115 372.328 299.289 372.218ZM307.556 366.427C306.078 365.861 302.204 366.057 297.872 366.403C302.2 366.773 306.073 366.987 307.556 366.427ZM297.872 366.403C297.636 366.381 297.394 366.359 297.16 366.339C297.16 366.381 297.156 366.423 297.16 366.462C297.4 366.44 297.641 366.421 297.872 366.403ZM307.88 365.118C306.838 363.931 303.321 362.304 299.328 360.599C302.984 362.935 306.311 364.927 307.88 365.118ZM299.328 360.599C299.099 360.451 298.868 360.304 298.634 360.156C298.614 360.198 298.592 360.24 298.57 360.277C298.826 360.385 299.082 360.491 299.328 360.599ZM308.781 364.109C308.409 362.571 306.047 359.495 303.306 356.126C305.456 359.898 307.477 363.206 308.781 364.109ZM303.306 356.126C303.158 355.872 303.015 355.615 302.867 355.357C302.825 355.385 302.781 355.414 302.744 355.443C302.929 355.67 303.123 355.899 303.306 356.126Z" fill="url(#paint4_radial)"/>
<path opacity="0.4" d="M312.311 353.147C312.258 353.141 312.207 353.132 312.157 353.125C312.141 353.43 312.122 353.736 312.104 354.038C312.17 353.742 312.243 353.443 312.311 353.147ZM312.102 354.035C311.128 358.271 310.368 362.076 310.716 363.621C311.485 362.237 311.837 358.376 312.102 354.035ZM310.714 363.621C310.528 363.951 310.326 364.156 310.09 364.18C309.856 364.202 309.614 364.039 309.369 363.751C309.361 364.128 309.277 364.405 309.076 364.535C308.878 364.665 308.589 364.634 308.239 364.489C308.406 364.83 308.462 365.117 308.347 365.322C308.23 365.529 307.959 365.635 307.587 365.67C307.889 365.893 308.071 366.12 308.065 366.357C308.06 366.593 307.869 366.814 307.556 367.023C307.928 367.076 308.195 367.197 308.298 367.406C308.404 367.618 308.338 367.902 308.157 368.233C308.512 368.107 308.801 368.089 308.993 368.228C309.184 368.367 309.257 368.647 309.248 369.028C309.506 368.753 309.753 368.596 309.991 368.634C310.222 368.665 310.418 368.883 310.586 369.224C310.685 368.856 310.835 368.609 311.062 368.53C311.284 368.451 311.557 368.552 311.862 368.775C311.782 368.407 311.798 368.116 311.958 367.942C312.119 367.768 312.41 367.73 312.787 367.783C312.542 367.492 312.417 367.23 312.483 367.001C312.545 366.772 312.783 366.604 313.142 366.479C312.789 366.338 312.562 366.159 312.507 365.928C312.456 365.696 312.589 365.436 312.846 365.159C312.467 365.194 312.183 365.146 312.031 364.965C311.877 364.784 311.873 364.493 311.97 364.13C311.657 364.337 311.379 364.425 311.161 364.335C310.934 364.244 310.797 363.991 310.714 363.621ZM311.965 364.13C313.289 363.262 315.396 360.007 317.646 356.29C314.814 359.584 312.377 362.598 311.965 364.13ZM317.646 356.287C317.842 356.063 318.042 355.834 318.236 355.602C318.194 355.574 318.157 355.54 318.115 355.51C317.959 355.772 317.802 356.034 317.646 356.287ZM312.842 365.161C314.418 365.007 317.8 363.103 321.517 360.858C317.478 362.459 313.915 363.998 312.842 365.161ZM321.515 360.855C321.773 360.754 322.033 360.653 322.295 360.551C322.273 360.505 322.249 360.463 322.233 360.421C321.995 360.567 321.757 360.714 321.515 360.855ZM313.133 366.481C314.6 367.076 318.479 366.961 322.817 366.703C318.496 366.245 314.629 365.95 313.133 366.481ZM322.817 366.701C323.064 366.73 323.315 366.756 323.564 366.783C323.564 366.739 323.567 366.697 323.569 366.655C323.318 366.67 323.064 366.686 322.817 366.701ZM312.783 367.785C313.801 368.999 317.291 370.696 321.248 372.477C317.637 370.064 314.349 368.01 312.783 367.785ZM321.246 372.477C321.429 372.602 321.614 372.728 321.797 372.847C321.817 372.814 321.835 372.781 321.852 372.748C321.654 372.662 321.447 372.569 321.246 372.477ZM311.857 368.777C312.201 370.322 314.501 373.448 317.176 376.873C315.098 373.052 313.144 369.702 311.857 368.777ZM317.176 376.866C317.269 377.031 317.359 377.203 317.452 377.371C317.478 377.351 317.505 377.335 317.533 377.318C317.414 377.168 317.293 377.014 317.176 376.866ZM310.586 369.226C310.171 370.753 310.753 374.588 311.533 378.862C311.465 374.517 311.293 370.643 310.586 369.226ZM311.531 378.862C311.533 379.034 311.538 379.211 311.538 379.387C311.568 379.382 311.597 379.378 311.628 379.378C311.597 379.208 311.564 379.032 311.531 378.862ZM309.248 369.03C308.168 370.194 306.904 373.854 305.608 378.003C307.567 374.127 309.215 370.615 309.248 369.03ZM305.606 378.003C305.529 378.153 305.452 378.307 305.377 378.461C305.403 378.475 305.427 378.481 305.456 378.494C305.504 378.334 305.557 378.164 305.606 378.003ZM308.155 368.237C306.657 368.764 303.832 371.423 300.758 374.491C304.299 371.97 307.388 369.623 308.155 368.237ZM300.76 374.491C300.613 374.594 300.458 374.707 300.309 374.81C300.331 374.834 300.353 374.854 300.372 374.881C300.498 374.751 300.63 374.623 300.76 374.491ZM307.556 367.027C305.985 366.798 302.252 367.838 298.101 369.125C302.408 368.539 306.227 367.9 307.556 367.027ZM298.101 369.129C297.898 369.158 297.689 369.182 297.477 369.215C297.484 369.248 297.495 369.282 297.506 369.312C297.706 369.255 297.905 369.189 298.101 369.129ZM307.585 365.677C306.302 364.745 302.51 363.931 298.237 363.145C302.323 364.623 306.007 365.833 307.585 365.677ZM298.237 363.145C298.015 363.063 297.786 362.98 297.565 362.898C297.554 362.94 297.541 362.98 297.532 363.017C297.772 363.059 298.008 363.103 298.237 363.145ZM308.239 364.493C307.538 363.076 304.564 360.595 301.146 357.914C304.072 361.12 306.771 363.905 308.239 364.493ZM301.144 357.916C300.961 357.715 300.776 357.513 300.591 357.31C300.56 357.345 300.527 357.378 300.498 357.411C300.716 357.579 300.934 357.746 301.144 357.916ZM309.369 363.753C309.407 362.171 307.924 358.588 306.143 354.626C307.245 358.826 308.343 362.543 309.369 363.753ZM306.143 354.626C306.069 354.344 305.996 354.055 305.921 353.769C305.875 353.784 305.826 353.802 305.782 353.82C305.901 354.088 306.024 354.359 306.143 354.626Z" fill="url(#paint5_radial)"/>
<path d="M315.546 366.179C315.546 369.044 313.226 371.364 310.361 371.364C307.499 371.364 305.174 369.044 305.174 366.179C305.174 363.317 307.499 360.992 310.361 360.992C313.226 360.992 315.546 363.314 315.546 366.179Z" fill="#7B5C33"/>
<path opacity="0.9" d="M315.546 366.179C315.546 369.044 313.226 371.364 310.361 371.364C307.499 371.364 305.174 369.044 305.174 366.179C305.174 363.317 307.499 360.992 310.361 360.992C313.226 360.992 315.546 363.314 315.546 366.179Z" fill="black"/>
<path opacity="0.5" d="M303.125 372.234C304.114 371.569 305.459 371.838 306.122 372.825C306.785 373.814 306.523 375.158 305.531 375.822C304.54 376.489 303.198 376.225 302.534 375.233C301.871 374.244 302.136 372.898 303.125 372.234Z" fill="url(#paint6_linear)"/>
<path opacity="0.5" d="M314.458 365.456C313.905 366.28 312.323 366.186 310.919 365.245C309.513 364.304 308.826 362.869 309.376 362.047V362.045C309.927 361.221 311.512 361.316 312.913 362.259C314.321 363.198 315.009 364.63 314.458 365.456Z" fill="url(#paint7_linear)"/>
<path opacity="0.75" d="M320.751 363.255C319.499 365.179 316.265 365.293 313.534 363.513C310.802 361.732 309.603 358.731 310.857 356.808C312.109 354.886 315.344 354.771 318.074 356.55C320.804 358.332 322.002 361.336 320.751 363.255Z" fill="url(#paint8_linear)"/>
<path d="M268.603 356.252C268.603 386.678 286.363 425.451 308.266 425.451C330.168 425.451 347.929 400.792 347.929 370.366C347.929 339.937 330.168 315.276 308.266 315.276C286.363 315.276 268.603 325.826 268.603 356.252ZM280.29 359.59C302.314 346.923 318.565 349.388 336.753 366.723C337.107 367.981 337.319 369.273 337.319 370.597C337.319 373.86 336.166 376.945 334.146 379.708C325.162 379.792 296.761 381.264 292.422 379.041C286.226 375.866 280.693 362.803 280.29 359.59Z" fill="#CB8D60"/>
<path d="M280.522 360.659C281.672 365.02 286.764 376.141 292.423 379.041C296.761 381.264 325.16 379.792 334.146 379.708C336.167 376.947 337.319 373.863 337.319 370.597C337.319 369.273 337.108 367.981 336.753 366.723C318.759 349.571 302.651 347.002 280.982 359.216C285.319 346.603 299.76 337.287 316.987 337.209C337.685 337.121 354.487 350.389 354.537 366.849C354.588 383.307 337.852 396.715 317.164 396.808C296.466 396.896 279.669 383.628 279.618 367.171C279.614 364.932 279.94 362.759 280.522 360.659Z" fill="url(#paint9_radial)"/>
<path d="M292.423 379.041C286.224 375.866 280.693 362.803 280.29 359.591C302.314 346.923 318.565 349.388 336.753 366.723C337.107 367.981 337.319 369.273 337.319 370.597C337.319 373.86 336.166 376.945 334.146 379.708C325.162 379.792 296.761 381.264 292.423 379.041Z" fill="url(#paint10_radial)"/>
<path d="M280.365 352.713C287.888 349.761 319.583 338.8 336.88 362.131C317.08 339.874 290.157 350.133 280.365 352.713Z" fill="#9D521B"/>
<path d="M275.213 358.405C277.895 363.566 289.229 380.79 291.874 380.92C314.039 382.26 327.815 380.374 336.633 379.129C333.33 378.71 297.354 380.85 292.424 378.439C286.226 375.409 280.695 362.946 280.292 359.879C302.88 347.482 319.389 350.23 338.147 367.942C319.856 340.18 281.94 352.828 275.213 358.405Z" fill="#AF7C57"/>
<path d="M394.362 366.723C394.007 367.981 393.795 369.273 393.795 370.597C393.795 373.86 394.948 376.945 396.968 379.708C405.952 379.792 434.353 381.264 438.692 379.041C444.89 375.866 450.421 362.803 450.824 359.591C428.8 346.923 412.549 349.386 394.362 366.723Z" fill="url(#paint11_radial)"/>
<path d="M434.857 366.179C434.857 373.479 428.936 379.4 421.638 379.4C414.338 379.4 408.415 373.479 408.415 366.179C408.415 358.877 414.338 352.958 421.638 352.958C428.936 352.956 434.857 358.877 434.857 366.179Z" fill="#7B5C33"/>
<path opacity="0.7" d="M420.155 353.103C420.104 353.109 420.052 353.116 419.999 353.122C420.063 353.42 420.127 353.72 420.186 354.017C420.173 353.715 420.166 353.407 420.155 353.103ZM420.184 354.015C420.336 358.36 420.591 362.232 421.325 363.631C421.709 362.097 421.052 358.276 420.184 354.015ZM421.323 363.633C421.23 364.001 421.085 364.252 420.867 364.336C420.644 364.42 420.369 364.323 420.058 364.109C420.146 364.477 420.138 364.764 419.979 364.942C419.82 365.121 419.536 365.165 419.159 365.114C419.406 365.4 419.536 365.663 419.481 365.892C419.419 366.121 419.186 366.293 418.835 366.425C419.183 366.564 419.419 366.736 419.474 366.965C419.529 367.194 419.404 367.456 419.155 367.741C419.529 367.694 419.816 367.743 419.97 367.921C420.127 368.1 420.135 368.388 420.047 368.756C420.358 368.543 420.633 368.45 420.851 368.536C421.076 368.62 421.217 368.871 421.305 369.241C421.482 368.906 421.684 368.692 421.92 368.668C422.152 368.637 422.398 368.798 422.645 369.082C422.65 368.703 422.727 368.424 422.927 368.289C423.119 368.155 423.41 368.181 423.762 368.318C423.59 367.983 423.533 367.699 423.639 367.487C423.751 367.278 424.022 367.165 424.399 367.121C424.088 366.903 423.897 366.681 423.903 366.443C423.901 366.205 424.088 365.982 424.404 365.768C424.027 365.722 423.762 365.61 423.65 365.4C423.54 365.191 423.601 364.905 423.776 364.57C423.421 364.702 423.134 364.728 422.938 364.594C422.742 364.46 422.665 364.18 422.663 363.801C422.418 364.083 422.169 364.239 421.936 364.208C421.7 364.177 421.499 363.97 421.323 363.633ZM422.663 363.798C423.718 362.62 424.913 358.931 426.12 354.755C424.24 358.671 422.667 362.216 422.663 363.798ZM426.12 354.755C426.252 354.486 426.387 354.213 426.514 353.94C426.468 353.925 426.422 353.903 426.376 353.883C426.29 354.176 426.206 354.469 426.12 354.755ZM423.778 364.57C425.261 364.014 428.035 361.302 431.045 358.169C427.559 360.76 424.516 363.168 423.778 364.57ZM431.045 358.169C431.265 358.003 431.49 357.838 431.717 357.673C431.684 357.633 431.651 357.6 431.624 357.565C431.431 357.763 431.239 357.968 431.045 358.169ZM424.401 365.768C425.972 365.962 429.688 364.85 433.812 363.475C429.52 364.153 425.708 364.869 424.401 365.768ZM433.812 363.477C434.055 363.442 434.308 363.402 434.555 363.362C434.544 363.32 434.535 363.278 434.524 363.237C434.288 363.316 434.046 363.397 433.812 363.477ZM424.397 367.119C425.699 368.027 429.505 368.765 433.79 369.461C429.679 368.067 425.97 366.932 424.397 367.119ZM433.79 369.461C434 369.534 434.209 369.609 434.418 369.677C434.429 369.64 434.438 369.605 434.447 369.567C434.231 369.534 434.006 369.499 433.79 369.461ZM423.762 368.316C424.494 369.719 427.526 372.145 430.994 374.759C428.002 371.608 425.245 368.88 423.762 368.316ZM430.996 374.754C431.126 374.891 431.259 375.032 431.389 375.171C431.411 375.144 431.433 375.124 431.457 375.1C431.303 374.986 431.144 374.869 430.996 374.754ZM422.652 369.08C422.645 370.665 424.199 374.217 426.061 378.143C424.871 373.963 423.701 370.266 422.652 369.08ZM426.061 378.145C426.107 378.311 426.155 378.48 426.199 378.65C426.232 378.637 426.257 378.628 426.285 378.619C426.21 378.461 426.133 378.298 426.061 378.145ZM421.308 369.239C420.567 370.643 420.292 374.505 420.113 378.848C421.004 374.596 421.684 370.777 421.308 369.239ZM420.113 378.848C420.076 379.014 420.045 379.181 420.01 379.351C420.041 379.357 420.063 379.357 420.096 379.362C420.1 379.192 420.109 379.016 420.113 378.848ZM420.047 368.754C418.734 369.651 416.696 372.95 414.521 376.709C417.286 373.359 419.664 370.292 420.047 368.754ZM414.521 376.709C414.406 376.848 414.285 376.995 414.166 377.134C414.195 377.152 414.219 377.165 414.248 377.187C414.338 377.028 414.433 376.867 414.521 376.709ZM419.155 367.743C417.577 367.926 414.241 369.898 410.568 372.214C414.574 370.535 418.099 368.928 419.155 367.743ZM410.568 372.218C410.376 372.297 410.182 372.377 409.988 372.46C410.001 372.489 410.019 372.52 410.039 372.549C410.215 372.441 410.391 372.328 410.568 372.218ZM418.835 366.427C417.355 365.861 413.481 366.057 409.149 366.403C413.479 366.773 417.35 366.987 418.835 366.427ZM409.149 366.403C408.915 366.381 408.671 366.359 408.439 366.339C408.437 366.381 408.433 366.423 408.437 366.462C408.677 366.44 408.917 366.421 409.149 366.403ZM419.159 365.118C418.115 363.931 414.6 362.304 410.605 360.599C414.261 362.935 417.588 364.927 419.159 365.118ZM410.605 360.599C410.376 360.451 410.142 360.304 409.911 360.156C409.891 360.198 409.869 360.24 409.849 360.277C410.103 360.385 410.361 360.491 410.605 360.599ZM420.058 364.109C419.686 362.571 417.324 359.495 414.583 356.126C416.733 359.898 418.754 363.206 420.058 364.109ZM414.583 356.126C414.435 355.872 414.289 355.615 414.146 355.357C414.104 355.385 414.06 355.414 414.021 355.443C414.208 355.67 414.4 355.899 414.583 356.126Z" fill="url(#paint12_radial)"/>
<path opacity="0.4" d="M423.589 353.148C423.536 353.141 423.485 353.132 423.434 353.125C423.417 353.43 423.399 353.736 423.381 354.038C423.445 353.742 423.518 353.443 423.589 353.148ZM423.379 354.036C422.403 358.271 421.645 362.076 421.991 363.621C422.762 362.237 423.115 358.376 423.379 354.036ZM421.991 363.621C421.806 363.951 421.601 364.156 421.367 364.18C421.134 364.203 420.892 364.039 420.647 363.751C420.638 364.128 420.554 364.405 420.354 364.535C420.156 364.665 419.867 364.634 419.517 364.489C419.682 364.831 419.739 365.117 419.625 365.322C419.506 365.529 419.237 365.635 418.862 365.67C419.166 365.893 419.347 366.12 419.34 366.358C419.336 366.593 419.144 366.814 418.833 367.023C419.208 367.076 419.47 367.197 419.576 367.406C419.682 367.618 419.616 367.902 419.435 368.233C419.792 368.107 420.081 368.089 420.272 368.228C420.464 368.367 420.537 368.647 420.526 369.028C420.784 368.753 421.03 368.596 421.268 368.634C421.5 368.665 421.696 368.883 421.863 369.224C421.965 368.856 422.112 368.61 422.339 368.53C422.562 368.451 422.837 368.552 423.139 368.775C423.062 368.407 423.077 368.116 423.238 367.942C423.397 367.768 423.688 367.73 424.065 367.783C423.822 367.492 423.694 367.23 423.76 367.001C423.82 366.772 424.06 366.604 424.419 366.479C424.069 366.338 423.84 366.159 423.785 365.928C423.736 365.696 423.868 365.436 424.124 365.159C423.745 365.194 423.459 365.146 423.309 364.965C423.155 364.784 423.15 364.493 423.249 364.13C422.934 364.337 422.657 364.425 422.438 364.335C422.214 364.244 422.073 363.991 421.991 363.621ZM423.243 364.13C424.567 363.262 426.674 360.007 428.923 356.29C426.092 359.584 423.655 362.598 423.243 364.13ZM428.923 356.288C429.119 356.063 429.32 355.834 429.516 355.602C429.472 355.574 429.435 355.541 429.393 355.51C429.236 355.772 429.08 356.034 428.923 356.288ZM424.12 365.161C425.695 365.007 429.075 363.103 432.795 360.858C428.756 362.46 425.193 363.998 424.12 365.161ZM432.793 360.855C433.048 360.754 433.308 360.653 433.573 360.551C433.551 360.505 433.526 360.463 433.511 360.421C433.273 360.567 433.035 360.714 432.793 360.855ZM424.411 366.481C425.878 367.076 429.756 366.961 434.097 366.703C429.772 366.245 425.907 365.95 424.411 366.481ZM434.095 366.701C434.34 366.73 434.593 366.756 434.842 366.783C434.844 366.739 434.844 366.697 434.846 366.655C434.597 366.67 434.342 366.686 434.095 366.701ZM424.06 367.785C425.08 369 428.569 370.696 432.526 372.477C428.914 370.064 425.627 368.01 424.06 367.785ZM432.524 372.477C432.705 372.602 432.892 372.728 433.075 372.847C433.095 372.814 433.114 372.781 433.128 372.748C432.931 372.662 432.724 372.569 432.524 372.477ZM423.137 368.777C423.478 370.322 425.779 373.448 428.454 376.873C426.376 373.052 424.424 369.702 423.137 368.777ZM428.456 376.866C428.547 377.031 428.637 377.203 428.729 377.371C428.756 377.351 428.78 377.335 428.811 377.318C428.692 377.168 428.569 377.014 428.456 376.866ZM421.863 369.227C421.449 370.754 422.031 374.588 422.811 378.862C422.742 374.517 422.571 370.643 421.863 369.227ZM422.809 378.862C422.811 379.034 422.815 379.211 422.815 379.387C422.848 379.382 422.872 379.378 422.903 379.378C422.875 379.208 422.842 379.032 422.809 378.862ZM420.524 369.03C419.446 370.194 418.179 373.854 416.883 378.003C418.844 374.127 420.491 370.615 420.524 369.03ZM416.883 378.003C416.806 378.153 416.731 378.307 416.654 378.461C416.681 378.475 416.703 378.481 416.731 378.494C416.782 378.334 416.835 378.164 416.883 378.003ZM419.433 368.237C417.934 368.764 415.112 371.423 412.038 374.491C415.577 371.97 418.666 369.623 419.433 368.237ZM412.038 374.491C411.89 374.594 411.734 374.707 411.586 374.81C411.608 374.834 411.63 374.854 411.65 374.881C411.776 374.751 411.91 374.623 412.038 374.491ZM418.833 367.027C417.262 366.798 413.532 367.838 409.38 369.125C413.686 368.539 417.507 367.9 418.833 367.027ZM409.38 369.13C409.176 369.158 408.966 369.182 408.757 369.215C408.766 369.249 408.774 369.282 408.785 369.312C408.984 369.255 409.182 369.189 409.38 369.13ZM418.862 365.677C417.58 364.745 413.787 363.931 409.515 363.145C413.6 364.623 417.284 365.833 418.862 365.677ZM409.515 363.145C409.292 363.063 409.063 362.98 408.843 362.898C408.83 362.94 408.819 362.98 408.81 363.017C409.048 363.059 409.286 363.103 409.515 363.145ZM419.517 364.493C418.816 363.077 415.839 360.595 412.421 357.914C415.35 361.12 418.049 363.905 419.517 364.493ZM412.421 357.916C412.238 357.715 412.053 357.513 411.868 357.31C411.835 357.345 411.806 357.378 411.773 357.411C411.992 357.579 412.214 357.746 412.421 357.916ZM420.647 363.753C420.684 362.171 419.201 358.588 417.421 354.626C418.525 358.826 419.62 362.543 420.647 363.753ZM417.421 354.626C417.346 354.344 417.273 354.055 417.196 353.769C417.15 353.784 417.102 353.802 417.057 353.82C417.179 354.088 417.302 354.359 417.421 354.626Z" fill="url(#paint13_radial)"/>
<path d="M426.823 366.179C426.823 369.044 424.501 371.364 421.638 371.364C418.774 371.364 416.451 369.044 416.451 366.179C416.451 363.317 418.776 360.992 421.638 360.992C424.505 360.992 426.823 363.314 426.823 366.179Z" fill="#7B5C33"/>
<path opacity="0.9" d="M426.823 366.179C426.823 369.044 424.501 371.364 421.638 371.364C418.774 371.364 416.451 369.044 416.451 366.179C416.451 363.317 418.776 360.992 421.638 360.992C424.505 360.992 426.823 363.314 426.823 366.179Z" fill="black"/>
<path opacity="0.5" d="M414.404 372.234C415.391 371.569 416.737 371.838 417.398 372.825C418.064 373.814 417.802 375.158 416.808 375.822C415.816 376.489 414.474 376.225 413.813 375.233C413.148 374.244 413.412 372.898 414.404 372.234Z" fill="url(#paint14_linear)"/>
<path opacity="0.5" d="M425.732 365.456C425.179 366.28 423.597 366.186 422.196 365.245C420.79 364.304 420.102 362.869 420.653 362.048L420.656 362.045C421.206 361.221 422.791 361.316 424.192 362.259C425.598 363.198 426.285 364.63 425.732 365.456Z" fill="url(#paint15_linear)"/>
<path opacity="0.75" d="M432.03 363.255C430.776 365.179 427.544 365.293 424.811 363.513C422.081 361.732 420.88 358.731 422.134 356.808C423.386 354.886 426.618 354.772 429.351 356.55C432.081 358.332 433.279 361.336 432.03 363.255Z" fill="url(#paint16_linear)"/>
<path d="M422.851 315.276C400.948 315.276 383.188 339.94 383.188 370.366C383.188 400.792 400.948 425.451 422.851 425.451C444.753 425.451 462.514 389.697 462.514 359.273C462.514 328.847 444.753 315.276 422.851 315.276ZM438.692 379.041C434.353 381.264 405.954 379.792 396.968 379.709C394.948 376.948 393.795 373.863 393.795 370.597C393.795 369.273 394.007 367.981 394.361 366.723C412.549 349.386 428.8 346.923 450.824 359.591C450.421 362.803 444.89 375.866 438.692 379.041Z" fill="#CB8D60"/>
<path d="M450.595 360.659C449.445 365.02 444.352 376.141 438.694 379.041C434.355 381.264 405.956 379.792 396.97 379.709C394.95 376.948 393.797 373.863 393.797 370.597C393.797 369.273 394.009 367.981 394.364 366.723C412.358 349.571 428.465 347.002 450.134 359.216C445.798 346.603 431.356 337.287 414.129 337.21C393.432 337.121 376.63 350.389 376.579 366.849C376.529 383.307 393.264 396.715 413.953 396.808C434.65 396.896 451.448 383.629 451.498 367.171C451.503 364.932 451.174 362.759 450.595 360.659Z" fill="url(#paint17_radial)"/>
<path d="M438.692 379.041C444.89 375.866 450.421 362.803 450.824 359.591C428.8 346.923 412.549 349.388 394.362 366.723C394.007 367.981 393.795 369.273 393.795 370.597C393.795 373.86 394.948 376.945 396.968 379.708C405.954 379.792 434.353 381.264 438.692 379.041Z" fill="url(#paint18_radial)"/>
<path d="M394.233 362.133C411.531 338.803 443.226 349.761 450.749 352.716C440.959 350.133 414.036 339.874 394.233 362.133Z" fill="#9D521B"/>
<path d="M455.903 358.405C453.222 363.566 441.887 380.79 439.243 380.92C417.078 382.26 403.301 380.374 394.483 379.129C397.786 378.71 433.763 380.85 438.692 378.439C444.89 375.409 450.421 362.946 450.824 359.879C428.236 347.482 411.728 350.23 392.969 367.942C411.261 340.18 449.176 352.828 455.903 358.405Z" fill="#AF7C57"/>
<path d="M456.341 431.125C456.419 480.973 416.035 521.456 366.134 521.524C316.243 521.605 275.729 481.259 275.652 431.401C275.575 381.557 315.958 340.916 365.857 340.837C415.751 340.759 456.269 381.271 456.341 431.125Z" fill="url(#paint19_radial)"/>
<path d="M448.629 298.97C448.629 344.607 411.635 381.601 366 381.601C320.364 381.601 283.367 344.607 283.367 298.97C283.367 253.333 320.364 216.339 366 216.339C411.635 216.339 448.629 253.333 448.629 298.97Z" fill="url(#paint20_radial)"/>
<path d="M261.305 342.756C277.776 322.08 306.12 325.52 329.345 328.843C335.253 329.689 341.334 330.324 347.127 331.787C351.279 332.833 354.542 337.564 351.206 341.385C349.646 343.203 346.241 342.866 344.139 342.822C316.329 342.26 284.894 326.267 261.305 342.756Z" fill="#2A232B"/>
<path d="M470.834 341.918C466.065 338.728 461.019 336.476 455.314 335.552C434.388 332.159 394.529 346.107 384.051 343.155C377.634 341.343 378.932 334.916 381.77 333.331C383.478 332.377 383.952 332.401 399.198 329.779C425.104 325.328 454.111 321.789 470.834 341.918Z" fill="#2A232B"/>
<path d="M367.604 446.25C366.824 446.605 364.993 446.605 364.413 446.023C364.413 446.023 350.54 441.279 352.298 436.735C355.083 429.547 380.342 435.058 380.32 436.735C380.265 441.014 367.604 446.25 367.604 446.25Z" fill="#BC7746"/>
<path d="M348.843 430.321C348.843 430.321 360.848 389.283 362.082 380.5C364.424 394.756 358.77 426.493 358.173 432.969C357.448 440.834 365.786 445.503 365.786 445.503C366.432 446.32 365.652 446.829 364.649 446.508L350.038 440.869C346.576 437.927 346.576 435.127 348.843 430.321ZM372.996 437.597C375.012 438.053 375.433 438.866 375.277 439.706C375.125 440.554 374.259 441.713 372.438 440.653C370.44 439.494 366.667 438.963 366.667 438.963C366.667 438.963 370.98 437.134 372.996 437.597Z" fill="#9D521B"/>
<path d="M480.968 391.566C471.426 366.333 475.688 347.403 473.857 309.573C471.03 251.339 457.368 258.498 425.933 256.218C377.359 252.699 360.482 230.21 324.27 230.21C304.687 230.21 281.874 239.129 264.394 254.45C250.34 350.27 270.207 342.304 249.534 390.726C236.416 376.961 234.724 355.767 225 327.937C217.246 304.908 219.143 303.674 210.618 292.573C216.091 293.563 216.642 293.518 219.083 293.518C214.743 284.03 209.214 267.184 207.121 259.864C212.253 257.405 217.783 251.251 221.377 246.822C219.326 242.133 217.75 236.787 216.796 232.224C216.966 232.166 217.761 231.871 217.761 231.871L217.77 231.834C230.288 226.508 232.842 196.701 241.535 189.11C245.812 185.113 249.921 183.533 253.729 181.517C254.179 177.341 254.379 176.499 254.996 173.518C275.713 167.963 281.998 170.876 311.252 162.736C321.308 159.938 328.238 157.992 349.41 158.88C357.177 162.8 384.798 181.971 405.564 162.41C421.548 172.385 435.474 173.659 455.416 185C488.863 204.589 493.413 218.377 491.448 250.136C514.569 280.908 509.444 317.49 499.329 354.207C493.005 376.939 486.939 384.382 480.968 391.566Z" fill="#2A232B"/>
<path d="M480.58 360.67C478.376 343.042 487.19 327.618 489.394 312.193C487.19 316.6 482.783 318.804 482.783 323.211C482.783 307.786 489.394 294.565 487.19 279.141C484.987 283.548 482.783 285.751 478.376 287.955C484.987 272.53 478.376 254.902 467.359 241.681C469.562 248.292 471.766 252.699 471.766 259.309C458.545 239.478 427.696 237.274 405.661 226.257C410.068 232.867 418.882 237.274 425.492 241.681C394.643 230.664 365.998 217.443 337.352 204.222C342.213 209.082 345.891 217.495 351.871 220.746C354.39 221.105 354.026 221.916 351.871 220.746C325.411 216.98 297.597 214.091 273.451 202.018C273.451 210.832 280.061 217.443 286.672 221.85C280.061 221.85 273.451 215.239 269.044 217.443C262.433 221.85 275.654 226.257 273.451 230.664C266.84 235.071 260.23 228.46 253.619 228.46C258.026 235.071 253.619 246.088 258.026 252.699C253.619 250.495 249.212 246.088 249.212 248.292C247.009 257.106 242.602 259.309 242.602 265.92C242.602 276.937 249.212 287.955 249.212 298.972C249.212 295.429 244.942 296.154 243.269 294.285C254.307 325.079 253.806 357.508 249.012 390.131C249.192 390.327 249.351 390.537 249.534 390.728C270.207 342.306 250.34 350.272 264.394 254.453C281.875 239.132 304.687 230.212 324.27 230.212C360.485 230.212 377.361 252.703 425.935 256.218C457.37 258.5 471.032 251.339 473.859 309.573C475.688 347.403 471.427 366.333 480.97 391.566C480.981 391.555 480.99 391.541 481.001 391.53C482.433 375.202 487.19 360.221 487.19 345.246C484.987 349.653 482.783 354.06 480.58 360.67Z" fill="#0C080C"/>
<path d="M496.584 337.507C495.903 338.955 491.598 339.391 491.598 340.839C491.598 334.228 499.345 329.286 498.041 318.222C498.041 319.095 491.082 324.722 490.383 325.595C489.93 327.798 499.832 302.059 499.832 293.552C496.584 298.97 493.801 298.972 493.801 303.379C493.801 294.565 493.788 281.666 493.788 272.852C493.788 277.259 489.394 283.757 489.394 288.164C491.45 271.717 481.893 252.699 479.963 236.379C478.837 240.335 476.704 244.949 478.377 248.292C471.766 239.478 473.97 224.053 462.952 217.443C460.749 221.85 460.749 226.257 458.545 230.664C451.935 221.85 443.121 215.239 438.714 206.425C438.714 210.832 438.714 213.036 438.714 217.443C427.696 208.629 412.271 204.221 405.661 191C405.661 195.407 405.661 202.018 405.661 206.425C396.847 204.221 382.535 196.298 378.128 189.687C378.128 196.298 385.829 206.425 385.829 213.036C368.201 204.221 354.98 191 337.352 182.186C337.352 186.593 341.759 191 339.556 195.407C330.742 191 313.618 191 309.211 182.186C309.211 188.797 316.064 195.407 316.064 202.018C296.233 199.814 291.806 193.596 273.664 185.28C271.461 189.687 269.044 195.407 266.84 199.814C262.433 195.407 260.23 191 253.619 191C253.619 197.611 260.23 206.425 255.823 213.036C253.619 215.239 244.805 206.425 244.805 208.629C240.398 217.443 244.805 230.664 240.398 239.478C240.398 241.681 233.788 235.071 229.381 237.274C237.913 250.07 232.029 264.924 237.633 277.854C237.849 278.255 238.04 278.678 238.195 279.141C237.983 278.715 237.82 278.283 237.633 277.854C234.784 272.504 227.023 272.067 224.974 265.92C224.974 282.012 234.134 296.271 237.412 312.043C238.525 312.707 239.085 313.93 238.195 316.6C238.003 315.064 237.723 313.548 237.412 312.043C235.764 311.061 232.897 311.303 231.584 309.99C242.002 330.824 245.226 366.56 249.012 390.129C256.823 356.252 252.777 320.815 243.269 294.283C242.862 293.829 242.602 293.225 242.602 292.362C242.842 293.001 243.038 293.644 243.269 294.285C244.944 296.154 249.212 295.429 249.212 298.972C249.212 287.955 242.602 276.937 242.602 265.92C242.602 259.309 247.009 257.106 249.212 248.292C249.212 246.088 253.619 250.495 258.026 252.699C253.619 246.088 258.026 235.071 253.619 228.46C260.23 228.46 266.84 235.071 273.451 230.664C275.654 226.257 262.433 221.85 269.044 217.443C273.451 215.239 280.061 221.85 286.672 221.85C280.061 217.443 273.451 210.832 273.451 202.018C297.597 214.091 325.412 216.98 351.871 220.746C345.891 217.495 342.213 209.082 337.352 204.221C365.998 217.443 394.643 230.664 425.492 241.681C418.882 237.274 410.068 232.867 405.661 226.257C427.696 237.274 458.545 239.478 471.766 259.309C471.766 252.699 469.563 248.292 467.359 241.681C478.377 254.902 484.987 272.53 478.377 287.955C482.784 285.751 484.987 283.548 487.191 279.141C489.394 294.565 482.784 307.786 482.784 323.211C482.784 318.804 487.191 316.6 489.394 312.193C487.191 327.618 478.377 343.042 480.58 360.67C482.784 354.06 484.987 349.653 487.191 345.246C487.191 360.221 482.433 375.202 480.997 391.528C482.79 389.371 484.595 387.176 486.411 384.558C486.188 368.226 492.653 354.805 496.584 337.507Z" fill="#1B141C"/>
<path d="M350.836 220.164C348.35 220.36 345.397 220.779 339.95 219.952C325.191 217.91 276.893 216.001 274.264 200.883C276.589 208.272 290.581 210.356 301.155 212.337C301.155 212.337 308.608 213.771 320.377 215.094C342.401 217.665 337.747 219.399 350.836 220.164ZM401.027 232.307C348.37 209.486 352.116 212.002 339.818 204.188C355.976 217.753 361.498 217.788 389.659 230.67C402.706 236.547 405.256 236.313 423 240.546C410.562 235.602 409.096 235.703 401.027 232.307ZM407.025 225.673C428.871 243.638 455.52 239.169 472.579 258.725C458.906 237.093 428.837 239.275 407.025 225.673ZM277.648 218.172C271.77 216.398 268.841 217.224 266.001 219.062C275.311 214.679 285.063 225.503 296.299 222.367C291.092 223.002 277.648 218.61 277.648 218.172ZM271.36 232.717C266.23 231.1 259.895 228.356 255.602 228.471C253.333 228.524 252.78 229.529 252.78 229.529C254.928 227.019 265.139 231.95 271.28 233.112C272.968 233.464 274.264 233.383 274.264 233.383C274.264 233.383 272.973 233.255 271.36 232.717ZM246.242 258.6C247.756 254.431 249.461 250.334 249.01 246.52C248.78 245.138 248.329 244.416 248.373 244.405C249.395 248.752 247.683 251.401 244.671 257.925C238.027 272.144 246.707 283.23 250.025 298.39C248.904 281.049 240.764 273.387 246.242 258.6ZM485.8 281.311C486.505 286.088 486.296 289.31 485.461 296.901C485.461 296.901 483.929 309.635 480.842 322.076C485.423 311.396 489.262 293.219 485.8 281.311ZM489.105 315.465C481.642 336.15 480.432 343.772 479.19 360.086C487.409 322.102 483.409 341.178 489.105 315.465Z" fill="#2A232B"/>
<path d="M398.761 176.094C385.263 178.22 371.174 179.915 345.877 164.525C370.292 175.578 382.158 176.64 398.761 176.094ZM428.579 180.402C415.191 175.567 414.312 169.895 404.27 166.729C413.435 170.88 413.364 176.211 425.334 181.627C431.155 184.379 451.383 189.96 463.765 198.019C452.827 188.343 445.469 186.723 428.579 180.402ZM279.221 175.543C304.767 176.074 308.839 169.552 338.165 166.178C311.798 165.85 309.006 172.136 279.221 175.543ZM345.877 176.094C356.166 177.325 371.008 186.552 375.625 197.027C372.256 185.282 357.626 176.16 345.877 176.094ZM403.169 179.399C413.419 184.853 417.068 196.364 429.611 198.68C417.304 194.608 414.867 183.956 403.169 179.399ZM385.54 181.602C388.169 186.082 391.997 190.652 402.067 197.027C390.315 187.371 388.299 185.34 385.54 181.602ZM436.772 192.069C448.043 193.451 459.801 204.548 461.01 216.859C461.575 204.726 450.674 192.281 436.772 192.069ZM474.978 210.847C469.895 204.356 465.417 202.822 463.214 201.985C466.361 203.618 469.818 205.786 473.936 211.649C473.936 211.649 481.51 221.719 484.698 232.834C482.499 219.441 474.978 210.847 474.978 210.847ZM265.45 179.399C265.857 178.537 277.181 183.511 278.076 183.872C280.784 184.928 294.344 190.41 299.053 190.967C296.847 190.377 265.569 176.867 265.45 179.399ZM246.72 193.171C248.223 195.145 249.932 198.157 251.149 200.321C251.149 200.321 251.801 201.474 252.407 202.655C253.002 203.838 253.531 205.048 253.531 205.048C255.016 208.435 255.723 210.526 255.822 213.035C256.378 206.467 250.759 197.329 246.72 193.171ZM240.109 199.781C234.563 213.331 234.625 221.173 240.109 235.037C236.665 221.147 235.96 214.571 240.109 199.781Z" fill="#3A353A"/>
<path d="M492.124 249.933C492.626 242.221 492.836 237.408 492.168 229.793C489.66 207.474 476.265 196.441 455.746 184.423C435.567 172.947 421.563 171.751 405.482 161.573C384.915 181.497 357.148 161.978 349.579 158.223C312.613 156.646 318.309 163.772 277.415 168.756C262.334 170.459 256.107 172.546 256.107 172.546C255.534 172.7 254.961 172.833 254.432 172.987C253.991 175.19 253.593 176.548 253.11 181.096C249.769 182.861 245.433 184.56 241.101 188.61C232.181 196.401 229.616 226.499 217.237 231.336V231.358C216.977 231.452 216.294 231.717 216.025 231.754C216.948 236.373 218.643 242.221 220.608 246.716C217.096 251.033 211.42 257.308 206.33 259.496C207.533 263.859 213.63 283.186 218.052 292.857C215.628 292.857 213.639 292.43 209.04 291.623C218.709 303.915 216.27 304.08 224.376 328.158C234.25 356.42 235.852 377.946 249.695 391.839C262.107 368.38 261.034 357.502 261.131 349.069C261.402 337.467 255.77 308.388 265.395 254.763C285.803 236.904 314.704 226.66 342.109 232.878C370.757 239.356 385.133 253.924 425.887 256.874C457.615 259.179 470.4 251.998 473.198 309.604C475.051 347.885 470.635 366.946 480.756 392.852C486.637 385.757 493.195 378.732 499.971 354.379C509.884 318.378 515.43 281.21 492.124 249.933ZM500.455 335.828C492.814 372.399 488.356 379.036 480.49 390.827C474.139 371.26 475.878 352.332 476.523 332.236C479.798 245.758 457.961 255.499 426.151 253.086C387.176 250.46 371.896 235.688 342.947 229.861C316.566 224.463 287.308 231.525 262.849 254.453C249.529 314.229 264.123 346.136 252.317 376.461C249.756 382.945 251.371 384.6 249.496 389.329C239.281 373.953 236.553 352.24 233.168 341.315C222.627 314.485 222.962 305.682 211.486 292.904C214.286 293.514 217.898 293.911 220.763 293.433C220.741 293.41 220.741 293.41 220.741 293.388C220.009 291.183 210.772 265.911 208.07 259.609C213.33 257.07 218.491 251.354 222.063 246.762C219.216 237.754 222.755 250.953 217.435 232.087C233.666 227.206 231.978 196.555 248.527 185.351C250.724 183.885 252.669 182.678 254.829 181.318C255.316 177.178 254.985 179.619 255.975 173.32C275.372 169.325 283.298 173.267 311.459 164.395C332.791 159.204 348.116 159.396 350.329 159.636C363.918 168.146 371.606 172.941 387.59 171.821C394.912 171.222 400.736 167.683 405.835 162.478C414.671 169.106 424.532 173.123 436.662 178.674C485.677 201.108 490.051 219.349 490.051 249.583C493.131 253.935 496.524 260.818 498.203 265.426C508.329 290.416 505.03 314.478 500.455 335.828Z" fill="black"/>
<defs>
<linearGradient id="paint0_linear" x1="2.1944e-06" y1="303.069" x2="707" y2="300.679" gradientUnits="userSpaceOnUse">
<stop stop-color="#C4C4C4" stop-opacity="0"/>
<stop offset="1" stop-color="#004A7C" stop-opacity="0.63"/>
</linearGradient>
<linearGradient id="paint1_linear" x1="365.998" y1="558.986" x2="365.998" y2="451.014" gradientUnits="userSpaceOnUse">
<stop stop-color="#BC7746" stop-opacity="0.8"/>
<stop offset="0.7" stop-color="#9D521B"/>
</linearGradient>
<linearGradient id="paint2_linear" x1="365.998" y1="492.88" x2="365.998" y2="486.27" gradientUnits="userSpaceOnUse">
<stop offset="0.1" stop-color="#C38253"/>
<stop offset="1" stop-color="#BC7746"/>
</linearGradient>
<radialGradient id="paint3_radial" cx="0" cy="0" r="1" gradientUnits="userSpaceOnUse" gradientTransform="translate(308.055 366.955) rotate(180) scale(29.9676)">
<stop stop-color="white"/>
<stop offset="0.544" stop-color="#FDFEFE"/>
<stop offset="0.74" stop-color="#F6F8F9"/>
<stop offset="0.879" stop-color="#EAEFF2"/>
<stop offset="0.992" stop-color="#D9E3E8"/>
<stop offset="1" stop-color="#D8E2E7"/>
</radialGradient>
<radialGradient id="paint4_radial" cx="0" cy="0" r="1" gradientUnits="userSpaceOnUse" gradientTransform="translate(310.193 366.222) rotate(-14.4847) scale(13.0545 13.0573)">
<stop stop-color="white"/>
<stop offset="1" stop-color="white" stop-opacity="0"/>
</radialGradient>
<radialGradient id="paint5_radial" cx="0" cy="0" r="1" gradientUnits="userSpaceOnUse" gradientTransform="translate(310.194 366.238) rotate(0.512025) scale(13.0469 13.0471)">
<stop stop-color="white"/>
<stop offset="1" stop-color="white" stop-opacity="0"/>
</radialGradient>
<linearGradient id="paint6_linear" x1="303.021" y1="375.584" x2="305.084" y2="373.124" gradientUnits="userSpaceOnUse">
<stop stop-color="white"/>
<stop offset="1" stop-color="white" stop-opacity="0"/>
</linearGradient>
<linearGradient id="paint7_linear" x1="313.03" y1="362.424" x2="311.379" y2="364.392" gradientUnits="userSpaceOnUse">
<stop stop-color="white"/>
<stop offset="1" stop-color="white" stop-opacity="0"/>
</linearGradient>
<linearGradient id="paint8_linear" x1="318.371" y1="356.973" x2="314.568" y2="361.505" gradientUnits="userSpaceOnUse">
<stop stop-color="white"/>
<stop offset="1" stop-color="white" stop-opacity="0"/>
</linearGradient>
<radialGradient id="paint9_radial" cx="0" cy="0" r="1" gradientUnits="userSpaceOnUse" gradientTransform="translate(317.262 365.841) rotate(1.19182) scale(37.1583 29.7251)">
<stop stop-color="#BC7746"/>
<stop offset="0.7" stop-color="#BC7746" stop-opacity="0.3"/>
<stop offset="1" stop-color="#CB8D60" stop-opacity="0"/>
</radialGradient>
<radialGradient id="paint10_radial" cx="0" cy="0" r="1" gradientUnits="userSpaceOnUse" gradientTransform="translate(306.185 406.621) rotate(-2.98402) scale(50.9754 50.6649)">
<stop offset="0.95" stop-opacity="0"/>
<stop offset="1" stop-opacity="0.2"/>
</radialGradient>
<radialGradient id="paint11_radial" cx="0" cy="0" r="1" gradientUnits="userSpaceOnUse" gradientTransform="translate(423.06 366.956) scale(29.9698)">
<stop stop-color="white"/>
<stop offset="0.544" stop-color="#FDFEFE"/>
<stop offset="0.74" stop-color="#F6F8F9"/>
<stop offset="0.879" stop-color="#EAEFF2"/>
<stop offset="0.992" stop-color="#D9E3E8"/>
<stop offset="1" stop-color="#D8E2E7"/>
</radialGradient>
<radialGradient id="paint12_radial" cx="0" cy="0" r="1" gradientUnits="userSpaceOnUse" gradientTransform="translate(421.469 366.222) rotate(-14.4847) scale(13.0547 13.0575)">
<stop stop-color="white"/>
<stop offset="1" stop-color="white" stop-opacity="0"/>
</radialGradient>
<radialGradient id="paint13_radial" cx="0" cy="0" r="1" gradientUnits="userSpaceOnUse" gradientTransform="translate(421.471 366.237) rotate(0.512025) scale(13.0473 13.0476)">
<stop stop-color="white"/>
<stop offset="1" stop-color="white" stop-opacity="0"/>
</radialGradient>
<linearGradient id="paint14_linear" x1="414.298" y1="375.584" x2="416.361" y2="373.125" gradientUnits="userSpaceOnUse">
<stop stop-color="white"/>
<stop offset="1" stop-color="white" stop-opacity="0"/>
</linearGradient>
<linearGradient id="paint15_linear" x1="424.307" y1="362.424" x2="422.656" y2="364.392" gradientUnits="userSpaceOnUse">
<stop stop-color="white"/>
<stop offset="1" stop-color="white" stop-opacity="0"/>
</linearGradient>
<linearGradient id="paint16_linear" x1="429.648" y1="356.973" x2="425.845" y2="361.505" gradientUnits="userSpaceOnUse">
<stop stop-color="white"/>
<stop offset="1" stop-color="white" stop-opacity="0"/>
</linearGradient>
<radialGradient id="paint17_radial" cx="0" cy="0" r="1" gradientUnits="userSpaceOnUse" gradientTransform="translate(413.853 365.841) rotate(178.808) scale(37.1583 29.7251)">
<stop stop-color="#BC7746"/>
<stop offset="0.7" stop-color="#BC7746" stop-opacity="0.3"/>
<stop offset="1" stop-color="#CB8D60" stop-opacity="0"/>
</radialGradient>
<radialGradient id="paint18_radial" cx="0" cy="0" r="1" gradientUnits="userSpaceOnUse" gradientTransform="translate(424.928 406.621) rotate(-177.016) scale(50.9754 50.6649)">
<stop offset="0.95" stop-opacity="0"/>
<stop offset="1" stop-opacity="0.2"/>
</radialGradient>
<radialGradient id="paint19_radial" cx="0" cy="0" r="1" gradientUnits="userSpaceOnUse" gradientTransform="translate(365.998 431.182) scale(90.3436)">
<stop stop-color="#DAA47D" stop-opacity="0.5"/>
<stop offset="0.9" stop-color="#CB8D60" stop-opacity="0"/>
</radialGradient>
<radialGradient id="paint20_radial" cx="0" cy="0" r="1" gradientUnits="userSpaceOnUse" gradientTransform="translate(365.998 298.972) scale(81.5296)">
<stop stop-color="#DAA47D" stop-opacity="0.5"/>
<stop offset="0.9" stop-color="#CB8D60" stop-opacity="0"/>
</radialGradient>
</defs>
</svg>
