<svg xmlns="http://www.w3.org/2000/svg" viewBox="0 0 1144.001 638.947">
  <g id="Group_11" data-name="Group 11" transform="translate(-1438 -3327.936)">
    <path id="Path_137" data-name="Path 137" d="M1172,547.81a180.559,180.559,0,0,1-26.12,93.88c0,34.62-16.14,66-42.32,88.87a144.743,144.743,0,0,1-21.08,15.28c-.3.19-.61.37-.92.55-.56.33-1.12.66-1.69,1l-.53.31h0c-2.39,1.35-4.83,2.65-7.32,3.87a165.67,165.67,0,0,1-73.76,17H245.17q-9,0-17.84-.72a211.151,211.151,0,0,1-61.06-14.14q-5.72-2.26-11.22-4.86-2.62-1.23-5.19-2.53c-1.07-.54-2.14-1.1-3.2-1.66A190.493,190.493,0,0,1,128,733.32a183.893,183.893,0,0,1-15.8-12.12C78.17,692,342.876,626.15,342.876,581.56,323.8,552.188,27.928,543.342,28,508.32c0-99.14,79.24-179.51,177-179.51,3,0,6,.09,9,.25a9.144,9.144,0,0,1,1.28.06c16.48-28.09,38.51-53.9,65-76.62,72.24-61.9,177.82-100.92,295.43-100.92,98.82,0,189.15,27.55,258.34,73.07A174.18,174.18,0,0,1,920,202.1c97.74,0,177,80.37,177,179.51a184.949,184.949,0,0,1-1,18.78,180,180,0,0,1,76,147.42Z" transform="translate(1410 3176.355)" fill="#fff"/>
    <g id="Group_9" data-name="Group 9" transform="translate(-1256.951 -462.332)">
      <path id="Path_313" data-name="Path 313" d="M1060,576.1c-1.55,30.88,1,29.85-10.3,34l-1.42.7C1035,617.07,929,664.45,742.51,662.06c-197.74-2.55-241.13-17.2-267.95-51.41-.28-.36-.57-.72-.85-1.09,0,0-12.86-23.85-2.57-45.64a13.64,13.64,0,0,1,2.49-5.26c9.49-13.74,54.72-49.24,267.71-42.44,0,0,226.48-11.66,305.22,30h.24C1048.72,546.27,1061.38,547.54,1060,576.1Z" transform="translate(2692.872 3724.272)" fill="#f2f2f2"/>
      <path id="Path_321" data-name="Path 321" d="M474.56,610.65c-.28-.36-.57-.72-.85-1.09,0,0-12.86-23.85-2.57-45.64a13.64,13.64,0,0,1,2.49-5.26Z" transform="translate(2692.872 3724.272)" fill="#e6e6e6"/>
      <path id="Path_322" data-name="Path 322" d="M584.37,590.26a18,18,0,1,1-18-18,12.766,12.766,0,0,1,1.64.07,18,18,0,0,1,16.36,17.93Z" transform="translate(2692.872 3724.272)" fill="#e6e6e6" stroke="#d0d0d0" stroke-miterlimit="10" stroke-width="1"/>
      <path id="Path_323" data-name="Path 323" d="M576.65,599.52l-13.38,4.55-9.58-26.61a18,18,0,0,1,12.67-5.22,12.777,12.777,0,0,1,1.64.07Z" transform="translate(2692.872 3724.272)" fill="#e6e6e6"/>
      <ellipse id="Ellipse_77" data-name="Ellipse 77" cx="21.62" cy="9.26" rx="21.62" ry="9.26" transform="translate(3620.542 4254.312)" fill="#e6e6e6"/>
      <ellipse id="Ellipse_78" data-name="Ellipse 78" cx="21.62" cy="9.26" rx="21.62" ry="9.26" transform="translate(3620.542 4342.072)" fill="#e6e6e6"/>
      <ellipse id="Ellipse_79" data-name="Ellipse 79" cx="21.62" cy="9.26" rx="21.62" ry="9.26" transform="translate(3680.762 4296.772)" fill="#e6e6e6"/>
      <path id="Path_334" data-name="Path 334" d="M1060,576.1c-1.55,30.88,1,29.85-10.3,34l-1.42.7-1.43-64.52C1048.72,546.27,1061.38,547.54,1060,576.1Z" transform="translate(2692.872 3724.272)" fill="#e6e6e6"/>
    </g>
    <g id="Group_10" data-name="Group 10" transform="translate(17.385)">
      <rect id="Rectangle_37" data-name="Rectangle 37" width="347.246" height="263.035" transform="translate(2080.467 3458.824)" fill="#f2f2f2"/>
      <path id="Path_247" data-name="Path 247" d="M0,0H275.294V229.859H0Z" transform="translate(2116.442 3476.277)" fill="#fff"/>
      <path id="Path_248" data-name="Path 248" d="M185.479,263.789s-1.049-3.557.2-6.175a5.6,5.6,0,0,0,.453-3.528,9.414,9.414,0,0,0-.5-1.657" transform="translate(1983.308 3232.662)" fill="#6c63ff"/>
      <path id="Path_249" data-name="Path 249" d="M186.068,247.313a6.3,6.3,0,0,1-.789,1.678,6.291,6.291,0,0,1-.793-1.678.793.793,0,1,1,1.581,0Z" transform="translate(1983.646 3236.126)" fill="#6c63ff"/>
      <path id="Path_250" data-name="Path 250" d="M189.176,252.562a6.25,6.25,0,0,1-1.586,1,6.322,6.322,0,0,1,.26-1.858.79.79,0,0,1,1.326.86Z" transform="translate(1981.843 3233.294)" fill="#6c63ff"/>
      <path id="Path_251" data-name="Path 251" d="M188.645,262.021a6.223,6.223,0,0,1-1.875.059,6.507,6.507,0,0,1,1.162-1.468.79.79,0,0,1,.713,1.409Z" transform="translate(1982.319 3227.962)" fill="#6c63ff"/>
      <path id="Path_252" data-name="Path 252" d="M186.917,269.59a6.255,6.255,0,0,1-1.837.378,6.223,6.223,0,0,1,.9-1.648.789.789,0,0,1,.94,1.258Z" transform="translate(1983.3 3223.505)" fill="#6c63ff"/>
      <path id="Path_253" data-name="Path 253" d="M183.3,254.952a6.319,6.319,0,0,0,1.77.617,6.28,6.28,0,0,0-.667-1.749.791.791,0,1,0-1.1,1.133Z" transform="translate(1984.473 3231.986)" fill="#6c63ff"/>
      <path id="Path_254" data-name="Path 254" d="M181.109,263.491a6.366,6.366,0,0,0,1.875.059,6.6,6.6,0,0,0-1.162-1.472.793.793,0,0,0-.713,1.414Z" transform="translate(1985.837 3227.1)" fill="#6c63ff"/>
      <path id="Path_255" data-name="Path 255" d="M180.388,272.226a6.23,6.23,0,0,0,1.837.378,6.273,6.273,0,0,0-.9-1.644.789.789,0,1,0-.94,1.258Z" transform="translate(1986.243 3222.023)" fill="#6c63ff"/>
      <g id="Group_8" data-name="Group 8" transform="translate(2166.254 3482.589)" opacity="0.7">
        <path id="Path_256" data-name="Path 256" d="M185.479,263.789s-1.049-3.557.2-6.175a5.6,5.6,0,0,0,.453-3.528,9.414,9.414,0,0,0-.5-1.657" transform="translate(-182.946 -249.927)" fill="#fff"/>
        <path id="Path_257" data-name="Path 257" d="M186.068,247.313a6.3,6.3,0,0,1-.789,1.678,6.291,6.291,0,0,1-.793-1.678.793.793,0,1,1,1.581,0Z" transform="translate(-182.608 -246.463)" fill="#fff"/>
        <path id="Path_258" data-name="Path 258" d="M189.176,252.562a6.25,6.25,0,0,1-1.586,1,6.322,6.322,0,0,1,.26-1.858.79.79,0,0,1,1.326.86Z" transform="translate(-184.411 -249.295)" fill="#fff"/>
        <path id="Path_259" data-name="Path 259" d="M188.645,262.021a6.223,6.223,0,0,1-1.875.059,6.507,6.507,0,0,1,1.162-1.468.79.79,0,0,1,.713,1.409Z" transform="translate(-183.935 -254.627)" fill="#fff"/>
        <path id="Path_260" data-name="Path 260" d="M186.917,269.59a6.255,6.255,0,0,1-1.837.378,6.223,6.223,0,0,1,.9-1.648.789.789,0,0,1,.94,1.258Z" transform="translate(-182.954 -259.084)" fill="#fff"/>
        <path id="Path_261" data-name="Path 261" d="M183.3,254.952a6.319,6.319,0,0,0,1.77.617,6.28,6.28,0,0,0-.667-1.749.791.791,0,1,0-1.1,1.133Z" transform="translate(-181.781 -250.603)" fill="#fff"/>
        <path id="Path_262" data-name="Path 262" d="M181.109,263.491a6.366,6.366,0,0,0,1.875.059,6.6,6.6,0,0,0-1.162-1.472.793.793,0,0,0-.713,1.414Z" transform="translate(-180.417 -255.489)" fill="#fff"/>
        <path id="Path_263" data-name="Path 263" d="M180.388,272.226a6.23,6.23,0,0,0,1.837.378,6.273,6.273,0,0,0-.9-1.644.789.789,0,1,0-.94,1.258Z" transform="translate(-180.011 -260.566)" fill="#fff"/>
      </g>
      <path id="Path_296" data-name="Path 296" d="M124.174,154.494v20.7a3.755,3.755,0,0,1-6.506,2.563l-.08-.088c-.742-.839-1.758-1.841-2.777-1.4a5.263,5.263,0,0,0-.839.591,11.809,11.809,0,0,1,.529,1.388c.881,2.936.193,6.07-.747,8.972s-2.148,5.772-2.307,8.809a26.846,26.846,0,0,0,.256,4.379,26.726,26.726,0,0,0,1.8,8.108c.633,1.384,1.527,2.781,1.338,4.291a43.675,43.675,0,0,1-14.715-1.867c3.293-3.322,3.289-8.587,3.071-13.255l-.533-11.284a7.853,7.853,0,0,0-.617-3.226,5.251,5.251,0,0,0-3.574-2.517,15.637,15.637,0,0,0-4.493-.147,2.4,2.4,0,0,1,.31-1.7,21.476,21.476,0,0,0,7.4,1.732.944.944,0,0,0,1.208-1.1,19.673,19.673,0,0,0-.508-5.562h0c-1.355.323-2.555,1.393-3.947,1.288-1.829-.138-2.911-2.185-4.614-2.815-1.321-.487-2.773-.059-4.153.193s-3.024.235-3.935-.839c-1.145-1.355-.419-3.5-1.17-5.113-1.057-2.3-4.253-2.341-6.766-2.026a7.97,7.97,0,0,1,4.241-3.192c-.91-1.628-4.157-1.518-3.985-3.477a1.867,1.867,0,0,1,.629-1.2q1.4-1.284,2.8-2.559l-4.157-1.573c-1.175-.44-2.517-1.061-2.362-2.6a2.555,2.555,0,0,1,.763-1.518l.264-.268a5.847,5.847,0,0,1,4.136-1.678l24.329-7.022a15.436,15.436,0,0,1,19.715,14.9Z" transform="translate(2052.531 3339.927)" fill="#f2f2f2"/>
      <path id="Path_298" data-name="Path 298" d="M619.822,186.857v11.468a2.1,2.1,0,0,1-3.607,1.422l-.042-.05c-.419-.461-.973-1.019-1.539-.776a2.74,2.74,0,0,0-.466.327,7.125,7.125,0,0,1,.294.772,8.422,8.422,0,0,1-.419,4.971,18.638,18.638,0,0,0-1.258,4.887,14.683,14.683,0,0,0,.143,2.425,14.839,14.839,0,0,0,1,4.493,4.7,4.7,0,0,1,.742,2.378,24.052,24.052,0,0,1-8.155-1.036c1.825-1.837,1.825-4.757,1.7-7.345q-.151-3.125-.294-6.254a4.3,4.3,0,0,0-.344-1.787,2.911,2.911,0,0,0-1.98-1.4,8.663,8.663,0,0,0-2.487-.08,1.325,1.325,0,0,1,.172-.944,11.841,11.841,0,0,0,4.1.961.524.524,0,0,0,.667-.612,10.833,10.833,0,0,0-.277-3.079h0c-.751.176-1.418.772-2.19.713-1.011-.08-1.615-1.212-2.567-1.56a4.449,4.449,0,0,0-2.3.1,2.287,2.287,0,0,1-2.177-.461c-.638-.751-.239-1.942-.65-2.836-.587-1.258-2.357-1.3-3.75-1.124a4.417,4.417,0,0,1,2.349-1.766c-.5-.906-2.3-.839-2.211-1.925a1.045,1.045,0,0,1,.352-.667l1.552-1.418-2.3-.872c-.65-.243-1.4-.587-1.309-1.443a1.409,1.409,0,0,1,.419-.839l.151-.151a3.222,3.222,0,0,1,2.29-.935l13.469-3.876a8.553,8.553,0,0,1,10.906,8.255Z" transform="translate(1752.053 3317.086)" fill="#f2f2f2"/>
      <path id="Path_302" data-name="Path 302" d="M293.638,341.163l16.865-.935c5.724,0-17.405,15.21-22.215,18.643-5.52,3.932-13,5.4-20.074,7.049a239.763,239.763,0,0,0-29.23,8.806,13.212,13.212,0,0,0-4.7,2.532c-1.339,1.326-1.791,3.076-2.6,4.66-3.154,6.179-11.376,9.4-18.639,12.613s-14.955,7.953-15.295,14.615a6.357,6.357,0,0,0,4.419,6.536c3.739,1.118,9.061-.867,11.362,1.771a4.294,4.294,0,0,1,.619,3.739c-1.529,8.113-8.5,14.744-14.9,21.121-3.076,3.059-5.931,7.947-2.165,10.462,3.008,2.009,8.436.758,10.649,3.351a4.683,4.683,0,0,1,.9,3.124c.048,7.787-5.8,15.411-14.455,18.85-5.6,2.23-11.981,2.75-18.211,3.1-7.879.452-15.774.7-23.673.68a92.492,92.492,0,0,1-12.283-.653,106.058,106.058,0,0,1-11.9-2.522L63.1,462.336a17.162,17.162,0,0,1-5.819-2.233,9.358,9.358,0,0,1-3.314-5.1c-3.059-10.237,2.828-21.073.452-31.439-2.593-11.318-14.483-19.894-18.541-30.93-2.746-7.477-1.7-15.461-.608-23.2l4-28.992c74.34-2.59,149.112-3.545,223.407-.211C280.944,341.034,275.5,343.091,293.638,341.163Z" transform="translate(2082.23 3226.34)" fill="#45b3ff" opacity="0.996"/>
      <path id="Path_305" data-name="Path 305" d="M41.41,281.552s30.063-31.72,62.82-30.437S198.01,239,198.01,239s48.906-9.413,60.571-4.48,29.615,12.71,42.182,12.71,23.78,35.353,23.78,35.353S41.41,278.96,41.41,281.552Z" transform="translate(2072.014 3285.228)" fill="#f2f2f2"/>
      <path id="Path_232" data-name="Path 232" d="M505.822,233.3H375.81a7.939,7.939,0,0,1-7.939-7.939V125.242a7.939,7.939,0,0,0-7.939-7.939h-1.849a7.939,7.939,0,0,0-7.939,7.939v100.12A7.939,7.939,0,0,1,342.2,233.3H212.192a7.939,7.939,0,0,0-7.939,7.939v1.849a7.939,7.939,0,0,0,7.939,7.939H342.2a7.939,7.939,0,0,1,7.939,7.939v95.037a7.939,7.939,0,0,0,7.939,7.939h1.849A7.939,7.939,0,0,0,367.87,354V258.968a7.939,7.939,0,0,1,7.939-7.939H505.822a7.939,7.939,0,0,0,7.939-7.939v-1.849a7.939,7.939,0,0,0-7.939-7.939Z" transform="translate(1895.083 3350.718)" fill="#f2f2f2"/>
    </g>
    <g id="Group_7" data-name="Group 7" transform="translate(130 -621.644)">
      <path id="Path_177" data-name="Path 177" d="M341.213,343.774a125.3,125.3,0,0,1,10.371-39.547Q353.924,299,356.736,294a.764.764,0,0,0-1.318-.77,127.037,127.037,0,0,0-14.136,39q-1.061,5.733-1.6,11.547C339.6,344.752,341.123,344.745,341.213,343.774Z" transform="translate(1253.193 3869.578)" fill="#e6e6e6"/>
      <circle id="Ellipse_34" data-name="Ellipse 34" cx="9.666" cy="9.666" r="9.666" transform="translate(1603.96 4146.692)" fill="#45b3ff"/>
      <path id="Path_178" data-name="Path 178" d="M342.162,343.559A81.291,81.291,0,0,1,348.89,317.9q1.518-3.392,3.342-6.635a.5.5,0,0,0-.855-.5,82.415,82.415,0,0,0-9.171,25.3q-.689,3.719-1.035,7.491C341.113,344.193,342.1,344.189,342.162,343.559Z" transform="translate(1253.233 3870.05)" fill="#e6e6e6"/>
      <circle id="Ellipse_35" data-name="Ellipse 35" cx="6.271" cy="6.271" r="6.271" transform="translate(1601.593 4170.364)" fill="#e6e6e6"/>
      <path id="Path_179" data-name="Path 179" d="M341.255,342.957A81.291,81.291,0,0,1,330.78,318.59q-.889-3.609-1.445-7.287a.5.5,0,0,0-.982.132,82.416,82.416,0,0,0,8.33,25.589q1.745,3.356,3.791,6.543C340.818,344.1,341.6,343.49,341.255,342.957Z" transform="translate(1252.89 3870.059)" fill="#e6e6e6"/>
      <circle id="Ellipse_36" data-name="Ellipse 36" cx="6.271" cy="6.271" r="6.271" transform="translate(1574.965 4169.923)" fill="#e6e6e6"/>
      <path id="Path_180" data-name="Path 180" d="M322.169,347.967V335.646a4.626,4.626,0,0,1,4.62-4.62h28.749a4.625,4.625,0,0,1,4.62,4.62v12.321a4.626,4.626,0,0,1-4.62,4.62H326.79a4.625,4.625,0,0,1-4.62-4.62Z" transform="translate(1252.725 3870.598)" fill="#f2f2f2" style="isolation: isolate"/>
      <path id="Path_181" data-name="Path 181" d="M354.11,272.577H341.79a4.625,4.625,0,0,1-4.62-4.62v-50.31a4.626,4.626,0,0,1,4.62-4.62H354.11a4.626,4.626,0,0,1,4.62,4.62v50.31A4.626,4.626,0,0,1,354.11,272.577Z" transform="translate(1253.126 3867.443)" fill="#f2f2f2" style="isolation: isolate"/>
      <rect id="Rectangle_10" data-name="Rectangle 10" width="20.535" height="4.107" transform="translate(1590.809 4090.222)" fill="#ccc"/>
      <rect id="Rectangle_11" data-name="Rectangle 11" width="20.535" height="4.107" transform="translate(1590.809 4122.051)" fill="#ccc"/>
      <path id="Path_182" data-name="Path 182" d="M384.11,272.577H371.79a4.625,4.625,0,0,1-4.62-4.62v-50.31a4.626,4.626,0,0,1,4.62-4.62H384.11a4.626,4.626,0,0,1,4.62,4.62v50.31A4.626,4.626,0,0,1,384.11,272.577Z" transform="translate(1253.928 3867.443)" fill="#f2f2f2" style="isolation: isolate"/>
      <rect id="Rectangle_12" data-name="Rectangle 12" width="20.535" height="4.107" transform="translate(1621.611 4090.222)" fill="#ccc"/>
      <rect id="Rectangle_13" data-name="Rectangle 13" width="20.535" height="4.107" transform="translate(1621.611 4122.051)" fill="#ccc"/>
      <path id="Path_183" data-name="Path 183" d="M414.11,272.577H401.79a4.625,4.625,0,0,1-4.62-4.62v-50.31a4.625,4.625,0,0,1,4.62-4.62H414.11a4.625,4.625,0,0,1,4.62,4.62v50.31A4.625,4.625,0,0,1,414.11,272.577Z" transform="translate(1254.73 3867.443)" fill="#f2f2f2" style="isolation: isolate"/>
      <rect id="Rectangle_14" data-name="Rectangle 14" width="20.535" height="4.107" transform="translate(1652.413 4090.222)" fill="#ccc"/>
      <rect id="Rectangle_15" data-name="Rectangle 15" width="20.535" height="4.107" transform="translate(1652.413 4122.051)" fill="#ccc"/>
      <path id="Path_184" data-name="Path 184" d="M430.11,353.576H417.79a4.625,4.625,0,0,1-4.62-4.62v-50.31a4.626,4.626,0,0,1,4.62-4.62H430.11a4.626,4.626,0,0,1,4.62,4.62v50.31A4.626,4.626,0,0,1,430.11,353.576Z" transform="translate(1255.158 3869.608)" fill="#f2f2f2" style="isolation: isolate"/>
      <rect id="Rectangle_16" data-name="Rectangle 16" width="20.535" height="4.107" transform="translate(1668.841 4173.388)" fill="#ccc"/>
      <rect id="Rectangle_17" data-name="Rectangle 17" width="20.535" height="4.107" transform="translate(1668.841 4205.217)" fill="#ccc"/>
      <path id="Path_185" data-name="Path 185" d="M460.11,353.576H447.79a4.626,4.626,0,0,1-4.62-4.62v-50.31a4.626,4.626,0,0,1,4.62-4.62H460.11a4.626,4.626,0,0,1,4.62,4.62v50.31A4.626,4.626,0,0,1,460.11,353.576Z" transform="translate(1255.96 3869.608)" fill="#f2f2f2" style="isolation: isolate"/>
      <rect id="Rectangle_18" data-name="Rectangle 18" width="20.535" height="4.107" transform="translate(1699.643 4173.388)" fill="#ccc"/>
      <rect id="Rectangle_19" data-name="Rectangle 19" width="20.535" height="4.107" transform="translate(1699.643 4205.217)" fill="#ccc"/>
      <path id="Path_186" data-name="Path 186" d="M490.11,353.576H477.79a4.625,4.625,0,0,1-4.62-4.62v-50.31a4.626,4.626,0,0,1,4.62-4.62H490.11a4.626,4.626,0,0,1,4.62,4.62v50.31A4.626,4.626,0,0,1,490.11,353.576Z" transform="translate(1256.763 3869.608)" fill="#f2f2f2" style="isolation: isolate"/>
      <rect id="Rectangle_20" data-name="Rectangle 20" width="20.535" height="4.107" transform="translate(1730.445 4173.388)" fill="#ccc"/>
      <rect id="Rectangle_21" data-name="Rectangle 21" width="20.535" height="4.107" transform="translate(1730.445 4205.217)" fill="#ccc"/>
      <path id="Path_187" data-name="Path 187" d="M351.11,434.577H338.79a4.625,4.625,0,0,1-4.62-4.62v-50.31a4.626,4.626,0,0,1,4.62-4.62H351.11a4.626,4.626,0,0,1,4.62,4.62v50.31A4.626,4.626,0,0,1,351.11,434.577Z" transform="translate(1253.046 3871.774)" fill="#f2f2f2" style="isolation: isolate"/>
      <rect id="Rectangle_22" data-name="Rectangle 22" width="20.535" height="4.107" transform="translate(1587.729 4256.554)" fill="#ccc"/>
      <rect id="Rectangle_23" data-name="Rectangle 23" width="20.535" height="4.107" transform="translate(1587.729 4288.383)" fill="#ccc"/>
      <path id="Path_188" data-name="Path 188" d="M381.11,434.577H368.79a4.625,4.625,0,0,1-4.62-4.62v-50.31a4.625,4.625,0,0,1,4.62-4.62H381.11a4.625,4.625,0,0,1,4.62,4.62v50.31A4.626,4.626,0,0,1,381.11,434.577Z" transform="translate(1253.848 3871.774)" fill="#f2f2f2" style="isolation: isolate"/>
      <rect id="Rectangle_24" data-name="Rectangle 24" width="20.535" height="4.107" transform="translate(1618.531 4256.554)" fill="#ccc"/>
      <rect id="Rectangle_25" data-name="Rectangle 25" width="20.535" height="4.107" transform="translate(1618.531 4288.383)" fill="#ccc"/>
      <path id="Path_189" data-name="Path 189" d="M411.11,434.577H398.79a4.626,4.626,0,0,1-4.62-4.62v-50.31a4.626,4.626,0,0,1,4.62-4.62H411.11a4.625,4.625,0,0,1,4.62,4.62v50.31A4.626,4.626,0,0,1,411.11,434.577Z" transform="translate(1254.65 3871.774)" fill="#f2f2f2" style="isolation: isolate"/>
      <rect id="Rectangle_26" data-name="Rectangle 26" width="20.535" height="4.107" transform="translate(1649.333 4256.554)" fill="#ccc"/>
      <rect id="Rectangle_27" data-name="Rectangle 27" width="20.535" height="4.107" transform="translate(1649.333 4288.383)" fill="#ccc"/>
      <path id="Path_190" data-name="Path 190" d="M444.11,272.577H431.79a4.625,4.625,0,0,1-4.62-4.62v-50.31a4.626,4.626,0,0,1,4.62-4.62H444.11a4.625,4.625,0,0,1,4.62,4.62v50.31A4.625,4.625,0,0,1,444.11,272.577Z" transform="translate(1255.533 3867.443)" fill="#f2f2f2" style="isolation: isolate"/>
      <rect id="Rectangle_28" data-name="Rectangle 28" width="20.535" height="4.107" transform="translate(1683.215 4090.222)" fill="#ccc"/>
      <rect id="Rectangle_29" data-name="Rectangle 29" width="20.535" height="4.107" transform="translate(1683.215 4122.051)" fill="#ccc"/>
      <path id="Path_191" data-name="Path 191" d="M474.11,272.577H461.79a4.626,4.626,0,0,1-4.62-4.62v-50.31a4.626,4.626,0,0,1,4.62-4.62H474.11a4.625,4.625,0,0,1,4.62,4.62v50.31A4.626,4.626,0,0,1,474.11,272.577Z" transform="translate(1256.335 3867.443)" fill="#f2f2f2" style="isolation: isolate"/>
      <rect id="Rectangle_30" data-name="Rectangle 30" width="20.535" height="4.107" transform="translate(1714.017 4090.222)" fill="#ccc"/>
      <rect id="Rectangle_31" data-name="Rectangle 31" width="20.535" height="4.107" transform="translate(1714.017 4122.051)" fill="#ccc"/>
      <path id="Path_192" data-name="Path 192" d="M504.11,272.577H491.789a4.625,4.625,0,0,1-4.62-4.62v-50.31a4.626,4.626,0,0,1,4.62-4.62H504.11a4.626,4.626,0,0,1,4.62,4.62v50.31A4.625,4.625,0,0,1,504.11,272.577Z" transform="translate(1257.137 3867.443)" fill="#f2f2f2" style="isolation: isolate"/>
      <rect id="Rectangle_32" data-name="Rectangle 32" width="20.535" height="4.107" transform="translate(1744.82 4090.222)" fill="#ccc"/>
      <rect id="Rectangle_33" data-name="Rectangle 33" width="20.535" height="4.107" transform="translate(1744.82 4122.051)" fill="#ccc"/>
      <path id="Path_193" data-name="Path 193" d="M534.11,272.577H521.79a4.625,4.625,0,0,1-4.62-4.62v-50.31a4.625,4.625,0,0,1,4.62-4.62H534.11a4.625,4.625,0,0,1,4.62,4.62v50.31A4.625,4.625,0,0,1,534.11,272.577Z" transform="translate(1257.939 3867.443)" fill="#f2f2f2" style="isolation: isolate"/>
      <rect id="Rectangle_34" data-name="Rectangle 34" width="20.535" height="4.107" transform="translate(1775.622 4090.222)" fill="#ccc"/>
      <rect id="Rectangle_35" data-name="Rectangle 35" width="20.535" height="4.107" transform="translate(1775.622 4122.051)" fill="#ccc"/>
      <path id="Path_194" data-name="Path 194" d="M586.257,272.579H293.637a1.027,1.027,0,0,1,0-2.053h292.62a1.027,1.027,0,0,1,0,2.053Z" transform="translate(1251.935 3868.98)" fill="#ccc"/>
      <path id="Path_195" data-name="Path 195" d="M586.257,353.579H293.637a1.027,1.027,0,0,1,0-2.054h292.62a1.027,1.027,0,0,1,0,2.054Z" transform="translate(1251.935 3871.146)" fill="#ccc"/>
      <path id="Path_196" data-name="Path 196" d="M586.257,434.579H293.637a1.027,1.027,0,0,1,0-2.053h292.62a1.027,1.027,0,0,1,0,2.053Z" transform="translate(1251.935 3873.311)" fill="#ccc"/>
    </g>
    <g id="avatar" transform="translate(1690.959 3274.611)">
      <g id="Group_6" data-name="Group 6" transform="translate(125.02 131)">
        <path id="Path_60" data-name="Path 60" d="M397.726,315.991a81.848,81.848,0,1,0-81.859-81.848A81.854,81.854,0,0,0,397.726,315.991Z" transform="translate(-200.765 -115.985)" fill="#9e616a"/>
        <path id="Path_61" data-name="Path 61" d="M604.3,381.137c-2.815-16.933-5.717-34.191-13.588-49.444C585.54,321.7,577.329,312.18,566.26,310.2a23.592,23.592,0,0,1-6.367-1.473c-3.244-1.562-46.828-26.44-53.755-30.773-5.948-3.72-15.337-10.605-20.072-10.605-4.763-.1-23.026,4.143-94.31-1.426,0,0-19.583,7.718-34.735,17.077-.229-.151-73.985,39.45-76.756,39.345-5.248-.221-10.125,3.138-13.135,7.369s-4.417,9.467-5.895,14.531c16.11,35.869,30.849,71.787,46.959,107.656a9.2,9.2,0,0,1,1.166,4.419,10.8,10.8,0,0,1-2,4.419c-7.9,12.689-7.651,28.65-6.786,43.564s1.931,30.668-4.735,44.037c-1.813,3.669-4.171,7.028-5.895,10.7-4.038,8.314-5.5,34.9-3.139,43.831l295.532,8.46C575.976,593.87,604.3,381.137,604.3,381.137Z" transform="translate(-231.286 -52.504)" fill="#45b3ff"/>
        <path id="Path_62" data-name="Path 62" d="M245.022,393.457a52.118,52.118,0,0,0-.178,12.867l4.236,60.822c.4,5.733.789,11.45,1.328,17.169,1.016,11.1,2.534,22.106,4.419,33.1a5.893,5.893,0,0,0,6.043,5.733c18.645,3.945,37.91,3.788,56.938,2.712,29.038-1.62,103.327-4.685,107.865-10.582s1.894-15.431-4.024-20.2S317.7,478.692,317.7,478.692c.957-7.589,3.848-14.737,6.589-21.943,4.924-12.781,9.523-25.983,9.611-39.674s-5.07-28.087-16.286-35.93c-9.229-6.439-21.109-7.634-32.353-7.369-8.18.235-22.314-1.725-29.787,1.473C249.554,377.853,246.126,387.668,245.022,393.457Z" transform="translate(-240.618 7.533)" fill="#9e616a"/>
        <path id="Path_63" data-name="Path 63" d="M271.117,320.243a15.251,15.251,0,0,0-3.27,5.232,247.338,247.338,0,0,0-20.785,84.917,8.479,8.479,0,0,1-.957,4.112,18.03,18.03,0,0,1-2.167,2.343,8.135,8.135,0,0,0,.973,11.466c.134.112.271.221.411.326,2.431-4.576,8.255-6.073,13.429-6.47,24.776-1.959,48.979,9.565,73.829,8.7-1.754-6.057-4.275-11.878-5.7-18.009-6.323-27.22,9.447-56.857-.221-83.075-1.933-5.246-5.159-10.406-10.244-12.7a27.308,27.308,0,0,0-6.559-1.735c-6.28-1.135-18.78-5.984-24.851-4.038-2.241.723-3.124,2.829-4.982,4.1C277.2,317.208,273.456,317.87,271.117,320.243Z" transform="translate(-242.02 -27.409)" fill="#45b3ff"/>
        <path id="Path_64" data-name="Path 64" d="M543.28,375.25c-7.472-3.2-21.608-1.239-29.789-1.474-11.243-.265-23.124.929-32.352,7.369-11.216,7.842-16.375,22.239-16.286,35.93s4.687,26.893,9.609,39.674c2.742,7.2,5.631,14.354,6.59,21.943,0,0-98.036,11.621-103.955,16.388s-8.562,14.3-4.023,20.2,146.155,11.813,164.8,7.87a5.9,5.9,0,0,0,6.043-5.733c1.884-10.993,3.4-22,4.419-33.1.539-5.717.93-11.436,1.328-17.169l4.236-60.822a52.105,52.105,0,0,0-.178-12.865C552.622,387.668,549.2,377.853,543.28,375.25Z" transform="translate(-170.087 7.533)" fill="#9e616a"/>
        <path id="Path_65" data-name="Path 65" d="M485.438,315.4c-1.856-1.275-2.74-3.378-4.981-4.1-6.071-1.945-18.571,2.9-24.851,4.038a27.277,27.277,0,0,0-6.557,1.735c-5.084,2.3-8.312,7.46-10.244,12.7-9.67,26.218,6.1,55.854-.221,83.075-1.429,6.13-3.953,11.952-5.7,18.009,24.851.87,49.052-10.657,73.829-8.7,5.175.4,11,1.894,13.428,6.47.142-.1.279-.214.413-.326a8.132,8.132,0,0,0,.973-11.464,18.049,18.049,0,0,1-2.167-2.344,8.478,8.478,0,0,1-.957-4.112,247.339,247.339,0,0,0-20.785-84.917,15.255,15.255,0,0,0-3.272-5.232C492,317.87,488.26,317.208,485.438,315.4Z" transform="translate(-135.396 -27.409)" fill="#45b3ff"/>
        <path id="Path_66" data-name="Path 66" d="M360.751,487.172a22.091,22.091,0,1,0-22.094-22.091A22.094,22.094,0,0,0,360.751,487.172Z" transform="translate(-188.034 46.413)" fill="#fbbebe"/>
        <path id="Path_67" data-name="Path 67" d="M392.137,487.172a22.091,22.091,0,1,0-22.094-22.091A22.093,22.093,0,0,0,392.137,487.172Z" transform="translate(-170.499 46.413)" fill="#fbbebe"/>
        <path id="Path_68" data-name="Path 68" d="M585.3,564.672H281.767A13.381,13.381,0,0,1,268.4,551.308V367.187a13.381,13.381,0,0,1,13.367-13.364H585.3a13.381,13.381,0,0,1,13.367,13.364V551.308A13.381,13.381,0,0,1,585.3,564.672Z" transform="translate(-227.284 -3.4)" fill="#3f3d56"/>
        <path id="Path_69" data-name="Path 69" d="M377.044,433.473a8.842,8.842,0,1,0-8.844-8.842A8.842,8.842,0,0,0,377.044,433.473Z" transform="translate(-171.529 31.217)" fill="#fff"/>
        <path id="Path_71" data-name="Path 71" d="M328.627,247.449c-13.154,0-23.815-11.528-23.815-25.746V208.829c0-14.22,10.661-25.746,23.815-25.746Z" transform="translate(-206.941 -98.786)" fill="#45b3ff"/>
        <path id="Path_72" data-name="Path 72" d="M417.617,183.083c13.154,0,23.816,11.526,23.816,25.746V221.7c0,14.218-10.663,25.746-23.816,25.746Z" transform="translate(-143.922 -98.786)" fill="#45b3ff"/>
        <path id="Path_73" data-name="Path 73" d="M490.634,236.039h-3.778c0-51.808-38.988-93.957-86.911-93.957s-86.912,42.152-86.912,93.957h-3.778c0-54.06,40.683-98.043,90.689-98.043S490.634,181.981,490.634,236.039Z" transform="translate(-204.459 -123.974)" fill="#45b3ff"/>
        <path id="Path_74" data-name="Path 74" d="M329.686,255.9s6.236-10.951,4.787-47.531,54.262-15.891,100.814-19.379,36.7,61.07,36.7,61.07,3.359-3.839,10.549-35-9.135-62.211-9.135-62.211c-4.808-32.743-30.721-22.248-30.721-22.248,12.479,4.858,10.083,15.245,10.083,15.245-10.565-18.518-36.477-8.024-36.477-8.024-34.562-21.686-69.589,6.871-69.589,6.871-41.752,9.475-17.265,42.673-17.265,42.673C287.439,208.582,329.686,255.9,329.686,255.9Z" transform="translate(-203.577 -129)" fill="#2f2e41"/>
      </g>
    </g>
  </g>
</svg>
