<svg xmlns="http://www.w3.org/2000/svg" width="5443.521" height="8028.647" viewBox="0 0 5443.521 8028.647">
  <g id="Group_41" data-name="Group 41" transform="translate(18889.018 -4475)">
    <path id="Path_825" data-name="Path 825" d="M572.331,451.761s-139.3,626.839,139.3,515.4S823.066,423.9,823.066,423.9Z" transform="translate(-19388.572 7757.379)" fill="#ffb9b9"/>
    <path id="Path_826" data-name="Path 826" d="M918.013,443.964s334.314,403.963,125.368,487.542S723,555.4,750.856,513.613,918.013,443.964,918.013,443.964Z" transform="translate(-17129.389 7974.122)" fill="#ffb9b9"/>
    <circle id="Ellipse_200" data-name="Ellipse 200" cx="417.893" cy="417.893" r="417.893" transform="translate(-17423.266 4726.7)" fill="#ffb9b9"/>
    <path id="Path_827" data-name="Path 827" d="M574.79,70.3l-55.721,431.82L978.743,669.276l97.516-487.541Z" transform="translate(-17893.576 5234.485)" fill="#ffb9b9"/>
    <path id="Path_828" data-name="Path 828" d="M1957.977,409.782S1721.834,293.2,1672.749,198.265l-104.8,100.079S815.737,228.695,704.3,604.8s-13.929,1741.22-13.929,1741.22-153.228,612.91-111.438,626.839,557.19,264.665,1281.538,125.368c0,0,320.384-55.719,376.1-13.93s-27.859-668.628-27.859-668.628S2765.9,1161.988,2668.4,1008.761s-529.331-473.612-529.331-473.612l27.859-153.227S1971.906,465.5,1957.977,409.782Z" transform="translate(-19019.068 5319.861)" fill="#004a7c"/>
    <path id="Path_829" data-name="Path 829" d="M1219.977,224.447S969.241,349.815,927.452,544.832,495.63,2355.7,537.418,2453.209s27.86,222.876,27.86,222.876L927.452,2634.3S857.8,2536.788,899.593,2495s83.578-181.087,55.719-236.806-55.719,41.789,97.508-139.3S1554.292,280.166,1219.977,224.447Z" transform="translate(-19423.309 5602.704)" fill="#004a7c"/>
    <path id="Path_830" data-name="Path 830" d="M1188.506,264.574s118.4,6.965,146.263,201.982S1411.382,1866.5,1411.382,1866.5s181.087,390.033,111.438,445.752-27.859,139.3-27.859,139.3L1244.225,2521.2,700.964,1671.479Z" transform="translate(-17622.758 6036.189)" fill="#004a7c"/>
    <path id="Path_831" data-name="Path 831" d="M733.072,428.622s-83.579,13.93-83.579,320.385S496.266,2002.685,593.774,2155.912,705.211,3688.186,705.211,3688.186s264.666,111.438,487.542-250.736l27.86-195.017,55.719-947.224L1499.208,1111.18l306.455,1309.4S1763.874,3994.64,1917.1,3994.64s445.752-125.367,445.752-125.367,69.649-139.3,41.789-208.947-55.719-55.719-27.859-111.437,69.648-1504.414,69.648-1504.414S2390.712,553.99,2321.063,512.2,733.072,428.622,733.072,428.622Z" transform="translate(-19131.42 7808.378)" fill="#2f2e41"/>
    <path id="Path_832" data-name="Path 832" d="M960.4,904.061,737.528,1140.868s-403.963,376.1-55.719,390.032,543.261-222.876,543.261-250.735S1239,1154.8,1336.507,1154.8s334.314-236.806,278.6-334.314-222.876-139.3-222.876-139.3Z" transform="translate(-19358.754 10536.783)" fill="#2f2e41"/>
    <path id="Path_833" data-name="Path 833" d="M769.061,868.7S601.9,1203.018,699.412,1272.667s125.368,97.509,125.368,97.509,83.578-13.93,69.648,111.438,501.472,195.018,529.331,97.509,13.93-292.525-41.789-348.244-222.876-445.752-222.876-445.752S978.007,576.179,769.061,868.7Z" transform="translate(-17969.449 10878.596)" fill="#2f2e41"/>
    <path id="Path_834" data-name="Path 834" d="M1573.087,443.922l78.723-11.183s-109.591-201.708-321.7-238.335l74.456-50.253s-129.381-92.463-296.589,26.387c-87.9,62.476-189.954,136.223-265.025,229.047l-76.793-18.767,14.8,78.4L651.537,502.378l118.236,15.463a405.957,405.957,0,0,0-31.732,116.292,155.911,155.911,0,0,0,31.247,112.633h0S903.2,584.425,910.22,555.718l-17.539,71.768s87.492-47.067,98.016-90.127l26.834,59.8,38.85-74.166,221.9,137.891-23.327-74.15,144.67,58.172-39.377-93.284s146.686,134.72,133.913,215.258,18.553,167.466,18.553,167.466S1735.823,597.775,1573.087,443.922Z" transform="translate(-18156.709 4365.114)" fill="#2f2e41"/>
    <path id="Path_844" data-name="Path 844" d="M2869.888,2488.114,628.109,1682.957,1028.333,568.612,2424.176,226.293l845.947,1147.487Z" transform="translate(-16715.621 6919.615)" fill="#2f2e41"/>
    <path id="Path_845" data-name="Path 845" d="M2471.925,2594.752,796.636,1956.141c434.909-582.55,629.393-993.481,629.535-1640.116l1675.29,638.611C2712.259,1507.495,2549.5,1923.1,2471.925,2594.752Z" transform="translate(-16589.23 6592.009)" fill="#f2f2f2"/>
    <rect id="Rectangle_93" data-name="Rectangle 93" width="928.842" height="43.202" transform="translate(-14853.379 7303.146) rotate(20.866)" fill="#3f3d56"/>
    <rect id="Rectangle_94" data-name="Rectangle 94" width="928.842" height="43.202" transform="translate(-14914.932 7464.619) rotate(20.866)" fill="#3f3d56"/>
    <rect id="Rectangle_95" data-name="Rectangle 95" width="928.842" height="43.202" transform="translate(-14976.483 7626.093) rotate(20.866)" fill="#3f3d56"/>
    <rect id="Rectangle_96" data-name="Rectangle 96" width="928.842" height="43.202" transform="translate(-15038.036 7787.566) rotate(20.866)" fill="#3f3d56"/>
    <rect id="Rectangle_97" data-name="Rectangle 97" width="928.842" height="43.202" transform="translate(-15099.588 7949.04) rotate(20.866)" fill="#3f3d56"/>
    <rect id="Rectangle_98" data-name="Rectangle 98" width="928.842" height="43.202" transform="translate(-15161.14 8110.514) rotate(20.866)" fill="#3f3d56"/>
    <rect id="Rectangle_99" data-name="Rectangle 99" width="928.842" height="43.202" transform="translate(-15222.692 8271.986) rotate(20.866)" fill="#3f3d56"/>
    <rect id="Rectangle_100" data-name="Rectangle 100" width="928.842" height="43.202" transform="translate(-15284.245 8433.46) rotate(20.866)" fill="#3f3d56"/>
    <path id="Path_846" data-name="Path 846" d="M2865.5,2319.005,623.721,1513.848,1075.736,255.3l946.685,887.647,1295.105-82.479Z" transform="translate(-16763.023 7232.931)" fill="#3f3d56"/>
    <path id="Path_847" data-name="Path 847" d="M1740.246,1458.122l-1117.8-401.475,272.363-758.37,22.225,7.979L652.645,1042.4l1095.578,393.5Z" transform="translate(-16776.84 7697.25)" fill="#6c63ff"/>
    <rect id="Rectangle_101" data-name="Rectangle 101" width="348.244" height="139.298" transform="translate(-15761.676 8231.148) rotate(19.756)" fill="#004a7c"/>
  </g>
</svg>
