<svg viewBox="0 0 59 59" fill="none" xmlns="http://www.w3.org/2000/svg">
<g clip-path="url(#clip0)">
<path d="M7.77974 10.5435C7.96412 10.5898 8.13285 10.6854 8.26732 10.8198L23.2896 25.8423L26.0079 23.1243L10.9853 8.10174C10.8506 7.96713 10.7554 7.79787 10.7088 7.61295L9.76336 3.84398L3.49568 0.260742L0.426453 3.32984L4.01077 9.60183L7.77974 10.5435Z" fill="#8C0000"/>
<path d="M21.1381 44.8103L44.9762 20.9718C45.2373 20.7104 45.6162 20.6056 45.9744 20.6948C49.113 21.4992 52.4467 20.8021 55.0011 18.8092C57.5559 16.8161 59.042 13.7512 59.0248 10.5114C59.0248 10.3141 59.019 10.1153 59.0062 9.91469L53.4618 15.4585C53.1808 15.7397 52.7642 15.8383 52.3865 15.7123L46.0804 13.61C45.7664 13.506 45.5201 13.2597 45.4153 12.946L43.3136 6.63977C43.1875 6.26266 43.2858 5.8459 43.5674 5.56441L49.1117 0.0202109C45.773 -0.187498 42.5362 1.21521 40.4036 3.79241C38.2714 6.37016 37.5008 9.81246 38.3302 13.0528C38.42 13.4116 38.3154 13.7903 38.054 14.0516L14.2163 37.8884C13.9548 38.1478 13.5763 38.253 13.2178 38.1652C12.3879 37.9521 11.5344 37.8416 10.6772 37.8383C6.1506 37.8085 2.10608 40.662 0.615706 44.9372C-0.873862 49.2119 0.521158 53.9613 4.08619 56.7513C7.65123 59.5414 12.5966 59.7548 16.3882 57.2811C20.1801 54.8077 21.978 50.196 20.8605 45.8085C20.7717 45.4504 20.8767 45.071 21.1381 44.8103ZM13.2355 52.5529H8.11965L5.59653 48.349L8.11965 44.1444H13.2355L15.7581 48.349L13.2355 52.5529ZM17.2917 40.2484L40.4143 17.1255L41.9002 18.6117L18.7777 41.7346L17.2917 40.2484Z" fill="#8C0000"/>
<path d="M50.4068 58.4516C52.7479 59.3317 55.3872 58.761 57.1559 56.9925C58.9246 55.2234 59.4956 52.5837 58.615 50.2432L50.4068 58.4516Z" fill="#8C0000"/>
<path d="M57.156 47.9666L45.3513 36.1572C44.0492 37.2517 42.1264 37.1685 40.9229 35.9665C39.7193 34.7647 39.6344 32.8425 40.727 31.539L39.0553 29.8652L30.0311 38.8898L31.713 40.5715C33.0151 39.477 34.9382 39.56 36.141 40.7616C37.3445 41.9636 37.4299 43.8861 36.3371 45.1897L48.1319 56.9906C48.2605 57.1193 48.3963 57.2385 48.5335 57.3545L57.5202 48.3679C57.4044 48.2304 57.2847 48.0951 57.156 47.9666ZM50.9245 52.2449L40.4143 41.7347L41.9002 40.2485L52.4107 50.7592L50.9245 52.2449Z" fill="#8C0000"/>
</g>
<defs>
<clipPath id="clip0">
<rect width="59" height="59" fill="white"/>
</clipPath>
</defs>
</svg>
