<svg id="Component_11_1" data-name="Component 11 – 1" xmlns="http://www.w3.org/2000/svg" xmlns:xlink="http://www.w3.org/1999/xlink" width="4930.902" height="7285.821" viewBox="0 0 4930.902 7285.821">
  <defs>
    <linearGradient id="linear-gradient" x1="8.737" y1="0.5" x2="9.737" y2="0.5" gradientUnits="objectBoundingBox">
      <stop offset="0" stop-color="gray" stop-opacity="0.251"/>
      <stop offset="0.54" stop-color="gray" stop-opacity="0.122"/>
      <stop offset="1" stop-color="gray" stop-opacity="0.102"/>
    </linearGradient>
  </defs>
  <path id="Path_989" data-name="Path 989" d="M934.88,658.137c0,47.008,5.288,85.007,11.752,85.007s11.752-38.1,11.752-85.007-6.562-24.875-13.123-24.875S934.88,610.737,934.88,658.137Z" transform="translate(3385.285 4841.363)" fill="#ffd037"/>
  <path id="Path_990" data-name="Path 990" d="M950.677,665.523c41.231,22.524,77.173,36.04,80.307,30.359s-27.813-28.6-68.554-51.024-24.974-6.072-28.107,0S909.154,643.1,950.677,665.523Z" transform="translate(3304.458 4889.604)" fill="#ffd037"/>
  <path id="Path_993" data-name="Path 993" d="M557.1,1006.975c-27.715-45.246-69.142-86.672-62.678-137.989,76,8.716,148.077-9.793,217.708-41.916S846.4,752.933,911.527,711.9c25.659-16.159,51.22-32.025,76.683-46.715,40.349-23.21,80.4-48.967,121.438-71.59,58.761-32.318,118.794-58.76,184.7-63.853,11.85-.881,23.9-1.077,35.942-.881,81.285,1.665,165.509,23.406,237-13.025l4.407-2.35c40.447-22.231,70.023-60.132,104.79-90.687a467.243,467.243,0,0,1,81.188-56.41c52.688-29.38,109.881-52.884,163.941-80.6a257.675,257.675,0,0,0,39.174-25.169l9.205-7.345,2.057-1.763,6.659-5.68,4.211-3.721,4.309-3.917,3.33-3.134,5.386-5.093.587-.588,8.618-8.52,3.428-3.428,5.974-6.072,3.525-3.624,18.021-18.51c7.051-7.149,14.3-14.2,21.741-21.056h0l7.051-6.268,2.057-1.763,5.681-4.8,2.742-2.253,5.583-4.309,2.742-2.155,8.422-6.072a59.388,59.388,0,0,1,8.227-4.7l-17.628-44.658,52.688-21.741,726.575,1763.307L2809.3,1854.5,2393.567,845.775l-2.938,2.938A835.282,835.282,0,0,1,2046.977,1053.2h-.783c-72.374,21.839-153.365,37.313-214.28,78.348a205.663,205.663,0,0,0-55.333,52.982c-14.3,20.37-24.287,43.581-39.663,63.167-2.84,3.624-5.974,7.149-9.108,10.479a340.122,340.122,0,0,1-58.76,46.519l-9.794,6.366A1904.886,1904.886,0,0,1,1462.409,1432.5a774.928,774.928,0,0,1-122.321,50.926c-30.653,9.793-62.286,16.943-92.939,26.638a361.045,361.045,0,0,0-59.936,24.092c-51.905,27.128-91.765,69.631-129.469,114.975-33,39.761-64.343,81.775-100.579,118.011-22.623,22.623-57.194,43.875-84.713,30.654a47.22,47.22,0,0,1-5.484-3.232c.783-1.469,1.566-2.938,2.252-4.5,21.644-45.344-4.995-101.362-40.838-137.794-3.722-3.721-7.541-7.443-11.458-11.067s-10.871-9.793-16.551-14.69c-30.654-26.344-63.266-50.828-84.518-84.811a278.239,278.239,0,0,1-32.514-92.156c-9.793-46.127-16.257-93.625-41.328-132.9-16.551-25.952-40.937-48.086-58.761-72.961a110.282,110.282,0,0,1-21.545-50.24c-4.016-31.927,10.772-63.07,16.355-94.8a117.5,117.5,0,0,0,1.958-26.246,138.578,138.578,0,0,0-22.917-65.42Z" transform="translate(-493.751 -69.45)" fill="url(#linear-gradient)"/>
  <rect id="Rectangle_182" data-name="Rectangle 182" width="56.116" height="1875.148" transform="translate(2348.417 1749.422) rotate(157.6)" fill="#d6d8e1"/>
  <path id="Path_994" data-name="Path 994" d="M641.782,1242.164c24.68,38.586,31.143,85.3,40.643,130.644A273.549,273.549,0,0,0,714.45,1463.4c20.958,33.4,52.981,57.585,83.047,83.44,5.484,4.7,10.969,9.793,16.257,14.4a155.384,155.384,0,0,1,11.263,10.871c35.256,35.746,61.405,90.785,40.153,135.443a47,47,0,0,1-2.252,4.407,46.379,46.379,0,0,0,5.386,3.134c27.03,13.025,61.013-7.933,83.244-30.164,35.648-35.648,66.5-76.977,98.913-116.052,37.02-44.658,76.291-86.378,127.315-113.114a355,355,0,0,1,58.76-23.7c30.066-9.793,61.209-16.747,91.374-26.246a761.949,761.949,0,0,0,120.361-50.044,1872.919,1872.919,0,0,0,193.519-119.382l9.206-6.268a334.466,334.466,0,0,0,57.782-45.735c3.134-3.329,6.17-6.757,8.912-10.283,15.082-19.587,24.973-42.112,39.174-62.09a202.439,202.439,0,0,1,54.451-52.1c59.936-39.859,139.458-55.137,210.657-76.585h.784a821.271,821.271,0,0,0,337.874-201.059,54.543,54.543,0,0,0,16.942-24.875c3.036-13.809-4.407-27.422-11.556-39.174q-12.535-21.35-24.386-43.091a1925.924,1925.924,0,0,1-96.661-203.116q-9.255-22.77-17.922-45.833-22.232-58.761-40.545-119.186c-4.015-13.417-7.933-26.736-11.654-40.251-.686-2.546-1.371-5.288-2.154-8.226-16.257-66.106-38-218.589-104.888-172.854a378.959,378.959,0,0,0-55.333,47.988c-13.025,13.221-25.757,26.834-39.174,39.957a387.3,387.3,0,0,1-34.571,30.261,253.461,253.461,0,0,1-39.173,24.68c-53.081,27.226-109.393,50.044-161.2,79.229a459.5,459.5,0,0,0-79.817,55.431c-34.179,30.164-63.266,67.379-103.027,89.218l-4.407,2.253c-70.317,35.844-153.071,14.4-232.985,12.731-11.851,0-23.7,0-35.354.881-64.832,4.995-124.18,31.045-181.57,62.776-40.349,22.329-79.719,47.6-119.382,70.415-25.071,14.4-50.143,29.968-75.41,45.931-64.147,40.349-128.979,82.754-195.869,113.212s-139.36,49.849-214.084,41.23c-6.366,50.436,34.375,91.177,61.6,135.737a136.23,136.23,0,0,1,23.015,64.245,115,115,0,0,1-1.958,25.757c-5.484,31.241-19.587,61.8-16.062,93.234A108.414,108.414,0,0,0,584.2,1169.79C601.531,1194.861,625.231,1216.7,641.782,1242.164Z" transform="translate(-475.892 -0.944)" fill="#e6e8ed"/>
  <path id="Path_995" data-name="Path 995" d="M643.1,203.963l54.647,129.763L877.163,258.12c-16.159-65.714-37.9-218.2-104.79-172.462C723.9,118.76,691.088,167.139,643.1,203.963Z" transform="translate(819.538 -0.945)" fill="#5a5773"/>
  <path id="Path_996" data-name="Path 996" d="M604,245.527l23.308,55.431L834.341,213.8l-47.6-113.016a459.5,459.5,0,0,0-79.817,55.431C672.554,186.473,643.859,223.688,604,245.527Z" transform="translate(475.715 206.048)" fill="#5a5773"/>
  <path id="Path_997" data-name="Path 997" d="M557.62,180.757l63.559,150.819,207.033-87.161L774.544,117.1c-11.85,0-23.7,0-35.354.881C674.357,122.878,615.009,148.928,557.62,180.757Z" transform="translate(67.875 349.557)" fill="#5a5773"/>
  <path id="Path_998" data-name="Path 998" d="M517.7,248.652l40.349,95.78L765.082,257.27,713.765,135.44C649.715,176.181,584.785,218.488,517.7,248.652Z" transform="translate(-283.158 510.828)" fill="#5a5773"/>
  <rect id="Rectangle_183" data-name="Rectangle 183" width="224.661" height="224.661" transform="translate(1604.309 539.412) rotate(157.18)" fill="#5a5773"/>
  <rect id="Rectangle_184" data-name="Rectangle 184" width="224.661" height="224.661" transform="translate(1190.208 713.651) rotate(157.18)" fill="#5a5773"/>
  <rect id="Rectangle_185" data-name="Rectangle 185" width="224.661" height="224.661" transform="translate(776.145 887.98) rotate(157.18)" fill="#5a5773"/>
  <path id="Path_999" data-name="Path 999" d="M523.2,328.009,575,451.015l207.033-87.161L694.875,156.82,502.14,237.91a136.234,136.234,0,0,1,23.014,64.245,114.977,114.977,0,0,1-1.958,25.854Z" transform="translate(-419.984 698.832)" fill="#5a5773"/>
  <path id="Path_1000" data-name="Path 1000" d="M657.58,186.827,744.742,393.86l174.127-73.255A1926.185,1926.185,0,0,1,822.208,117.49Z" transform="translate(946.867 352.986)" fill="#5a5773"/>
  <rect id="Rectangle_186" data-name="Rectangle 186" width="224.661" height="224.661" transform="translate(1484.442 833.608) rotate(157.18)" fill="#5a5773"/>
  <rect id="Rectangle_187" data-name="Rectangle 187" width="224.661" height="224.661" transform="translate(1070.251 1007.885) rotate(157.18)" fill="#5a5773"/>
  <rect id="Rectangle_188" data-name="Rectangle 188" width="224.661" height="224.661" transform="translate(656.188 1182.313) rotate(157.18)" fill="#5a5773"/>
  <path id="Path_1001" data-name="Path 1001" d="M645.33,232.959l62.384,148.175a821.263,821.263,0,0,0,204.1-94.213L852.363,145.7Z" transform="translate(839.147 601.049)" fill="#5a5773"/>
  <path id="Path_1002" data-name="Path 1002" d="M603,250.672,690.162,457.7l75.508-31.829c3.134-3.33,6.17-6.758,8.912-10.283,15.082-19.587,24.973-42.112,39.174-62.09a202.429,202.429,0,0,1,54.451-52.1L810.229,163.51Z" transform="translate(466.921 757.66)" fill="#5a5773"/>
  <rect id="Rectangle_189" data-name="Rectangle 189" width="224.661" height="224.661" transform="translate(950.482 1302.082) rotate(157.18)" fill="#5a5773"/>
  <path id="Path_1003" data-name="Path 1003" d="M518.47,286.261l79.522,189.013c5.484,4.7,10.969,9.793,16.257,14.4l198.415-83.538L725.5,199.1Z" transform="translate(-276.388 1070.618)" fill="#5a5773"/>
  <path id="Path_1004" data-name="Path 1004" d="M603.125,408.877l35.55-14.984L551.514,186.86,504.8,206.447c17.334,24.484,41.328,46.225,57.585,71.688C587.162,316.819,593.625,363.533,603.125,408.877Z" transform="translate(-396.593 962.986)" fill="#5a5773"/>
  <path id="Path_1005" data-name="Path 1005" d="M590.8,280.712,612.835,333.2A1872.925,1872.925,0,0,0,806.353,213.822l-8.52-20.272Z" transform="translate(359.642 1021.814)" fill="#5a5773"/>
  <path id="Path_1006" data-name="Path 1006" d="M548.52,298.512l38.39,91.177c37.02-44.658,76.291-86.378,127.314-113.114a355.021,355.021,0,0,1,58.761-23.7l-17.53-41.524Z" transform="translate(-12.145 1178.337)" fill="#5a5773"/>
  <path id="Path_1008" data-name="Path 1008" d="M1205.035,798.984s-4.7,126.335-280.777,88.925,93.625,182.549,93.625,182.549l744.3,14s43.776-323.184-65.518-323.184C1691.867,761.573,1205.035,798.984,1205.035,798.984Z" transform="translate(2391.591 6014.108)" fill="#4a4347"/>
  <path id="Path_1009" data-name="Path 1009" d="M1205.035,798.984s-4.7,126.335-280.777,88.925,93.625,182.549,93.625,182.549l744.3,14s43.776-323.184-65.518-323.184C1691.867,761.573,1205.035,798.984,1205.035,798.984Z" transform="translate(2391.591 6014.108)" opacity="0.1"/>
  <path id="Path_1010" data-name="Path 1010" d="M814.219,1202.07a93.824,93.824,0,0,0,22.231,40.642c108.414,119.97,534.231,83.637,576.833,109.1,6.464,3.918,12.634,24.973,18.412,58.761h0c20.076,116.934,35.452,384.784,45.05,596.518,7.442,164.432,11.458,295.076,11.458,295.076L1512,3326.951l275.587-43.091,173.344-26.736-84.223-669.282s-4.7-617.77,9.793-655.279c42.5-113.31,18.8-293.8-9.793-428.267a892.451,892.451,0,0,1-6.954-338.755c48.967-280.974-22.329-498.388-71-605.625a585.638,585.638,0,0,0-39.175-73.451s-687.988-9.793-809.72,65.518a173.639,173.639,0,0,0-54.353,61.111C812.554,753.433,778.963,1061.143,814.219,1202.07Z" transform="translate(2202.147 3593.869)" fill="#5a5773"/>
  <path id="Path_1011" data-name="Path 1011" d="M1186.878,818.1s-4.7,126.335-280.777,88.924c-178.338-24.189-87.259,58.761,0,120.949a342.77,342.77,0,0,0,192.734,63.461l645.388,12.144S1788,780.4,1678.7,780.4C1673.612,780.694,1186.878,818.1,1186.878,818.1Z" transform="translate(2231.997 6182.238)" fill="#4a4347"/>
  <path id="Path_1012" data-name="Path 1012" d="M941.3,1350.577s42.014,3.134,107.728,4.995c72.863,2.057,175.009,2.448,280.974-4.995,201.255-14,154.443-154.442,154.443-154.442l-79.523-552.252s-201.255-463.327-257.371-327.59,102.929,351,102.929,351,70.219,365.1,0,416.515c-44.462,32.612-117.521,12.046-166.488-7.443a435.749,435.749,0,0,1-47.2-22.23Z" transform="translate(3441.739 1882.136)" fill="#a1616a"/>
  <path id="Path_1013" data-name="Path 1013" d="M765.189,611.156,816.7,1172.809s60.817,117.032,131.036,154.442c48.085,25.659,142.1,106.063,196.75,154.247,25.169,22.231,42.014,37.607,42.014,37.607l140.438-224.661a270.985,270.985,0,0,0-32.416-36.823,358.046,358.046,0,0,0-178.241-94.213s-11.654-35.06-37.411-97.934c-18.021-44.168-131.036-290.179-131.036-290.179s-46.813-196.554-37.411-294.88S765.386,194.935,741.979,218.341,699.671,517.531,765.189,611.156Z" transform="translate(1497.669 1222.174)" fill="#a1616a"/>
  <path id="Path_1014" data-name="Path 1014" d="M831.861,758.542s505.439,70.219,439.92-42.112c-18.021-30.849-28.6-75.605-34.473-124.181-15.474-128.1,1.763-283.03,1.763-283.03l-379.1,65.518A511.607,511.607,0,0,1,875.54,599.2a620.617,620.617,0,0,1-43.68,159.338Z" transform="translate(2479.385 2038.951)" fill="#a1616a"/>
  <circle id="Ellipse_330" data-name="Ellipse 330" cx="243.367" cy="243.367" r="243.367" transform="translate(3243.377 2051.037)" fill="#a1616a"/>
  <path id="Path_1015" data-name="Path 1015" d="M810.06,613.074a176.288,176.288,0,0,0,77.761,37.214c74.919,14,318.286,42.112,411.911-32.808,74.234-59.348,316.229-59.936,413.186-57.585a585.544,585.544,0,0,0-39.174-73.451s-687.989-9.793-809.721,65.519A173.644,173.644,0,0,0,810.06,613.074Z" transform="translate(2287.689 3593.694)" opacity="0.1"/>
  <path id="Path_1016" data-name="Path 1016" d="M763.54,546.538c25.169,22.231,42.014,37.607,42.014,37.607L945.992,359.483a270.891,270.891,0,0,0-32.416-36.823C845.218,335.783,785.87,483.468,763.54,546.538Z" transform="translate(1878.618 2157.134)" opacity="0.1"/>
  <path id="Path_1017" data-name="Path 1017" d="M941.3,665.717s42.014,3.134,107.728,4.995c103.419-124.083,48.479-246.7,35.354-279.211a435.886,435.886,0,0,1-47.2-22.231Z" transform="translate(3441.739 2566.996)" opacity="0.1"/>
  <path id="Path_1018" data-name="Path 1018" d="M831.861,537.819s505.439,70.219,439.92-42.112c-18.021-30.849-28.6-75.605-34.473-124.181a420.051,420.051,0,0,0-129.273-30.261c-86.77-21.644-179.612,11.948-232.5,37.215A620.638,620.638,0,0,1,831.86,537.819Z" transform="translate(2479.385 2259.674)" opacity="0.1"/>
  <path id="Path_1019" data-name="Path 1019" d="M1704.4,449.611s201.255,9.793,238.666,140.438c0,0,196.555,65.518,299.581,70.219S2621.756,777.3,2626.456,796s97.935,182.55-79.522,332.291c0,0-201.255-70.219-290.18,56.116s-187.25,730.1-97.934,795.618c0,0-360.4-18.706-454.023,56.117s-336.992,46.813-411.912,32.808-177.849-93.625-182.55-313.39,74.92-692.689-42.112-748.805S764.04,575.848,764.04,575.848,838.96,332.481,927.884,323.08c0,0,219.96,135.737,313.39,145.041a934.779,934.779,0,0,1,187.25,42.112S1573.368,416.607,1704.4,449.611Z" transform="translate(1883.016 2160.828)" fill="#004a7c"/>
  <path id="Path_1020" data-name="Path 1020" d="M937.072,954.77S897.213,778.488,869.4,641.38c7.442,164.432,11.458,295.076,11.458,295.076l23.8,1024.589,275.587-43.091Z" transform="translate(2809.491 4959.776)" opacity="0.1"/>
  <path id="Path_1021" data-name="Path 1021" d="M841.982,551s-93.625,360.4,0,486.733,201.255,641.176,201.255,641.176,70.219,360.4,121.732,421.117,28.106,776.913,28.106,776.913l608.466-32.808-276.175-1095.2s-88.924-393.108-93.625-463.327-28.107-678.685-28.107-678.685Z" transform="translate(2202.49 4165.026)" fill="#5a5773"/>
  <path id="Path_1022" data-name="Path 1022" d="M1019.392,521.717A356.676,356.676,0,0,1,813.73,321.931c25.855-9.793,52.982,14.1,80.5,12.242,33.3-2.253,52.2-39.174,80.7-56.019,37.117-22.525,85.888-9.793,123.4,12.34s71.1,51.807,112.526,64.93c35.452,11.262,73.549,9.01,110.764,11.165,47.2,2.644,144.551,11.067,179.905,47.106,19.587,19.587,10.772,39.174-7.051,55.627,4.8,27.52-4.9,52.885-1.763,85.4a144.656,144.656,0,0,1-10.97,82.95c-13.416,36.53-32.317,65.224-50.631,99.6-12.145,22.917-5.191,52.983-19.587,74.626A76.98,76.98,0,0,1,1382.14,835.3a312.8,312.8,0,0,1-225.248,27.127c-25.463-6.659-51.71-18.02-65.322-40.545-22.623-37.509,0-85.3-2.351-129.077C1086.576,630.913,1034.376,580.281,1019.392,521.717Z" transform="translate(2319.96 1661.729)" opacity="0.1"/>
  <path id="Path_1023" data-name="Path 1023" d="M1019.862,521.237A356.675,356.675,0,0,1,814.2,321.45c25.854-9.793,52.982,14.1,80.5,12.242,33.3-2.253,52.2-39.174,80.7-56.019,37.117-22.525,85.889-9.793,123.4,12.34s71.1,51.807,112.526,64.93c35.452,11.262,73.548,9.01,110.764,11.165,47.2,2.644,144.551,11.067,179.905,47.106,19.586,19.587,10.772,39.174-7.052,55.627,4.8,27.52-4.9,52.885-1.763,85.4a144.648,144.648,0,0,1-10.969,82.95c-13.417,36.53-32.317,65.224-50.632,99.6-12.144,22.917-5.19,52.982-19.587,74.626a76.981,76.981,0,0,1-29.381,23.406,312.8,312.8,0,0,1-225.248,27.128c-25.463-6.66-51.709-18.02-65.322-40.545-22.622-37.509,0-85.3-2.35-129.077C1087.143,630.531,1034.943,579.8,1019.862,521.237Z" transform="translate(2324.094 1657.508)" fill="#4a4347"/>
  <path id="Path_1024" data-name="Path 1024" d="M872.239,329.1l-34.081,12.046-1.566-16.355S834.829,333.8,872.239,329.1Z" transform="translate(2520.879 2175.864)" opacity="0.1"/>
</svg>
