<svg xmlns="http://www.w3.org/2000/svg" width="10343.438" height="7230.34" viewBox="0 0 10343.438 7230.34">
  <g id="Group_43" data-name="Group 43" transform="translate(-10630.655 -17769.609)">
    <path id="Path_887" data-name="Path 887" d="M2042.038,2016.614A3597.312,3597.312,0,0,1,991.418,2263.4a119.551,119.551,0,0,1-119.149-74.261l-309.2-768.972a118.335,118.335,0,0,1,65.569-153.755L2558.716,490.337A118.338,118.338,0,0,1,2712.479,555.9L3021.5,1324.427a118.481,118.481,0,0,1-35.7,136.624,3743.782,3743.782,0,0,1-943.756,555.563Z" transform="translate(10758.574 17770.48)" fill="#004a7c"/>
    <path id="Path_888" data-name="Path 888" d="M2667.36,541.537l51.678,128.522L1821.876,1456.3a95.282,95.282,0,0,1-60.456,23.291L609.266,1506.16l-47.447-118a94.834,94.834,0,0,1,52.456-123.009l1930.076-776.07a94.837,94.837,0,0,1,123.011,52.453Z" transform="translate(10781.75 17793.666)" opacity="0.2"/>
    <path id="Path_889" data-name="Path 889" d="M2424.1,1815.078a118.236,118.236,0,0,1-41.343,8.537l-1721.7,39.791A118.2,118.2,0,0,1,581.1,1655.745L1794.934,608.332a119.388,119.388,0,0,1,70.046-28.513l1781.365-108a118.2,118.2,0,0,1,85.04,206.883l-1273.5,1115.645a118.133,118.133,0,0,1-33.792,20.724Z" transform="translate(10090.541 17298.004)" fill="#004a7c"/>
    <path id="Path_890" data-name="Path 890" d="M649.614,1344.7,605.74,1362.33,350.009,726.291,1687.9,188.308l17.634,43.874L411.471,752.531Z" transform="translate(10488.445 18276.475)" fill="#3f3d56"/>
    <g id="Group_42" data-name="Group 42" transform="translate(10542 17127)">
      <path id="Path_849" data-name="Path 849" d="M5584.053,263.5v5057.5c-697.792,418.2-1551.222,664.1-2472.708,664.1-1227.6,0-2164.015-463.95-2868.411-1174.663V263.5Z" transform="translate(1555.307 1887.844)" fill="#fff"/>
      <path id="Path_850" data-name="Path 850" d="M312.4,686.588a3341.626,3341.626,0,0,1,862.961-153.851,2700.736,2700.736,0,0,1,440.025,17.217,2752.5,2752.5,0,0,1,427.062,91.431c138.032,39.964,274.159,86.132,411.726,127.625A3839.89,3839.89,0,0,0,2879.7,872.848a3607.48,3607.48,0,0,0,432.36,51.532c143.607,8.346,288.622,9.975,431.828-5.324a1321.154,1321.154,0,0,0,388.524-98.488A1186.635,1186.635,0,0,0,4448.383,617.9q35.15-31.378,67.636-65.521c12.776-13.355-7.5-33.691-20.305-20.305-183.059,191.361-423.671,310.015-684.649,349.639-142.171,21.585-287.059,22.838-430.481,17.271a3542.14,3542.14,0,0,1-437.578-44.213,3656.781,3656.781,0,0,1-423.8-96.464c-136.764-39.621-271.664-85.3-407.948-126.49a3069.92,3069.92,0,0,0-420-100.066,2641.2,2641.2,0,0,0-430.913-29.91A3294.66,3294.66,0,0,0,408.711,627.955Q356.5,642.616,304.765,658.9c-17.574,5.51-10.071,33.24,7.634,27.69Z" transform="translate(1999.572 3929.062)" fill="#3f3d56"/>
      <path id="Path_851" data-name="Path 851" d="M312.4,762.588a3341.605,3341.605,0,0,1,862.961-153.851,2700.681,2700.681,0,0,1,440.025,17.216,2752.379,2752.379,0,0,1,427.062,91.431c138.033,39.965,274.16,86.133,411.727,127.625A3840,3840,0,0,0,2879.7,948.848a3607.379,3607.379,0,0,0,432.36,51.532c143.607,8.346,288.622,9.975,431.828-5.324a1321.182,1321.182,0,0,0,388.524-98.489A1186.615,1186.615,0,0,0,4448.383,693.9q35.15-31.377,67.636-65.521c12.776-13.355-7.5-33.691-20.305-20.305-183.059,191.36-423.671,310.015-684.649,349.638-142.171,21.585-287.059,22.838-430.481,17.271a3542.329,3542.329,0,0,1-437.578-44.213,3656.786,3656.786,0,0,1-423.8-96.463c-136.763-39.621-271.663-85.3-407.948-126.491a3070.06,3070.06,0,0,0-420-100.065,2641.2,2641.2,0,0,0-430.913-29.91A3294.618,3294.618,0,0,0,408.711,703.956Q356.5,718.616,304.765,734.9c-17.574,5.51-10.071,33.24,7.634,27.689Z" transform="translate(1999.572 4580.525)" fill="#3f3d56"/>
      <path id="Path_852" data-name="Path 852" d="M312.4,617.588a3341.646,3341.646,0,0,1,862.961-153.85,2700.732,2700.732,0,0,1,440.024,17.215,2752.493,2752.493,0,0,1,427.063,91.432c138.032,39.965,274.159,86.133,411.726,127.625A3840.225,3840.225,0,0,0,2879.7,803.847a3607.5,3607.5,0,0,0,432.361,51.532c143.608,8.347,288.622,9.976,431.828-5.324a1321.169,1321.169,0,0,0,388.524-98.488A1186.61,1186.61,0,0,0,4448.383,548.9q35.15-31.378,67.636-65.521c12.776-13.355-7.5-33.691-20.305-20.305-183.059,191.361-423.671,310.015-684.649,349.639-142.171,21.585-287.059,22.838-430.481,17.271a3542.062,3542.062,0,0,1-437.578-44.212,3656.621,3656.621,0,0,1-423.8-96.465c-136.764-39.621-271.664-85.3-407.948-126.491a3070,3070,0,0,0-420-100.065,2641.142,2641.142,0,0,0-430.912-29.909A3294.619,3294.619,0,0,0,408.711,558.955Q356.5,573.616,304.765,589.9c-17.574,5.51-10.071,33.241,7.634,27.69Z" transform="translate(1999.572 3337.601)" fill="#3f3d56"/>
      <path id="Path_853" data-name="Path 853" d="M312.713,366.6c69.477-30.779,149.065-25.412,221.169-7.565,77.746,19.243,150.958,52.709,227.492,75.848a787.5,787.5,0,0,0,420.952,7.985,775.93,775.93,0,0,0,220.459-94.493c15.608-9.811,1.213-34.668-14.494-24.8A760.849,760.849,0,0,1,983.213,439.066a743.233,743.233,0,0,1-212.051-31.223c-75.976-22.781-148.6-55.854-225.567-75.469-81.544-20.783-168.99-25.29-247.375,9.436-16.861,7.47-2.268,32.221,14.493,24.8Z" transform="translate(1965.045 2339.845)" fill="#3f3d56"/>
      <circle id="Ellipse_201" data-name="Ellipse 201" cx="440.307" cy="440.307" r="440.307" transform="translate(3971.062 6228.976)" fill="#3f3d56"/>
      <path id="Path_855" data-name="Path 855" d="M976.093,762.8,808.273,2306.736H1966.227l50.347-117.474,67.127,117.474H3174.528S3090.619,712.452,2939.581,662.105,976.093,762.8,976.093,762.8Z" transform="translate(6401.351 5216.549)" fill="#2f2e41"/>
      <circle id="Ellipse_208" data-name="Ellipse 208" cx="587.368" cy="587.368" r="587.368" transform="translate(7780.211 1414.658)" fill="#ffb8b8"/>
      <path id="Path_856" data-name="Path 856" d="M896.1,406.7s50.347,537.022,0,570.586,805.534,16.782,805.534,16.782-117.475-486.677,0-721.624Z" transform="translate(7135.843 1964.525)" fill="#ffb8b8"/>
      <path id="Path_857" data-name="Path 857" d="M1966.5,393.87s431.819,67.256,467.64-67.063l220.42,302.011,16.782,3020.75S875.678,3867.732,808.55,3515.311s688.06-3138.223,688.06-3138.223l190.119-12.307S1932.94,393.87,1966.5,393.87Z" transform="translate(6367.51 2430.472)" fill="#e8f1f5"/>
      <path id="Path_858" data-name="Path 858" d="M2280.244,316.375l-287.953,99.781L1169.976,617.54l33.563,2013.833S498.7,4645.206,817.555,4796.244s771.969-201.384,906.225-453.112,604.15-3742.374,604.15-3809.5S2280.244,316.375,2280.244,316.375Z" transform="translate(5771.137 2341.057)" fill="#004a7c"/>
      <path id="Path_859" data-name="Path 859" d="M1015.516,316.375l113.733,99.781,805.533,369.2L1532.017,2815.974s537.021,1846.014,335.638,1946.705-503.458,385.984-570.586,218.165S834.653,501.887,1015.516,316.375Z" transform="translate(7775.352 2341.057)" fill="#004a7c"/>
      <path id="Path_860" data-name="Path 860" d="M1713.7,733.107S958.517,414.25,941.735,699.543s855.879,486.677,855.879,402.767S1713.7,733.107,1713.7,733.107Z" transform="translate(7543.318 4608.526)" fill="#ffb8b8"/>
      <path id="Path_861" data-name="Path 861" d="M1039.714,584.527s872.661,654.5,537.021,822.315S804.767,819.474,804.767,819.474Z" transform="translate(6371.293 4639.632)" fill="#ffb8b8"/>
      <path id="Path_862" data-name="Path 862" d="M1808.013,177.989a32.4,32.4,0,0,1,31.174-18.5c-268.907-16.085-552.151,15.257-777.12,163.443-63,41.5-121.843,92.25-193.571,115.638l58.222,45.659-69.564,21.206L959.527,571.6a88.734,88.734,0,0,1-84.506,28.311c44.492,13,77.249,52.592,93.888,95.855s19.628,90.38,22.438,136.646c17.2-66.757,90.053-106.054,158.873-110.047s135.938,18.714,202.915,35.037a1122.509,1122.509,0,0,0,445.553,17.14c-50.314,100.972-7.872,221.409,34.837,325.826l85.279,208.488c47.345,4.762,80.81-42.322,116.479-73.816,32.51-28.706-96.92,223.756-76.881,214.506,26.034-12.017,300.762-315.334,313.627-340.959,58.7-116.912,93.912-247.316,88.615-378.028s-53.123-261.488-143.223-356.338c-61.168-64.392-145.793-75.669-208.15-129.186-24.543-21.063-24.633-37.519-58.361-49.8C1939.708,191.158,1809.865,173.877,1808.013,177.989Z" transform="translate(6820.333 963.636)" fill="#2f2e41"/>
      <path id="Path_863" data-name="Path 863" d="M1780.933,398.185l-117.473-50.346L723.671,1891.778s-167.82,402.766,134.255,587.368,1006.917,738.406,1006.917,738.406l402.766-620.932S1445.294,2210.635,1495.64,2059.6s318.856-553.8,318.856-553.8Z" transform="translate(5277.653 2610.759)" fill="#004a7c"/>
      <path id="Path_864" data-name="Path 864" d="M1377.348,361.865l218.164,33.564s906.225,1778.886,688.061,2114.525-1107.608,805.534-1107.608,805.534-16.782-553.8-167.82-755.187l520.24-201.383L1243.091,1251.308Z" transform="translate(8114.622 2730.988)" fill="#004a7c"/>
    </g>
  </g>
</svg>
