<!-- Generated by IcoMoon.io -->
<svg version="1.1" xmlns="http://www.w3.org/2000/svg" width="288" height="448" viewBox="0 0 288 448">
<title></title>
<g id="icomoon-ignore">
</g>
<path d="M288 176v32c0 74-56 135-128 143v33h64c8.75 0 16 7.25 16 16s-7.25 16-16 16h-160c-8.75 0-16-7.25-16-16s7.25-16 16-16h64v-33c-72-8-128-69-128-143v-32c0-8.75 7.25-16 16-16s16 7.25 16 16v32c0 61.75 50.25 112 112 112s112-50.25 112-112v-32c0-8.75 7.25-16 16-16s16 7.25 16 16zM224 80v128c0 44-36 80-80 80s-80-36-80-80v-128c0-44 36-80 80-80s80 36 80 80z"></path>
</svg>
