<svg width="287" height="287" viewBox="0 0 287 287" fill="none" xmlns="http://www.w3.org/2000/svg">
<rect width="287" height="287" rx="10" fill="#EFF8FC"/>
<circle cx="78.5" cy="121.5" r="22.5" fill="#E8F1F5"/>
<circle cx="78.5" cy="121.5" r="22.5" fill="#E8F1F5"/>
<circle cx="78.5" cy="121.5" r="22.5" fill="#E8F1F5"/>
<circle cx="78.5" cy="121.5" r="22.5" fill="#E8F1F5"/>
<circle cx="143" cy="99" r="35" fill="#E8F1F5"/>
<circle cx="143" cy="99" r="35" fill="#E8F1F5"/>
<circle cx="143" cy="99" r="35" fill="#E8F1F5"/>
<circle cx="143" cy="99" r="35" fill="#E8F1F5"/>
<circle cx="81.5" cy="187.5" r="43.5" fill="#E8F1F5"/>
<circle cx="81.5" cy="187.5" r="43.5" fill="#E8F1F5"/>
<circle cx="81.5" cy="187.5" r="43.5" fill="#E8F1F5"/>
<circle cx="81.5" cy="187.5" r="43.5" fill="#E8F1F5"/>
<circle cx="178" cy="144" r="39" fill="#E8F1F5"/>
<circle cx="178" cy="144" r="39" fill="#E8F1F5"/>
<circle cx="178" cy="144" r="39" fill="#E8F1F5"/>
<circle cx="178" cy="144" r="39" fill="#E8F1F5"/>
<circle cx="178.5" cy="209.5" r="16.5" fill="#E8F1F5"/>
<circle cx="178.5" cy="209.5" r="16.5" fill="#E8F1F5"/>
<circle cx="178.5" cy="209.5" r="16.5" fill="#E8F1F5"/>
<circle cx="178.5" cy="209.5" r="16.5" fill="#45B3FF"/>
</svg>
