<svg xmlns="http://www.w3.org/2000/svg" xmlns:xlink="http://www.w3.org/1999/xlink" viewBox="0 0 1956.442 1359.519">
  <defs>
    <linearGradient id="linear-gradient" x1="0.5" x2="0.5" y2="1" gradientUnits="objectBoundingBox">
      <stop offset="0" stop-color="#2ca4f7"/>
      <stop offset="1" stop-color="#fff"/>
    </linearGradient>
  </defs>
  <g id="Group_5" data-name="Group 5" transform="translate(-181.768 -4649)">
    <path id="Path_75" data-name="Path 75" d="M1944.4,852.885H391.768a85.066,85.066,0,0,1-84.97-84.97V270.97A85.066,85.066,0,0,1,391.768,186H1944.4a85.066,85.066,0,0,1,84.97,84.97V767.915a85.066,85.066,0,0,1-84.97,84.97Z" transform="translate(-125.03 4463)" fill="url(#linear-gradient)"/>
    <path id="Path_76" data-name="Path 76" d="M372.3,199a51.556,51.556,0,0,0-51.5,51.5V747.442a51.556,51.556,0,0,0,51.5,51.5H1924.928a51.556,51.556,0,0,0,51.5-51.5V250.5a51.556,51.556,0,0,0-51.5-51.5Z" transform="translate(-102.982 4483.473)" fill="#fff"/>
    <path id="Path_77" data-name="Path 77" d="M450.941,348.738a56.406,56.406,0,1,1,56.406-56.406h0a56.469,56.469,0,0,1-56.406,56.406Zm0-105.292a48.886,48.886,0,1,0,48.885,48.886h0a48.941,48.941,0,0,0-48.885-48.886Z" transform="translate(13.142 4541.625)" fill="#ccc"/>
    <path id="Path_78" data-name="Path 78" d="M420.208,255.5h-.1l-5.953,3.213-.894-3.529,7.479-4h3.951v34.24h-4.478Z" transform="translate(42.626 4565.654)" fill="#ccc"/>
    <path id="Path_79" data-name="Path 79" d="M390.444,323.2a6.621,6.621,0,1,0-6.388-6.388A6.621,6.621,0,0,0,390.444,323.2Z" transform="translate(-3.366 4658.224)" fill="#e6e6e6"/>
    <path id="Path_80" data-name="Path 80" d="M390.444,339.267a6.621,6.621,0,1,0-6.388-6.388,6.621,6.621,0,0,0,6.388,6.388Z" transform="translate(-3.366 4683.523)" fill="#e6e6e6"/>
    <path id="Path_81" data-name="Path 81" d="M390.444,355.331a6.621,6.621,0,1,0-6.388-6.388A6.621,6.621,0,0,0,390.444,355.331Z" transform="translate(-3.366 4708.823)" fill="#e6e6e6"/>
    <path id="Path_82" data-name="Path 82" d="M523.267,318.6H402.934a3.76,3.76,0,0,1,0-7.521H523.267a3.76,3.76,0,1,1,0,7.521Z" transform="translate(20.446 4659.973)" fill="#e6e6e6"/>
    <path id="Path_83" data-name="Path 83" d="M523.27,334.66H402.936a3.76,3.76,0,1,1-.008-7.521H523.27a3.76,3.76,0,1,1,.008,7.521Z" transform="translate(20.444 4685.273)" fill="#e6e6e6"/>
    <path id="Path_84" data-name="Path 84" d="M523.267,350.725H402.934a3.76,3.76,0,0,1,0-7.521H523.267a3.76,3.76,0,1,1,.008,7.521Z" transform="translate(20.446 4710.573)" fill="#e6e6e6"/>
    <path id="Path_85" data-name="Path 85" d="M586.633,345.738a56.406,56.406,0,1,1,56.407-56.406A56.406,56.406,0,0,1,586.633,345.738Zm0-105.292a48.886,48.886,0,1,0,48.886,48.886h0a48.942,48.942,0,0,0-48.885-48.886Z" transform="translate(226.835 4536.9)" fill="#ccc"/>
    <path id="Path_86" data-name="Path 86" d="M548.258,282.914v-2.846l3.632-3.529c8.748-8.321,12.7-12.75,12.75-17.91a6.106,6.106,0,0,0-6.794-6.687,11.668,11.668,0,0,0-7.271,2.894l-1.476-3.265a15.036,15.036,0,0,1,9.695-3.478,9.635,9.635,0,0,1,10.481,9.956c0,6.32-4.583,11.432-11.8,18.383l-2.74,2.53v.1h15.383v3.849Z" transform="translate(255.232 4560.729)" fill="#ccc"/>
    <path id="Path_87" data-name="Path 87" d="M806.989,530.977H508.307A23.2,23.2,0,0,1,485.133,507.8V330.139a23.2,23.2,0,0,1,23.174-23.174H806.989a23.2,23.2,0,0,1,23.174,23.174V507.8a23.2,23.2,0,0,1-23.173,23.174Z" transform="translate(155.82 4653.501)" fill="#fff"/>
    <path id="Path_88" data-name="Path 88" d="M718.067,330.238H515a3.76,3.76,0,0,1-.008-7.521H718.067a3.76,3.76,0,0,1,.008,7.521Z" transform="translate(196.933 4678.308)" fill="#e6e6e6"/>
    <path id="Path_89" data-name="Path 89" d="M718.067,343.382H515a3.76,3.76,0,0,1-.008-7.521H718.067a3.76,3.76,0,0,1,0,7.521Z" transform="translate(196.933 4699.008)" fill="#e6e6e6"/>
    <path id="Path_90" data-name="Path 90" d="M718.067,356.526H515A3.76,3.76,0,0,1,515,349H718.067a3.76,3.76,0,0,1,.008,7.521Z" transform="translate(196.933 4719.708)" fill="#e6e6e6"/>
    <path id="Path_91" data-name="Path 91" d="M718.067,369.67H515a3.76,3.76,0,0,1-.008-7.521H718.067a3.76,3.76,0,0,1,0,7.521Z" transform="translate(196.933 4740.407)" fill="#e6e6e6"/>
    <path id="Path_92" data-name="Path 92" d="M718.064,382.814H515a3.76,3.76,0,0,1,0-7.521H718.064a3.76,3.76,0,0,1,.008,7.521Z" transform="translate(196.935 4761.107)" fill="#e6e6e6"/>
    <path id="Path_93" data-name="Path 93" d="M806.989,530.977H508.307A23.2,23.2,0,0,1,485.133,507.8V330.139a23.2,23.2,0,0,1,23.174-23.174H806.989a23.2,23.2,0,0,1,23.174,23.174V507.8a23.2,23.2,0,0,1-23.173,23.174ZM508.307,312.115a18.044,18.044,0,0,0-18.024,18.024V507.8a18.044,18.044,0,0,0,18.024,18.024H806.989A18.044,18.044,0,0,0,825.013,507.8V330.139a18.044,18.044,0,0,0-18.024-18.024Z" transform="translate(155.82 4653.501)" fill="#e6e6e6"/>
    <path id="Path_94" data-name="Path 94" d="M733.4,345.738a56.406,56.406,0,1,1,56.407-56.406A56.406,56.406,0,0,1,733.4,345.738Zm0-105.292a48.886,48.886,0,1,0,48.886,48.886h0A48.942,48.942,0,0,0,733.4,240.446Z" transform="translate(457.978 4536.9)" fill="#ccc"/>
    <path id="Path_95" data-name="Path 95" d="M696.015,277.457a15.524,15.524,0,0,0,7.583,2.159c5.956,0,7.8-3.793,7.745-6.636-.052-4.8-4.374-6.849-8.846-6.849h-2.585v-3.478H702.5c3.371,0,7.638-1.737,7.638-5.795,0-2.74-1.741-5.163-6.008-5.163a12.526,12.526,0,0,0-6.845,2.269l-1.212-3.371a16.251,16.251,0,0,1,8.953-2.637c6.742,0,9.8,4,9.8,8.167a8.5,8.5,0,0,1-6.324,8.057v.107a8.916,8.916,0,0,1,7.638,8.8c0,5.479-4.267,10.275-12.482,10.275a17.372,17.372,0,0,1-8.9-2.321Z" transform="translate(485.938 4560.574)" fill="#ccc"/>
    <path id="Path_96" data-name="Path 96" d="M670.444,382.789a6.621,6.621,0,1,0-6.388-6.388A6.621,6.621,0,0,0,670.444,382.789Z" transform="translate(437.591 4752.065)" fill="#e6e6e6"/>
    <path id="Path_97" data-name="Path 97" d="M803.267,378.183H682.934a3.76,3.76,0,0,1,0-7.521H803.267a3.76,3.76,0,0,1,.008,7.521Z" transform="translate(461.403 4753.814)" fill="#e6e6e6"/>
    <path id="Path_98" data-name="Path 98" d="M880.066,427.983H668.929A18.044,18.044,0,0,1,650.9,409.959v-84.97a18.044,18.044,0,0,1,18.024-18.024H880.066a18.044,18.044,0,0,1,18.024,18.024v84.97a18.044,18.044,0,0,1-18.024,18.024ZM668.929,312.115a12.889,12.889,0,0,0-12.874,12.874v84.97a12.889,12.889,0,0,0,12.874,12.874H880.066a12.889,12.889,0,0,0,12.874-12.874v-84.97a12.889,12.889,0,0,0-12.874-12.874Z" transform="translate(416.885 4653.501)" fill="#e6e6e6"/>
    <rect id="Rectangle_3" data-name="Rectangle 3" width="256.858" height="5.149" transform="translate(1073.397 5071.592) rotate(-24.262)" fill="#e6e6e6"/>
    <rect id="Rectangle_4" data-name="Rectangle 4" width="5.149" height="256.22" transform="translate(1074.354 4969.424) rotate(-65.351)" fill="#e6e6e6"/>
    <path id="Path_99" data-name="Path 99" d="M875.938,350.243a3.625,3.625,0,0,0-.549-.826h0l-28.2-28.2a3.76,3.76,0,1,0-5.318,5.317l21.784,21.784H767.439a3.76,3.76,0,1,0,0,7.521h96.214l-19.9,19.9a3.76,3.76,0,0,0,5.318,5.318l26.32-26.32,0,0A3.709,3.709,0,0,0,875.938,350.243Z" transform="translate(594.487 4674.207)" fill="#ccc"/>
    <path id="Path_100" data-name="Path 100" d="M998.361,349.728H996.6V301.45a27.942,27.942,0,0,0-27.942-27.942H866.373a27.942,27.942,0,0,0-27.942,27.942V566.306a27.942,27.942,0,0,0,27.942,27.942H968.657A27.942,27.942,0,0,0,996.6,566.306V384.093h1.762Z" transform="translate(712.211 4600.811)" fill="#3f3d56"/>
    <path id="Path_101" data-name="Path 101" d="M985.935,297.2V561.665a20.868,20.868,0,0,1-20.867,20.868H862.294a20.868,20.868,0,0,1-20.868-20.867V297.2a20.868,20.868,0,0,1,20.867-20.868h12.468a9.919,9.919,0,0,0,9.18,13.658h58.6a9.919,9.919,0,0,0,9.18-13.658h13.349A20.868,20.868,0,0,1,985.935,297.2Z" transform="translate(716.927 4605.257)" fill="#fff"/>
    <path id="Path_102" data-name="Path 102" d="M375.895,493.639a11.306,11.306,0,0,1-2.113-9.7,267.788,267.788,0,0,0,0-124.38,11.308,11.308,0,0,1,2.114-9.7,11.117,11.117,0,0,1,8.781-4.255H489.027a11.259,11.259,0,0,1,11.089,9.437,438.338,438.338,0,0,1,0,133.41,11.259,11.259,0,0,1-11.089,9.437H384.676A11.117,11.117,0,0,1,375.895,493.639Z" transform="translate(-20.051 4714.361)" fill="#2ca4f7"/>
    <path id="Path_103" data-name="Path 103" d="M448.868,378.887H393.9a7.733,7.733,0,0,1-7.724-7.724v-3.28a7.733,7.733,0,0,1,7.725-7.725h54.971a7.733,7.733,0,0,1,7.725,7.725v3.28a7.733,7.733,0,0,1-7.725,7.725Z" transform="translate(-0.029 4737.271)" fill="#fff"/>
    <path id="Path_104" data-name="Path 104" d="M448.868,391.434H393.9a7.733,7.733,0,0,1-7.724-7.724v-3.28a7.733,7.733,0,0,1,7.725-7.725h54.971a7.733,7.733,0,0,1,7.725,7.725v3.28a7.733,7.733,0,0,1-7.725,7.725Z" transform="translate(-0.029 4757.032)" fill="#fff"/>
    <path id="Path_105" data-name="Path 105" d="M752.3,525.988a431.256,431.256,0,0,1,0-131.254,11.076,11.076,0,0,1,10.909-9.284H865.878a10.934,10.934,0,0,1,8.639,4.187,11.12,11.12,0,0,1,2.079,9.539,263.48,263.48,0,0,0,0,122.37,11.117,11.117,0,0,1-2.078,9.539,10.934,10.934,0,0,1-8.639,4.187H763.212A11.076,11.076,0,0,1,752.3,525.988Z" transform="translate(568.662 4777.103)" fill="#2ca4f7"/>
    <path id="Path_106" data-name="Path 106" d="M819.475,422.657H765.6a7.733,7.733,0,0,1-7.725-7.725v-3.019a7.733,7.733,0,0,1,7.725-7.724h53.875a7.733,7.733,0,0,1,7.724,7.724v3.019A7.733,7.733,0,0,1,819.475,422.657Z" transform="translate(585.347 4806.614)" fill="#fff"/>
    <path id="Path_110" data-name="Path 110" d="M1021.3,649.988a431.263,431.263,0,0,1,0-131.254,11.076,11.076,0,0,1,10.909-9.284h102.666a10.934,10.934,0,0,1,8.639,4.187,11.12,11.12,0,0,1,2.079,9.539,263.475,263.475,0,0,0,0,122.37,11.119,11.119,0,0,1-2.078,9.539,10.935,10.935,0,0,1-8.64,4.187H1032.212a11.075,11.075,0,0,1-10.909-9.284Z" transform="translate(992.296 4972.384)" fill="#ccc"/>
    <path id="Path_111" data-name="Path 111" d="M1088.475,546.657H1034.6a7.733,7.733,0,0,1-7.725-7.725v-3.019a7.733,7.733,0,0,1,7.725-7.725h53.875a7.733,7.733,0,0,1,7.725,7.725v3.018a7.733,7.733,0,0,1-7.725,7.725Z" transform="translate(1008.98 5001.895)" fill="#fff"/>
    <path id="Path_112" data-name="Path 112" d="M1062.8,597.485a27.493,27.493,0,0,0-10.518-35.769,24.127,24.127,0,0,0-3.742-1.676l-2.113-93.492-37.345,27.5,7.732,84.566a27.287,27.287,0,0,0,12.573,29.912,23.913,23.913,0,0,0,33.413-11.04Z" transform="translate(980.956 4904.819)" fill="#a0616a"/>
    <path id="Path_113" data-name="Path 113" d="M1084.114,698.851l-26.767,1.615a11.371,11.371,0,0,1-11.592-10.166l-22.227-167.228L987.608,421.066a35.349,35.349,0,0,1,.93-26.1,31.7,31.7,0,0,1,18.17-17.365c16.358-5.945,34.268,3.468,39.923,20.982L1083.16,515.54l11.265,170.8a12.144,12.144,0,0,1-2.7,8.567,10.859,10.859,0,0,1-4.669,3.344A10.415,10.415,0,0,1,1084.114,698.851Z" transform="translate(943.905 4761.94)" fill="#3f3d56"/>
    <path id="Path_114" data-name="Path 114" d="M858.341,589.373l-31.568,0L811.757,467.611l46.589,0Z" transform="translate(1013.621 5385.416)" fill="#a0616a"/>
    <path id="Path_115" data-name="Path 115" d="M1028.6,737.8l-101.785,0v-1.287A39.617,39.617,0,0,1,966.437,696.9h0l62.167,0Z" transform="translate(851.408 5267.583)" fill="#2f2e41"/>
    <path id="Path_116" data-name="Path 116" d="M894.341,589.373l-31.568,0L847.757,467.611l46.589,0Z" transform="translate(1070.316 5385.416)" fill="#a0616a"/>
    <path id="Path_117" data-name="Path 117" d="M1064.6,737.8l-101.785,0v-1.287a39.617,39.617,0,0,1,39.618-39.617h0l62.167,0Z" transform="translate(908.102 5267.583)" fill="#2f2e41"/>
    <path id="Path_118" data-name="Path 118" d="M1123.99,536.564,1116.452,983.8a10.3,10.3,0,0,1-11.23,10.084l-36.939-3.358a10.3,10.3,0,0,1-9.336-9.461L1037.32,702.092a2.575,2.575,0,0,0-5.14.1l-10.809,285.359a10.3,10.3,0,0,1-10.292,9.909H971.463a10.3,10.3,0,0,1-10.28-9.671l-27.732-453.8,164.79-41.2Z" transform="translate(861.852 4946.15)" fill="#2f2e41"/>
    <circle id="Ellipse_4" data-name="Ellipse 4" cx="63.241" cy="63.241" r="63.241" transform="translate(1803.073 4936.285)" fill="#a0616a"/>
    <path id="Path_119" data-name="Path 119" d="M936.024,767.96a11.507,11.507,0,0,1-3.513-8.149L928.244,454.84a73.387,73.387,0,0,1,49.648-70.657c5.925-26.88,37.458-30.247,55.841-29.845a28.542,28.542,0,0,1,23.116,12.675l13.178,19.767,29.045,17.026a73.455,73.455,0,0,1,34.684,79.348l-4.471,20.34a467.439,467.439,0,0,0,4.371,217.987l9,34.308a11.586,11.586,0,0,1-12.1,14.491l-10.45-.8a11.571,11.571,0,0,1-10.641-10.4l-1.729-17.295a1.288,1.288,0,0,0-2.562,0l-1.674,16.744a11.585,11.585,0,0,1-11.351,10.433l-147.876,2.276-.184,0A11.513,11.513,0,0,1,936.024,767.96Z" transform="translate(853.636 4728.059)" fill="#3f3d56"/>
    <path id="Path_120" data-name="Path 120" d="M1019.868,402.344c.259,8.94,6.466,14.112,14.086,18.794s16.527,6.713,25.254,8.672a7.721,7.721,0,0,0,11.343-6.758l8-30.443a192.71,192.71,0,0,0,6.162-29.706c1.927-19.335-2.655-40.134-16.15-54.114s-36.9-18.946-53.072-8.174C996.3,276.1,908.578,330.259,930.218,347.3c3.85,3.032,9.735-.8,14.621-1.177s10.363.488,13.466,4.28c4.055,4.955,2.289,12.335,3.96,18.515a17.288,17.288,0,0,0,21.844,11.2,59.443,59.443,0,0,0,11.329-7.283c3.748-2.5,8.484-4.341,12.7-2.767,5.562,2.076,7.537,8.884,8.04,14.8a137.127,137.127,0,0,0,3.687,17.476Z" transform="translate(851.392 4633.634)" fill="#2f2e41"/>
    <path id="Path_121" data-name="Path 121" d="M863.211,216.118l-10.3,126.168L798.84,473.6,878.66,344.86Z" transform="translate(993.279 4989.353)" opacity="0.2"/>
    <path id="Path_122" data-name="Path 122" d="M953.275,597.572a25.892,25.892,0,0,0,.818-39.694l34.448-85.32-46.868,9.464-25.527,79.571a26.033,26.033,0,0,0,37.129,35.979Z" transform="translate(826.201 4914.285)" fill="#a0616a"/>
    <path id="Path_123" data-name="Path 123" d="M947.818,726.39l-26.53-9.562a11.648,11.648,0,0,1-7.249-13.955L957.8,542.668l6.673-144.79a33,33,0,1,1,65.889,3.995l-11.921,158.542L962.68,719.329a11.557,11.557,0,0,1-14.862,7.06Z" transform="translate(830.652 4747.839)" fill="#3f3d56"/>
    <path id="Path_136" data-name="Path 136" d="M1311.589,717.15H873.865a2.575,2.575,0,1,1,0-5.15h437.724a2.575,2.575,0,0,1,0,5.15Z" transform="translate(763.958 5291.369)" fill="#ccc"/>
  </g>
</svg>
