<svg xmlns="http://www.w3.org/2000/svg" width="11618.965" height="8631.156" viewBox="0 0 11618.965 8631.156">
  <g id="Group_44" data-name="Group 44" transform="translate(-11302 -15615)">
    <rect id="Rectangle_108" data-name="Rectangle 108" width="10043.722" height="6426.078" transform="translate(12167.735 16221.907)" fill="#3f3d56"/>
    <rect id="Rectangle_109" data-name="Rectangle 109" width="4522.055" height="5259.864" transform="translate(17403.799 17382.172)" fill="#f2f2f2"/>
    <path id="Path_891" data-name="Path 891" d="M253.038,1152.014c137.446,254.9,429.155,364.323,429.155,364.323s68.866-303.851-68.58-558.75S184.457,593.264,184.457,593.264,115.592,897.114,253.038,1152.014Z" transform="translate(11509.393 21136.373)" fill="#3f3d56"/>
    <path id="Path_892" data-name="Path 892" d="M692.277,727.266c248.146,149.293,343.716,445.83,343.716,445.83s-306.756,54.485-554.9-94.808S137.375,632.458,137.375,632.458,444.131,577.973,692.277,727.266Z" transform="translate(11164.625 21477.262)" fill="#004a7c"/>
    <rect id="Rectangle_110" data-name="Rectangle 110" width="2742.63" height="110.59" transform="translate(18933.313 17871.59)" fill="#fff"/>
    <rect id="Rectangle_111" data-name="Rectangle 111" width="2742.63" height="110.59" transform="translate(18933.313 18114.887)" fill="#fff"/>
    <rect id="Rectangle_112" data-name="Rectangle 112" width="928.955" height="110.59" transform="translate(18933.313 18358.186)" fill="#fff"/>
    <rect id="Rectangle_113" data-name="Rectangle 113" width="2742.63" height="110.59" transform="translate(13301.4 21191.729)" fill="#fff"/>
    <rect id="Rectangle_114" data-name="Rectangle 114" width="2742.63" height="110.59" transform="translate(13301.4 21435.027)" fill="#fff"/>
    <rect id="Rectangle_115" data-name="Rectangle 115" width="928.955" height="110.59" transform="translate(13301.4 21678.324)" fill="#fff"/>
    <rect id="Rectangle_116" data-name="Rectangle 116" width="2742.63" height="110.59" transform="translate(18290.703 19228.205)" fill="#fff"/>
    <rect id="Rectangle_117" data-name="Rectangle 117" width="2742.63" height="110.59" transform="translate(18290.703 19471.504)" fill="#fff"/>
    <rect id="Rectangle_118" data-name="Rectangle 118" width="2742.63" height="110.59" transform="translate(18290.703 19709.506)" fill="#fff"/>
    <rect id="Rectangle_119" data-name="Rectangle 119" width="2742.63" height="110.59" transform="translate(18290.703 19947.508)" fill="#fff"/>
    <rect id="Rectangle_120" data-name="Rectangle 120" width="2742.63" height="110.59" transform="translate(18290.703 20185.512)" fill="#fff"/>
    <rect id="Rectangle_121" data-name="Rectangle 121" width="2742.63" height="110.59" transform="translate(18290.703 20423.516)" fill="#fff"/>
    <rect id="Rectangle_122" data-name="Rectangle 122" width="2742.63" height="110.59" transform="translate(18290.703 20661.518)" fill="#fff"/>
    <rect id="Rectangle_123" data-name="Rectangle 123" width="2742.63" height="110.59" transform="translate(18290.703 20899.521)" fill="#fff"/>
    <rect id="Rectangle_124" data-name="Rectangle 124" width="2742.63" height="110.59" transform="translate(18290.703 21137.523)" fill="#fff"/>
    <rect id="Rectangle_125" data-name="Rectangle 125" width="2742.63" height="110.59" transform="translate(18290.703 21375.527)" fill="#fff"/>
    <rect id="Rectangle_126" data-name="Rectangle 126" width="2742.63" height="110.59" transform="translate(18290.703 21613.529)" fill="#fff"/>
    <path id="Path_893" data-name="Path 893" d="M2324.8,1330.157a996.9,996.9,0,0,1-370.928,776.96A985.307,985.307,0,0,1,1817.14,2200.3a965.966,965.966,0,0,1-89.49,44.864,989.556,989.556,0,0,1-319.995,81.039q-40.7,3.393-82.23,3.332a987.554,987.554,0,0,1-163.508-13.448c-19.041-2.974-37.843-6.664-56.407-10.947a961.634,961.634,0,0,1-96.034-26.656,997.064,997.064,0,0,1-350.7-203.969,909.577,909.577,0,0,1-74.376-74.018C285.178,1669.66,241.467,1180.568,477.286,801.918S1171.33,246.775,1600.223,369.4s724.564,514.674,724.576,960.753Z" transform="translate(13347.29 18103.123)" fill="#e8f1f5"/>
    <path id="Path_896" data-name="Path 896" d="M5069.029,378.785c-920.115,0-1666.016,745.9-1666.017,1666.018v0c0,269.463-218.443,487.905-487.906,487.905H2105.893c-801.816,0-1451.817,650-1451.817,1451.817v0H5069.03V378.785Z" transform="translate(17136.477 18657.508)" fill="#3f3d56"/>
    <rect id="Rectangle_127" data-name="Rectangle 127" width="214.203" height="6426.078" transform="translate(17076.545 16221.907)" fill="#2f2e41"/>
    <path id="Path_897" data-name="Path 897" d="M1678.016,618.045v-166.6c0-190.6-154.508-345.1-345.1-345.1s-345.1,154.508-345.1,345.1v166.6H333.3v368.9H2332.524v-368.9Zm-345.1-416.505c111.729,0,202.3,90.574,202.3,202.3s-90.574,202.3-202.3,202.3-202.3-90.574-202.3-202.3,90.574-202.3,202.3-202.3Z" transform="translate(13429.055 15508.661)" fill="#004a7c"/>
    <path id="Path_898" data-name="Path 898" d="M940.691,422.951s-99.4,282.911-38.231,326.437-206.449,398.979-206.449,398.979l-321.144-87.05L550.732,763.9s22.939-297.42,22.939-340.945S940.691,422.951,940.691,422.951Z" transform="translate(13909.48 18944.385)" fill="#a0616a"/>
    <path id="Path_899" data-name="Path 899" d="M696.011,1148.366l-321.144-87.05Z" transform="translate(13909.48 18944.385)" opacity="0.1"/>
    <circle id="Ellipse_237" data-name="Ellipse 237" cx="261.149" cy="261.149" r="261.149" transform="translate(14385.906 19055.406)" fill="#a0616a"/>
    <path id="Path_900" data-name="Path 900" d="M476.669,1045.521a961.482,961.482,0,0,1-96.034-26.657l49.981-342.723,15.47-105.674,79.255,29.751c10.711,3.927,22.849,8.568,36.772,13.684a83.594,83.594,0,0,0,66.4-2.379C705.151,576.418,750.729,439.8,750.729,439.8s3.094,38.318,7.141,103.173c7.259,113.885,17.732,309.761,20.943,523.606q-40.7,3.392-82.229,3.332a987.582,987.582,0,0,1-163.507-13.447C514.034,1053.494,495.232,1049.8,476.669,1045.521Z" transform="translate(13976.134 19362.738)" fill="#005691"/>
    <path id="Path_901" data-name="Path 901" d="M914.72,563.285,892.467,767.135l-10.829,98.652L843.8,1212.438a961.449,961.449,0,0,1-96.034-26.657,997.084,997.084,0,0,1-350.7-203.968L348.87,809.855a203.332,203.332,0,0,1,3.094-30.583.441.441,0,0,1,.119-.358,216.261,216.261,0,0,1,5.95-26.656.925.925,0,0,0,.119-.357,197.563,197.563,0,0,1,48.79-87.109C465.016,606.721,849.39,425.362,849.39,425.362l7.258,15.233Z" transform="translate(13609.006 19195.82)" fill="#005691"/>
    <path id="Path_902" data-name="Path 902" d="M679.348,372.525c57.893-2.069,119.849-3.094,168.661,28.1A246.915,246.915,0,0,1,906.3,457.69c47.541,60.1,88.618,135.718,70.959,210.285l-20.51-8A134.3,134.3,0,0,0,969.7,717.517c-2.886-8.4-12.558,5.181-9.969,13.676l22.594,74.122a69.784,69.784,0,0,0-89,53.1c-2.583-86.093-11.514-184.814-81.352-235.226-35.22-25.422-79.793-33.182-122.679-40.074-39.563-6.357-81.038-12.421-118.933.6S500.2,635.5,508.79,674.642a40.5,40.5,0,0,0-45.65,22.5,118.167,118.167,0,0,0-9.348,54.093c-18.626,13.163-39.822-12.976-47.413-34.483-17.818-50.483-33.654-104.222-24.056-156.89s52.516-103,106.051-103.18a37.176,37.176,0,0,1-9.667-26.17l44.125-3.728a48.774,48.774,0,0,1-29.141-15.365C511.407,430.911,650.7,373.55,679.348,372.525Z" transform="translate(13962.145 18574.953)" fill="#2f2e41"/>
    <path id="Path_903" data-name="Path 903" d="M1132.724,765.214c-6.783,54.384-45.578,208.015-84.729,355.7a965.93,965.93,0,0,1-89.49,44.864,989.57,989.57,0,0,1-320,81.039q-40.7,3.392-82.229,3.332A987.562,987.562,0,0,1,392.774,1236.7c20.23-78.064,47.481-206.7,72.947-332.727,7.735-38.08,15.351-76.042,22.491-112.218,27.965-142.564,49.624-258.71,49.624-258.71s86.871-85.2,138.4-104.959a44.663,44.663,0,0,1,22.253-3.688c42.484,7.02,100.556,108.647,100.556,108.647s260.613,86.872,321.541,185.524a72.182,72.182,0,0,1,12.139,46.649Z" transform="translate(14116.436 19182.51)" fill="#005691"/>
    <path id="Path_904" data-name="Path 904" d="M561.583,451.365,546.35,776.953a989.2,989.2,0,0,1-125.19-95.677,909.724,909.724,0,0,1-74.376-74.018c12.5-54.86,22.967-101.032,29.274-128.521a.441.441,0,0,1,.12-.357c3.331-15.233,5.473-24.633,5.95-26.657a.922.922,0,0,0,.119-.357Z" transform="translate(13584.909 19496.357)" fill="#005691"/>
    <path id="Path_905" data-name="Path 905" d="M690.661,794.056a985.3,985.3,0,0,1-136.732,93.178,966,966,0,0,1-89.49,44.864L435.522,763.591l29.036-319.162,161.961,40.461,12.138,3.094Z" transform="translate(14610.502 19416.186)" fill="#005691"/>
    <path id="Path_906" data-name="Path 906" d="M1033.572,539.955s-113.019,552.537,75.346,502.306S1221.937,514.84,1221.937,514.84Z" transform="translate(21133.934 20229.977)" fill="#a0616a"/>
    <path id="Path_907" data-name="Path 907" d="M1589.658,334.84H1464.082S1325.948,435.3,1338.506,548.32s-226.038,1092.516-226.038,1218.092-50.231,163.249-50.231,238.6,25.115,125.576,0,163.25-75.346,263.71-62.788,351.614a708.15,708.15,0,0,1,0,175.807H1313.39s226.038-766.016,276.268-803.689S1665,1791.527,1665,1753.854s-25.115-37.673,37.674-87.9,25.115-276.268,25.115-276.268l87.9-226.038Z" transform="translate(21105.27 18149.602)" fill="#d0cde1"/>
    <path id="Path_908" data-name="Path 908" d="M1589.658,334.84H1464.082S1325.948,435.3,1338.506,548.32s-226.038,1092.516-226.038,1218.092-50.231,163.249-50.231,238.6,25.115,125.576,0,163.25-75.346,263.71-62.788,351.614a708.15,708.15,0,0,1,0,175.807H1313.39s226.038-766.016,276.268-803.689S1665,1791.527,1665,1753.854s-25.115-37.673,37.674-87.9,25.115-276.268,25.115-276.268l87.9-226.038Z" transform="translate(21105.27 18149.602)" opacity="0.1"/>
    <path id="Path_909" data-name="Path 909" d="M935.572,515.455s-113.018,552.536,75.346,502.305S1123.938,490.34,1123.938,490.34Z" transform="translate(20001.285 19946.814)" fill="#ffb8b8"/>
    <path id="Path_910" data-name="Path 910" d="M839.6,591,764.25,904.942l276.268,175.808,75.345-376.73Z" transform="translate(20134.934 22445.582)" fill="#ffb8b8"/>
    <path id="Path_911" data-name="Path 911" d="M1001.385,622,863.25,810.365,1026.5,998.731h226.038V622Z" transform="translate(21279.141 22803.869)" fill="#ffb8b8"/>
    <path id="Path_912" data-name="Path 912" d="M1580.608,845.025h-75.345a283.511,283.511,0,0,0-113.018,0c-75.347,12.557-177.587-108.311-177.587-108.311l-98.682,83.195s-200.922,50.231-100.461,288.826l226.038,138.134s113.018,238.6,339.056,200.922,62.789-288.825,62.789-288.825Z" transform="translate(20988.742 22794.33)" fill="#2f2e41"/>
    <path id="Path_913" data-name="Path 913" d="M1404.6,819.906l-19.1-83.655-169.262,45.982S864.625,556.2,864.625,857.579s276.268,401.845,276.268,401.845,100.461-12.558,100.461,75.345,263.711,226.038,364.171,175.808,100.461-175.808,100.461-175.808l-25.115-351.614-113.018,25.115s-213.481-12.558-175.808-62.788S1404.6,819.906,1404.6,819.906Z" transform="translate(19569.926 22379.932)" fill="#2f2e41"/>
    <path id="Path_914" data-name="Path 914" d="M1318.453,480.34S1167.76,681.262,1167.76,794.281s-50.23,1117.631-50.23,1117.631S841.262,3192.792,916.607,3268.138s301.384,188.365,339.057,150.691,301.384-1406.457,301.384-1406.457l313.941-841.362,288.826,1205.535s-12.558,1042.285,37.673,1054.842,75.346,25.115,50.23,75.346-62.788,150.691-62.788,150.691,313.941,75.346,376.729,25.115,75.346-1268.322,0-1695.283S2574.217,580.8,2574.217,580.8Z" transform="translate(20020.25 19831.238)" fill="#2f2e41"/>
    <circle id="Ellipse_238" data-name="Ellipse 238" cx="376.729" cy="376.729" r="376.729" transform="translate(21420.326 17128.215)" fill="#ffb8b8"/>
    <path id="Path_915" data-name="Path 915" d="M966.41,396.232s50.231,263.711,0,339.056S1644.524,760.4,1644.524,760.4s-351.615-401.845-313.941-477.191S966.41,396.232,966.41,396.232Z" transform="translate(20717.625 17347.307)" fill="#ffb8b8"/>
    <path id="Path_916" data-name="Path 916" d="M1077.64,560.432s251.153-326.5,565.094-263.711c84.757,16.952,162.191,33.9,230.08,49.619,239.212,55.376,438.128,225.856,519.847,457.4,21.191,60.041,31.786,117.728,22.368,164.819C2377.356,1156.92,2396.193,2645,2396.193,2645s-100.461,37.673-87.9,87.9,100.461,113.019,12.558,113.019-1419.015-50.231-1393.9-87.9S1077.64,560.432,1077.64,560.432Z" transform="translate(20286.176 17616.346)" fill="#d0cde1"/>
    <path id="Path_917" data-name="Path 917" d="M1493.658,310.34H1368.082S1229.948,410.8,1242.505,523.82s-226.037,1092.515-226.037,1218.092-50.231,163.249-50.231,238.6,25.115,125.577,0,163.25-75.345,263.711-62.788,351.614a708.153,708.153,0,0,1,0,175.807H1217.39s226.038-766.017,276.268-803.689S1569,1767.027,1569,1729.354s-25.115-37.673,37.673-87.9,25.115-276.268,25.115-276.268l87.9-226.038Z" transform="translate(19995.734 17866.438)" fill="#d0cde1"/>
    <path id="Path_918" data-name="Path 918" d="M796.671,1142.579,1174.392,311.5,985.538,1195.358Z" transform="translate(20509.645 19215.219)" opacity="0.1"/>
    <path id="Path_919" data-name="Path 919" d="M1161.749,320.4l.2-31.087a242.4,242.4,0,0,1,77.936,2.732,126.577,126.577,0,0,0-11.4-54.435,246.408,246.408,0,0,1,74.522,22.18l8.655-57.74,224.922,78.824c80.739,28.3,166.065,59.8,218.467,127.429,58.419,75.395,62.655,180.891,40.233,273.6S1727.241,859.776,1693.2,948.875a631.364,631.364,0,0,1-47.787,109.832c-67.982,109.587-221.463,148.693-341.725,102.136-44.384-17.182-86.292-45.829-108.785-87.772a651.505,651.505,0,0,1-29.323-80.065c-20.9-55.369-51.419-171.195-102.151-201.668-22.325-13.41-56.368,44.162-75.646,26.652-49.538-45-49.835-123.633-30.231-187.624a1385.624,1385.624,0,0,1,69.11-187.619C1038.475,418.216,1161.773,316.669,1161.749,320.4Z" transform="translate(20503.883 16614.84)" fill="#2f2e41"/>
    <g id="Ellipse_239" data-name="Ellipse 239" transform="translate(17979 17820)" fill="#005691" stroke="#707070" stroke-width="1">
      <circle cx="341" cy="341" r="341" stroke="none"/>
      <circle cx="341" cy="341" r="340.5" fill="none"/>
    </g>
    <circle id="Ellipse_240" data-name="Ellipse 240" cx="136.5" cy="136.5" r="136.5" transform="translate(17979 18229)" fill="#f2f2f2"/>
  </g>
</svg>
