<svg xmlns="http://www.w3.org/2000/svg" width="9223.427" height="13562.822" viewBox="0 0 9223.427 13562.822">
  <g id="Group_32" data-name="Group 32" transform="translate(-2037.542 -607.549)">
    <path id="Path_653" data-name="Path 653" d="M1296.248,1492.06S1103.183,76.251,781.408,462.381s0,965.323,0,965.323l257.418,321.775,257.42-193.064Z" transform="translate(2113.418 3211.565)" fill="#9f616a"/>
    <path id="Path_654" data-name="Path 654" d="M1874.835,1021.49s-643.551-707.9-772.259-579.195S587.736,635.36,652.091,892.78,2067.9,1986.813,2067.9,1986.813Z" transform="translate(2307.091 4132.62)" fill="#004a7c"/>
    <path id="Path_656" data-name="Path 656" d="M1349.152,443.924V958.763s64.355,1158.39-321.773,1094.035S834.312,1023.119,834.312,1023.119l64.355-579.194Z" transform="translate(6501.006 4645.832)" fill="#9f616a"/>
    <path id="Path_657" data-name="Path 657" d="M1981.028,565.443s579.2,900.971,772.259,965.322,1222.744,643.55,1351.454,1222.744L5005.709,3911.9l-450.485,579.2S2495.866,2303.025,1916.673,2109.96,758.285,951.571,758.285,951.571Z" transform="translate(5676.063 8256.898)" fill="#9f616a"/>
    <path id="Path_658" data-name="Path 658" d="M1665.492,517.254S442.75,710.318,635.815,1482.578,2695.173,3863.71,2695.173,3863.71l64.355,386.132,707.9,128.708,321.775-321.775-64.355-193.065s-772.262-707.9-836.615-965.321S2115.976,1611.288,1794.2,1546.935l450.485-257.42Z" transform="translate(1422.399 6824.924)" fill="#9f616a"/>
    <path id="Path_659" data-name="Path 659" d="M1294.971,992.69s-257.418-386.128,128.71-321.775,643.549,128.708,643.549,386.13-321.774,2059.358-707.9,1930.648-64.355-707.906-64.355-707.906-193.065-514.84-321.775-579.2-128.71-386.128,0-386.128S1359.326,1121.4,1294.971,992.69Z" transform="translate(9193.738 11176.107)" fill="#2f2e41"/>
    <path id="Path_660" data-name="Path 660" d="M2280.116,766.652s0-321.773,257.418,0,386.132,579.2,128.71,772.259-1158.387,643.55-1158.387,643.55-965.324,193.065-836.614-257.418c0,0,643.549-321.775,643.549-579.2s0-707.9,193.065-579.2S2280.116,959.719,2280.116,766.652Z" transform="translate(2738.423 9986.337)" fill="#2f2e41"/>
    <path id="Path_661" data-name="Path 661" d="M4051.767,471.161s900.969,128.71,836.614,1415.809c0,0,1158.391,1158.388,836.615,1544.518S4695.317,4525.521,4437.9,4332.457,3408.22,2659.229,3408.22,2659.229,1606.282,3302.779,1284.505,2981,640.957,1886.972,640.957,1886.972l1608.874-836.614Z" transform="translate(2189.515 5455.208)" fill="#2f2e41"/>
    <circle id="Ellipse_160" data-name="Ellipse 160" cx="772.259" cy="772.259" r="772.259" transform="translate(2959.182 713.62)" fill="#9f616a"/>
    <path id="Path_662" data-name="Path 662" d="M1311.742,328.69s450.485,707.9,579.194,772.26-900.969,707.9-900.969,707.9,0-836.615-321.774-1029.68Z" transform="translate(2998.894 1221.544)" fill="#9f616a"/>
    <path id="Path_663" data-name="Path 663" d="M1376.1,447.817S2405.775,126.042,2598.84,640.882s643.548,1480.163,579.2,2123.713-193.065,514.839,0,707.9,321.773,64.354,257.418,321.774-128.71,257.421-64.355,386.129-772.259,579.194-1480.164,643.55l-707.9,64.354s0-1158.388-128.71-1415.808-386.13-772.26-386.13-965.325V1996.342A1953.75,1953.75,0,0,1,925.611,1027.01l0,0S1311.742,447.817,1376.1,447.817Z" transform="translate(2998.894 1810.322)" fill="#004a7c"/>
    <path id="Path_664" data-name="Path 664" d="M1261.333,360.117s2381.131,193.064,2638.552,836.614S4286.015,3127.38,4028.6,3127.38s-579.2,128.709-643.55,0-321.775-1415.809-386.13-1415.809-1995-193.066-1995-193.066S167.3,488.826,1261.333,360.117Z" transform="translate(3885.918 2155.441)" fill="#004a7c"/>
    <path id="Path_665" data-name="Path 665" d="M1710.839,984.876s-204.935-356.14-461.1-46.8S576.845,678.949,640.816,557.65,930.7,563.1,1317.863,436.541,2450.812,52.147,2575.713,893.2s-172.57,752.885-172.57,752.885-136.354-745.268-259.588-531.2l-123.236,214.073-106.9,26.309Z" transform="translate(1989.573 309.55)" fill="#2f2e41"/>
  </g>
</svg>
