<svg viewBox="0 0 45 50" fill="none" xmlns="http://www.w3.org/2000/svg">
<path d="M44.9698 8.04838V15.7949H0V8.04838C0 6.89043 0.651912 5.8844 1.60966 5.37937C2.03018 5.15603 2.50905 5.03027 3.01811 5.03027H41.9517C43.1097 5.03027 44.1157 5.68218 44.6207 6.63993C44.8441 7.06045 44.9698 7.53933 44.9698 8.04838Z" fill="#8C0000"/>
<path d="M12.0723 5.03027V10.6641C12.0723 11.2194 11.6216 11.6701 11.0663 11.6701H6.43853C5.8832 11.6701 5.4325 11.2194 5.4325 10.6641V5.03027H12.0723Z" fill="#8C0000"/>
<path d="M37.9277 5.03027V10.6641C37.9277 11.2194 37.477 11.6701 36.9216 11.6701H32.2939C31.7385 11.6701 31.2878 11.2194 31.2878 10.6641V5.03027H37.9277Z" fill="#8C0000"/>
<path d="M1.60966 5.37891V15.7944H0V8.04792C0 6.88997 0.651912 5.88394 1.60966 5.37891Z" fill="#8C0000"/>
<path d="M8.24948 21.8135H13.4255C13.7033 21.8135 13.9285 22.0387 13.9285 22.3165V27.4926C13.9285 27.7703 13.7033 27.9956 13.4255 27.9956H8.24948C7.97171 27.9956 7.74646 27.7703 7.74646 27.4926V22.3165C7.74646 22.0387 7.97171 21.8135 8.24948 21.8135V21.8135Z" fill="#E6E6E6"/>
<path d="M8.24948 29.5049H13.4255C13.7033 29.5049 13.9285 29.7301 13.9285 30.0079V35.185C13.9285 35.4627 13.7033 35.688 13.4255 35.688H8.24948C7.97171 35.688 7.74646 35.4627 7.74646 35.185V30.0079C7.74646 29.7301 7.97171 29.5049 8.24948 29.5049V29.5049Z" fill="#E6E6E6"/>
<path d="M8.24948 37.1973H13.4255C13.7033 37.1973 13.9285 37.4225 13.9285 37.7003V42.8763C13.9285 43.1541 13.7033 43.3794 13.4255 43.3794H8.24948C7.97171 43.3794 7.74646 43.1541 7.74646 42.8763V37.7003C7.74646 37.4225 7.97171 37.1973 8.24948 37.1973V37.1973Z" fill="#E6E6E6"/>
<path d="M15.9409 21.8135H21.2276C21.5054 21.8135 21.7306 22.0387 21.7306 22.3165V27.4926C21.7306 27.7703 21.5054 27.9956 21.2276 27.9956H15.9409C15.6631 27.9956 15.4379 27.7703 15.4379 27.4926V22.3165C15.4379 22.0387 15.6631 21.8135 15.9409 21.8135Z" fill="#E6E6E6"/>
<path d="M15.9409 29.5049H21.2276C21.5054 29.5049 21.7306 29.7301 21.7306 30.0079V35.185C21.7306 35.4627 21.5054 35.688 21.2276 35.688H15.9409C15.6631 35.688 15.4379 35.4627 15.4379 35.185V30.0079C15.4379 29.7301 15.6631 29.5049 15.9409 29.5049Z" fill="#E6E6E6"/>
<path d="M15.9409 37.1973H21.2276C21.5054 37.1973 21.7306 37.4225 21.7306 37.7003V42.8763C21.7306 43.1541 21.5054 43.3794 21.2276 43.3794H15.9409C15.6631 43.3794 15.4379 43.1541 15.4379 42.8763V37.7003C15.4379 37.4225 15.6631 37.1973 15.9409 37.1973Z" fill="#E6E6E6"/>
<path d="M23.7422 21.8135H29.0289C29.3066 21.8135 29.5319 22.0387 29.5319 22.3165V27.4926C29.5319 27.7703 29.3066 27.9956 29.0289 27.9956H23.7422C23.4644 27.9956 23.2391 27.7703 23.2391 27.4926V22.3165C23.2391 22.0387 23.4644 21.8135 23.7422 21.8135Z" fill="#E6E6E6"/>
<path d="M23.7422 29.5049H29.0289C29.3066 29.5049 29.5319 29.7301 29.5319 30.0079V35.185C29.5319 35.4627 29.3066 35.688 29.0289 35.688H23.7422C23.4644 35.688 23.2391 35.4627 23.2391 35.185V30.0079C23.2391 29.7301 23.4644 29.5049 23.7422 29.5049Z" fill="#E6E6E6"/>
<path d="M23.7422 37.1973H29.0289C29.3066 37.1973 29.5319 37.4225 29.5319 37.7003V42.8763C29.5319 43.1541 29.3066 43.3794 29.0289 43.3794H23.7422C23.4644 43.3794 23.2391 43.1541 23.2391 42.8763V37.7003C23.2391 37.4225 23.4644 37.1973 23.7422 37.1973Z" fill="#E6E6E6"/>
<path d="M37.2231 22.3165V27.4926C37.2231 27.7703 36.9979 27.9956 36.7201 27.9956H31.544C31.2663 27.9956 31.041 27.7703 31.041 27.4926V22.3165C31.041 22.0387 31.2663 21.8135 31.544 21.8135H36.7201C36.9979 21.8135 37.2231 22.0387 37.2231 22.3165Z" fill="#E6E6E6"/>
<path d="M31.544 29.5049H36.7201C36.9979 29.5049 37.2231 29.7301 37.2231 30.0079V35.185C37.2231 35.4627 36.9979 35.688 36.7201 35.688H31.544C31.2663 35.688 31.041 35.4627 31.041 35.185V30.0079C31.041 29.7301 31.2663 29.5049 31.544 29.5049Z" fill="#E6E6E6"/>
<path d="M31.544 37.1973H36.7201C36.9979 37.1973 37.2231 37.4225 37.2231 37.7003V42.8763C37.2231 43.1541 36.9979 43.3794 36.7201 43.3794H31.544C31.2663 43.3794 31.041 43.1541 31.041 42.8763V37.7003C31.041 37.4225 31.2663 37.1973 31.544 37.1973Z" fill="#E6E6E6"/>
<path d="M0 15.0908V46.9822C0 48.6492 1.35111 50.0003 3.01811 50.0003H41.9517C43.6187 50.0003 44.9698 48.6492 44.9698 46.9822V15.0908H0Z" fill="#F5F5F5"/>
<path d="M12.0727 1.00604V9.05433C12.0727 9.60966 11.622 10.0604 11.0666 10.0604H8.04852C7.49318 10.0604 7.04248 9.60966 7.04248 9.05433V1.00604C7.04248 0.450704 7.49318 0 8.04852 0H11.0666C11.622 0 12.0727 0.450704 12.0727 1.00604Z" fill="#250000"/>
<path d="M7.74646 21.8135H13.9285V27.9956H7.74646V21.8135Z" fill="#8C0000"/>
<path d="M31.041 21.8135H37.2231V27.9956H31.041V21.8135Z" fill="#8C0000"/>
<path d="M15.4377 21.8135H21.7305V27.9956H15.4377V21.8135Z" fill="#8C0000"/>
<path d="M7.74646 29.5049H13.9285V35.688H7.74646V29.5049Z" fill="#8C0000"/>
<path d="M31.041 29.5049H37.2231V35.688H31.041V29.5049Z" fill="#E6E6E6"/>
<path d="M15.4377 29.5049H21.7305V35.688H15.4377V29.5049Z" fill="#8C0000"/>
<path d="M7.74646 37.1963H13.9285V43.3784H7.74646V37.1963Z" fill="#E6E6E6"/>
<path d="M31.041 37.1963H37.2231V43.3784H31.041V37.1963Z" fill="#E6E6E6"/>
<path d="M15.4377 37.1963H21.7305V43.3784H15.4377V37.1963Z" fill="#E6E6E6"/>
<path d="M23.2396 21.8135H29.5324V27.9956H23.2396V21.8135Z" fill="#8C0000"/>
<path d="M23.2396 29.5049H29.5324V35.688H23.2396V29.5049Z" fill="#8C0000"/>
<path d="M23.2396 37.1963H29.5324V43.3784H23.2396V37.1963Z" fill="#E6E6E6"/>
<path d="M37.9275 1.00604V9.05433C37.9275 9.60966 37.4768 10.0604 36.9215 10.0604H33.9034C33.348 10.0604 32.8973 9.60966 32.8973 9.05433V1.00604C32.8973 0.450704 33.348 0 33.9034 0H36.9215C37.4768 0 37.9275 0.450704 37.9275 1.00604Z" fill="#250000"/>
<path d="M0 15.0908V46.9822C0 48.6492 1.35111 50.0003 3.01811 50.0003H4.1328C2.72535 49.7447 1.65996 48.5134 1.65996 47.0325V17.2256C1.77364 16.9188 2.06841 16.7005 2.41449 16.7005H44.9698V15.1411V15.0908H0Z" fill="#E6E6E6"/>
<path d="M9.65818 10.0604H8.04852C7.49319 10.0604 7.04248 9.60966 7.04248 9.05433V1.00604C7.04248 0.450704 7.49319 0 8.04852 0H8.65214V9.05433C8.65214 9.60966 9.10284 10.0604 9.65818 10.0604Z" fill="#C4C4C4"/>
<path d="M35.513 10.0604H33.9034C33.348 10.0604 32.8973 9.60966 32.8973 9.05433V1.00604C32.8973 0.450704 33.348 0 33.9034 0H34.507V9.05433C34.507 9.60966 34.9577 10.0604 35.513 10.0604Z" fill="#C4C4C4"/>
</svg>
