<svg viewBox="0 0 60 60" fill="none" xmlns="http://www.w3.org/2000/svg">
<path d="M55.5858 9.99985C55.5858 14.4873 51.9484 18.1252 47.4609 18.1252C42.9735 18.1252 39.3361 14.4873 39.3361 9.99985C39.3361 5.51285 42.9735 1.875 47.4609 1.875C51.9484 1.875 55.5858 5.51285 55.5858 9.99985V9.99985Z" fill="#8C0000"/>
<path d="M47.4609 20.0002C41.9458 20.0002 37.4611 15.515 37.4611 9.99985C37.4611 4.48517 41.9458 0 47.4609 0C52.9761 0 57.4608 4.48517 57.4608 9.99985C57.4608 15.515 52.9761 20.0002 47.4609 20.0002ZM47.4609 3.75C44.0135 3.75 41.2111 6.55518 41.2111 9.99985C41.2111 13.445 44.0135 16.2502 47.4609 16.2502C50.9084 16.2502 53.7108 13.445 53.7108 9.99985C53.7108 6.55518 50.9084 3.75 47.4609 3.75Z" fill="#8C0000"/>
<path d="M55.5858 50.0003C55.5858 54.4873 51.9484 58.1252 47.4609 58.1252C42.9735 58.1252 39.3361 54.4873 39.3361 50.0003C39.3361 45.5128 42.9735 41.875 47.4609 41.875C51.9484 41.875 55.5858 45.5128 55.5858 50.0003V50.0003Z" fill="#8C0000"/>
<path d="M47.4609 60.0002C41.9458 60.0002 37.4611 55.515 37.4611 50.0003C37.4611 44.4852 41.9458 40 47.4609 40C52.9761 40 57.4608 44.4852 57.4608 50.0003C57.4608 55.515 52.9761 60.0002 47.4609 60.0002ZM47.4609 43.75C44.0135 43.75 41.2111 46.5552 41.2111 50.0003C41.2111 53.445 44.0135 56.2502 47.4609 56.2502C50.9084 56.2502 53.7108 53.445 53.7108 50.0003C53.7108 46.5552 50.9084 43.75 47.4609 43.75V43.75Z" fill="#8C0000"/>
<path d="M20.5861 29.9998C20.5861 34.4873 16.9482 38.1247 12.4608 38.1247C7.97379 38.1247 4.33594 34.4873 4.33594 29.9998C4.33594 25.5124 7.97379 21.875 12.4608 21.875C16.9482 21.875 20.5861 25.5124 20.5861 29.9998Z" fill="#8C0000"/>
<path d="M12.4608 39.9997C6.94611 39.9997 2.46094 35.515 2.46094 29.9998C2.46094 24.4847 6.94611 20 12.4608 20C17.9759 20 22.4611 24.4847 22.4611 29.9998C22.4611 35.515 17.9759 39.9997 12.4608 39.9997ZM12.4608 23.75C9.01337 23.75 6.21094 26.5547 6.21094 29.9998C6.21094 33.445 9.01337 36.2497 12.4608 36.2497C15.9087 36.2497 18.7111 33.445 18.7111 29.9998C18.7111 26.5547 15.9087 23.75 12.4608 23.75Z" fill="#8C0000"/>
<path d="M18.3636 28.8004C17.4934 28.8004 16.6484 28.3477 16.1883 27.5379C15.5058 26.3404 15.926 24.8129 17.1236 24.1276L40.3207 10.9028C41.5182 10.2152 43.0458 10.6355 43.7311 11.8376C44.4136 13.0351 43.9934 14.5626 42.7959 15.2479L19.5982 28.4727C19.2082 28.6952 18.7834 28.8004 18.3636 28.8004V28.8004Z" fill="#8C0000"/>
<path d="M41.5585 49.425C41.1383 49.425 40.7135 49.3197 40.3235 49.0972L17.1259 35.8724C15.9284 35.1899 15.5086 33.6623 16.1911 32.4621C16.8709 31.2623 18.4007 30.8397 19.601 31.5273L42.7986 44.7521C43.9961 45.4346 44.4159 46.9622 43.7334 48.1625C43.271 48.9722 42.426 49.425 41.5585 49.425V49.425Z" fill="#8C0000"/>
</svg>
