<svg viewBox="0 0 1771 1855" fill="none" xmlns="http://www.w3.org/2000/svg">
<g clip-path="url(#clip0)">
<path d="M1235.32 226.286L1231.93 229.851L1464.74 451.552L1468.14 447.987L1235.32 226.286Z" fill="#E6E6E6"/>
<path d="M1468.51 423.947L1463.59 424.244L1465.08 448.465L1440.81 448.174L1440.76 453.097L1470.31 453.447L1468.51 423.947Z" fill="#E6E6E6"/>
<path d="M1259.31 224.738L1259.26 229.661L1235 229.369L1236.48 253.59L1231.56 253.888L1229.76 224.384L1259.31 224.738Z" fill="#E6E6E6"/>
<path d="M1350.03 365.987C1364.98 365.987 1377.1 353.868 1377.1 338.919C1377.1 323.97 1364.98 311.851 1350.03 311.851C1335.09 311.851 1322.97 323.97 1322.97 338.919C1322.97 353.868 1335.09 365.987 1350.03 365.987Z" fill="#E6E6E6"/>
<path d="M540.598 226.287L307.784 447.987L311.177 451.552L543.991 229.851L540.598 226.287Z" fill="#E6E6E6"/>
<path d="M305.612 453.447L335.162 453.097L335.106 448.174L310.846 448.465L312.33 424.244L307.414 423.947L305.612 453.447Z" fill="#E6E6E6"/>
<path d="M546.157 224.384L544.359 253.888L539.443 253.59L540.923 229.369L516.663 229.661L516.61 224.738L546.157 224.384Z" fill="#E6E6E6"/>
<path d="M425.887 365.987C440.833 365.987 452.95 353.868 452.95 338.919C452.95 323.97 440.833 311.851 425.887 311.851C410.941 311.851 398.825 323.97 398.825 338.919C398.825 353.868 410.941 365.987 425.887 365.987Z" fill="#E6E6E6"/>
<path d="M1089.7 561.043H681.304C675.434 561.036 669.806 558.701 665.655 554.549C661.504 550.397 659.169 544.768 659.163 538.896V22.1464C659.169 16.2749 661.504 10.6458 665.655 6.49394C669.806 2.34213 675.434 0.00668649 681.304 0H1089.7C1095.57 0.00668649 1101.19 2.34213 1105.34 6.49394C1109.5 10.6458 1111.83 16.2749 1111.84 22.1464V538.896C1111.83 544.768 1109.5 550.397 1105.34 554.549C1101.19 558.701 1095.57 561.036 1089.7 561.043ZM681.304 4.92144C676.738 4.92657 672.361 6.74298 669.132 9.97219C665.904 13.2014 664.088 17.5796 664.083 22.1464V538.896C664.088 543.463 665.904 547.841 669.132 551.071C672.361 554.3 676.738 556.116 681.304 556.121H1089.7C1094.26 556.116 1098.64 554.3 1101.87 551.071C1105.1 547.841 1106.91 543.463 1106.92 538.896V22.1464C1106.91 17.5796 1105.1 13.2014 1101.87 9.97219C1098.64 6.74298 1094.26 4.92657 1089.7 4.92144H681.304Z" fill="#3F3D56"/>
<path d="M851.528 248.389H761.633C758.697 248.386 755.883 247.218 753.808 245.142C751.732 243.066 750.565 240.251 750.562 237.316V131.21C750.565 128.275 751.732 125.46 753.808 123.384C755.883 121.308 758.697 120.14 761.633 120.137H851.528C854.463 120.14 857.277 121.308 859.353 123.384C861.428 125.46 862.596 128.275 862.599 131.21V237.316C862.596 240.251 861.428 243.066 859.353 245.142C857.277 247.218 854.463 248.386 851.528 248.389Z" fill="#8C0000"/>
<path d="M1026.2 297.603H936.306C933.371 297.6 930.557 296.432 928.481 294.356C926.406 292.28 925.238 289.466 925.235 286.53V180.425C925.238 177.489 926.406 174.674 928.481 172.598C930.557 170.522 933.371 169.355 936.306 169.352H1026.2C1029.14 169.355 1031.95 170.522 1034.03 172.598C1036.1 174.674 1037.27 177.489 1037.27 180.425V286.53C1037.27 289.466 1036.1 292.28 1034.03 294.356C1031.95 296.432 1029.14 297.6 1026.2 297.603V297.603Z" fill="#CCCCCC"/>
<path d="M885.971 447.707H796.075C793.14 447.703 790.326 446.536 788.251 444.46C786.175 442.384 785.008 439.569 785.004 436.633V330.528C785.008 327.593 786.175 324.778 788.251 322.702C790.326 320.626 793.14 319.458 796.075 319.455H885.971C888.906 319.458 891.72 320.626 893.795 322.702C895.871 324.778 897.038 327.593 897.042 330.528V436.633C897.038 439.569 895.871 442.384 893.795 444.46C891.72 446.536 888.906 447.703 885.971 447.707V447.707Z" fill="#12CE52"/>
<path d="M1748.86 1092.39H1340.47C1334.6 1092.38 1328.97 1090.05 1324.82 1085.89C1320.67 1081.74 1318.33 1076.11 1318.33 1070.24V553.492C1318.33 547.621 1320.67 541.991 1324.82 537.84C1328.97 533.688 1334.6 531.352 1340.47 531.346H1748.86C1754.73 531.352 1760.36 533.688 1764.51 537.84C1768.66 541.991 1770.99 547.621 1771 553.492V1070.24C1770.99 1076.11 1768.66 1081.74 1764.51 1085.89C1760.36 1090.05 1754.73 1092.38 1748.86 1092.39ZM1340.47 536.267C1335.9 536.272 1331.52 538.089 1328.3 541.318C1325.07 544.547 1323.25 548.925 1323.25 553.492V1070.24C1323.25 1074.81 1325.07 1079.19 1328.3 1082.42C1331.52 1085.65 1335.9 1087.46 1340.47 1087.47H1748.86C1753.42 1087.46 1757.8 1085.65 1761.03 1082.42C1764.26 1079.19 1766.07 1074.81 1766.08 1070.24V553.492C1766.07 548.925 1764.26 544.547 1761.03 541.318C1757.8 538.089 1753.42 536.272 1748.86 536.267H1340.47Z" fill="#3F3D56"/>
<path d="M1614.78 645.77H1474.55C1471.94 645.77 1469.43 644.733 1467.59 642.887C1465.74 641.041 1464.71 638.537 1464.71 635.927C1464.71 633.316 1465.74 630.813 1467.59 628.967C1469.43 627.121 1471.94 626.084 1474.55 626.084H1614.78C1617.39 626.084 1619.89 627.121 1621.74 628.967C1623.58 630.813 1624.62 633.316 1624.62 635.927C1624.62 638.537 1623.58 641.041 1621.74 642.887C1619.89 644.733 1617.39 645.77 1614.78 645.77Z" fill="#8C0000"/>
<path d="M1683.66 739.277H1405.66C1404.37 739.279 1403.09 739.026 1401.89 738.532C1400.69 738.039 1399.61 737.314 1398.69 736.4C1397.78 735.485 1397.05 734.4 1396.55 733.204C1396.06 732.009 1395.8 730.728 1395.8 729.434C1395.8 728.14 1396.06 726.858 1396.55 725.663C1397.05 724.468 1397.78 723.382 1398.69 722.468C1399.61 721.553 1400.69 720.829 1401.89 720.335C1403.09 719.842 1404.37 719.589 1405.66 719.591H1683.66C1684.96 719.589 1686.24 719.842 1687.43 720.335C1688.63 720.829 1689.72 721.553 1690.63 722.468C1691.55 723.382 1692.27 724.468 1692.77 725.663C1693.27 726.858 1693.52 728.14 1693.52 729.434C1693.52 730.728 1693.27 732.009 1692.77 733.204C1692.27 734.4 1691.55 735.485 1690.63 736.4C1689.72 737.314 1688.63 738.039 1687.43 738.532C1686.24 739.026 1684.96 739.279 1683.66 739.277V739.277Z" fill="#CCCCCC"/>
<path d="M1683.66 790.951H1405.66C1404.37 790.954 1403.09 790.701 1401.89 790.207C1400.69 789.713 1399.61 788.989 1398.69 788.074C1397.78 787.16 1397.05 786.074 1396.55 784.879C1396.06 783.684 1395.8 782.402 1395.8 781.108C1395.8 779.814 1396.06 778.533 1396.55 777.338C1397.05 776.143 1397.78 775.057 1398.69 774.143C1399.61 773.228 1400.69 772.504 1401.89 772.01C1403.09 771.516 1404.37 771.263 1405.66 771.266H1683.66C1684.96 771.263 1686.24 771.516 1687.43 772.01C1688.63 772.504 1689.72 773.228 1690.63 774.143C1691.55 775.057 1692.27 776.143 1692.77 777.338C1693.27 778.533 1693.52 779.814 1693.52 781.108C1693.52 782.402 1693.27 783.684 1692.77 784.879C1692.27 786.074 1691.55 787.16 1690.63 788.074C1689.72 788.989 1688.63 789.713 1687.43 790.207C1686.24 790.701 1684.96 790.954 1683.66 790.951V790.951Z" fill="#CCCCCC"/>
<path d="M1683.66 842.626H1405.66C1404.37 842.628 1403.09 842.376 1401.89 841.882C1400.69 841.388 1399.61 840.664 1398.69 839.749C1397.78 838.835 1397.05 837.749 1396.55 836.554C1396.06 835.359 1395.8 834.077 1395.8 832.783C1395.8 831.489 1396.06 830.208 1396.55 829.013C1397.05 827.817 1397.78 826.732 1398.69 825.817C1399.61 824.903 1400.69 824.178 1401.89 823.685C1403.09 823.191 1404.37 822.938 1405.66 822.94H1683.66C1684.96 822.938 1686.24 823.191 1687.43 823.685C1688.63 824.178 1689.72 824.903 1690.63 825.817C1691.55 826.732 1692.27 827.817 1692.77 829.013C1693.27 830.208 1693.52 831.489 1693.52 832.783C1693.52 834.077 1693.27 835.359 1692.77 836.554C1692.27 837.749 1691.55 838.835 1690.63 839.749C1689.72 840.664 1688.63 841.388 1687.43 841.882C1686.24 842.376 1684.96 842.628 1683.66 842.626V842.626Z" fill="#CCCCCC"/>
<path d="M1683.66 894.301H1405.66C1404.37 894.303 1403.09 894.05 1401.89 893.557C1400.69 893.063 1399.61 892.338 1398.69 891.424C1397.78 890.51 1397.05 889.424 1396.55 888.229C1396.06 887.034 1395.8 885.752 1395.8 884.458C1395.8 883.164 1396.06 881.883 1396.55 880.688C1397.05 879.492 1397.78 878.406 1398.69 877.492C1399.61 876.578 1400.69 875.853 1401.89 875.36C1403.09 874.866 1404.37 874.613 1405.66 874.615H1683.66C1684.96 874.613 1686.24 874.866 1687.43 875.36C1688.63 875.853 1689.72 876.578 1690.63 877.492C1691.55 878.406 1692.27 879.492 1692.77 880.688C1693.27 881.883 1693.52 883.164 1693.52 884.458C1693.52 885.752 1693.27 887.034 1692.77 888.229C1692.27 889.424 1691.55 890.51 1690.63 891.424C1689.72 892.338 1688.63 893.063 1687.43 893.557C1686.24 894.05 1684.96 894.303 1683.66 894.301V894.301Z" fill="#CCCCCC"/>
<path d="M1683.66 945.977H1405.66C1404.37 945.979 1403.09 945.726 1401.89 945.232C1400.69 944.739 1399.61 944.014 1398.69 943.1C1397.78 942.186 1397.05 941.1 1396.55 939.904C1396.06 938.709 1395.8 937.428 1395.8 936.134C1395.8 934.84 1396.06 933.559 1396.55 932.363C1397.05 931.168 1397.78 930.082 1398.69 929.168C1399.61 928.254 1400.69 927.529 1401.89 927.035C1403.09 926.542 1404.37 926.289 1405.66 926.291H1683.66C1684.96 926.289 1686.24 926.542 1687.43 927.035C1688.63 927.529 1689.72 928.254 1690.63 929.168C1691.55 930.082 1692.27 931.168 1692.77 932.363C1693.27 933.559 1693.52 934.84 1693.52 936.134C1693.52 937.428 1693.27 938.709 1692.77 939.904C1692.27 941.1 1691.55 942.186 1690.63 943.1C1689.72 944.014 1688.63 944.739 1687.43 945.232C1686.24 945.726 1684.96 945.979 1683.66 945.977V945.977Z" fill="#CCCCCC"/>
<path d="M1683.66 997.652H1405.66C1404.37 997.654 1403.09 997.401 1401.89 996.907C1400.69 996.414 1399.61 995.689 1398.69 994.775C1397.78 993.86 1397.05 992.775 1396.55 991.579C1396.06 990.384 1395.8 989.103 1395.8 987.809C1395.8 986.515 1396.06 985.233 1396.55 984.038C1397.05 982.843 1397.78 981.757 1398.69 980.843C1399.61 979.928 1400.69 979.204 1401.89 978.71C1403.09 978.217 1404.37 977.964 1405.66 977.966H1683.66C1684.96 977.964 1686.24 978.217 1687.43 978.71C1688.63 979.204 1689.72 979.928 1690.63 980.843C1691.55 981.757 1692.27 982.843 1692.77 984.038C1693.27 985.233 1693.52 986.515 1693.52 987.809C1693.52 989.103 1693.27 990.384 1692.77 991.579C1692.27 992.775 1691.55 993.86 1690.63 994.775C1689.72 995.689 1688.63 996.414 1687.43 996.907C1686.24 997.401 1684.96 997.654 1683.66 997.652V997.652Z" fill="#CCCCCC"/>
<path d="M430.533 1092.39H22.1417C16.2714 1092.38 10.6434 1090.05 6.49251 1085.89C2.34158 1081.74 0.00667728 1076.11 0 1070.24V553.492C0.00667728 547.621 2.34158 541.991 6.49251 537.84C10.6434 533.688 16.2714 531.352 22.1417 531.346H430.533C436.403 531.352 442.031 533.688 446.182 537.84C450.333 541.991 452.668 547.621 452.675 553.492V1070.24C452.668 1076.11 450.333 1081.74 446.182 1085.89C442.031 1090.05 436.403 1092.38 430.533 1092.39ZM22.1417 536.267C17.5759 536.272 13.1986 538.089 9.97006 541.318C6.74154 544.547 4.92547 548.925 4.92035 553.492V1070.24C4.92547 1074.81 6.74154 1079.19 9.97006 1082.42C13.1986 1085.65 17.5759 1087.46 22.1417 1087.47H430.533C435.099 1087.46 439.476 1085.65 442.705 1082.42C445.933 1079.19 447.749 1074.81 447.754 1070.24V553.492C447.749 548.925 445.933 544.547 442.705 541.318C439.476 538.089 435.099 536.272 430.533 536.267H22.1417Z" fill="#3F3D56"/>
<path d="M365.764 653.351H242.755C240.145 653.351 237.642 652.314 235.796 650.468C233.951 648.622 232.914 646.118 232.914 643.508C232.914 640.897 233.951 638.394 235.796 636.548C237.642 634.702 240.145 633.665 242.755 633.665H365.764C368.374 633.665 370.877 634.702 372.723 636.548C374.568 638.394 375.605 640.897 375.605 643.508C375.605 646.118 374.568 648.622 372.723 650.468C370.877 652.314 368.374 653.351 365.764 653.351V653.351Z" fill="#3F3D56"/>
<path d="M365.764 705.026H242.755C240.145 705.026 237.642 703.989 235.796 702.143C233.951 700.297 232.914 697.793 232.914 695.183C232.914 692.572 233.951 690.069 235.796 688.223C237.642 686.377 240.145 685.34 242.755 685.34H365.764C368.374 685.34 370.877 686.377 372.723 688.223C374.568 690.069 375.605 692.572 375.605 695.183C375.605 697.793 374.568 700.297 372.723 702.143C370.877 703.989 368.374 705.026 365.764 705.026V705.026Z" fill="#3F3D56"/>
<path d="M179.638 734.451H89.7429C86.8078 734.447 83.9937 733.28 81.9182 731.204C79.8427 729.128 78.6753 726.313 78.672 723.378V617.272C78.6753 614.337 79.8427 611.522 81.9182 609.446C83.9937 607.37 86.8078 606.202 89.7429 606.199H179.638C182.573 606.202 185.387 607.37 187.463 609.446C189.538 611.522 190.706 614.337 190.709 617.272V723.378C190.706 726.313 189.538 729.128 187.463 731.204C185.387 733.28 182.573 734.447 179.638 734.451V734.451Z" fill="#8C0000"/>
<path d="M364.912 810.837H86.9105C85.6168 810.839 84.3353 810.586 83.1394 810.093C81.9435 809.599 80.8566 808.874 79.941 807.96C79.0254 807.046 78.299 805.96 77.8034 804.765C77.3078 803.57 77.0527 802.288 77.0527 800.994C77.0527 799.7 77.3078 798.419 77.8034 797.224C78.299 796.028 79.0254 794.942 79.941 794.028C80.8566 793.114 81.9435 792.389 83.1394 791.896C84.3353 791.402 85.6168 791.149 86.9105 791.151H364.912C366.206 791.149 367.487 791.402 368.683 791.896C369.879 792.389 370.966 793.114 371.881 794.028C372.797 794.942 373.523 796.028 374.019 797.224C374.515 798.419 374.77 799.7 374.77 800.994C374.77 802.288 374.515 803.57 374.019 804.765C373.523 805.96 372.797 807.046 371.881 807.96C370.966 808.874 369.879 809.599 368.683 810.093C367.487 810.586 366.206 810.839 364.912 810.837V810.837Z" fill="#CCCCCC"/>
<path d="M364.912 862.512H86.9105C85.6168 862.514 84.3353 862.261 83.1394 861.768C81.9435 861.274 80.8566 860.549 79.941 859.635C79.0254 858.721 78.299 857.635 77.8034 856.44C77.3078 855.244 77.0527 853.963 77.0527 852.669C77.0527 851.375 77.3078 850.094 77.8034 848.898C78.299 847.703 79.0254 846.617 79.941 845.703C80.8566 844.789 81.9435 844.064 83.1394 843.571C84.3353 843.077 85.6168 842.824 86.9105 842.826H364.912C366.206 842.824 367.487 843.077 368.683 843.571C369.879 844.064 370.966 844.789 371.881 845.703C372.797 846.617 373.523 847.703 374.019 848.898C374.515 850.094 374.77 851.375 374.77 852.669C374.77 853.963 374.515 855.244 374.019 856.44C373.523 857.635 372.797 858.721 371.881 859.635C370.966 860.549 369.879 861.274 368.683 861.768C367.487 862.261 366.206 862.514 364.912 862.512V862.512Z" fill="#CCCCCC"/>
<path d="M364.912 914.187H86.9105C85.6168 914.189 84.3353 913.936 83.1394 913.442C81.9435 912.949 80.8566 912.224 79.941 911.31C79.0254 910.396 78.299 909.31 77.8034 908.115C77.3078 906.919 77.0527 905.638 77.0527 904.344C77.0527 903.05 77.3078 901.769 77.8034 900.573C78.299 899.378 79.0254 898.292 79.941 897.378C80.8566 896.464 81.9435 895.739 83.1394 895.245C84.3353 894.752 85.6168 894.499 86.9105 894.501H364.912C366.206 894.499 367.487 894.752 368.683 895.245C369.879 895.739 370.966 896.464 371.881 897.378C372.797 898.292 373.523 899.378 374.019 900.573C374.515 901.769 374.77 903.05 374.77 904.344C374.77 905.638 374.515 906.919 374.019 908.115C373.523 909.31 372.797 910.396 371.881 911.31C370.966 912.224 369.879 912.949 368.683 913.442C367.487 913.936 366.206 914.189 364.912 914.187V914.187Z" fill="#CCCCCC"/>
<path d="M364.912 965.861H86.9105C85.6168 965.864 84.3353 965.611 83.1394 965.117C81.9435 964.624 80.8566 963.899 79.941 962.985C79.0254 962.07 78.299 960.985 77.8034 959.789C77.3078 958.594 77.0527 957.313 77.0527 956.019C77.0527 954.725 77.3078 953.443 77.8034 952.248C78.299 951.053 79.0254 949.967 79.941 949.053C80.8566 948.138 81.9435 947.414 83.1394 946.92C84.3353 946.427 85.6168 946.174 86.9105 946.176H364.912C366.206 946.174 367.487 946.427 368.683 946.92C369.879 947.414 370.966 948.138 371.881 949.053C372.797 949.967 373.523 951.053 374.019 952.248C374.515 953.443 374.77 954.725 374.77 956.019C374.77 957.313 374.515 958.594 374.019 959.789C373.523 960.985 372.797 962.07 371.881 962.985C370.966 963.899 369.879 964.624 368.683 965.117C367.487 965.611 366.206 965.864 364.912 965.861V965.861Z" fill="#CCCCCC"/>
<path d="M364.912 1017.54H86.9105C85.6168 1017.54 84.3353 1017.29 83.1394 1016.79C81.9435 1016.3 80.8566 1015.57 79.941 1014.66C79.0254 1013.75 78.299 1012.66 77.8034 1011.46C77.3078 1010.27 77.0527 1008.99 77.0527 1007.69C77.0527 1006.4 77.3078 1005.12 77.8034 1003.92C78.299 1002.73 79.0254 1001.64 79.941 1000.73C80.8566 999.813 81.9435 999.089 83.1394 998.595C84.3353 998.101 85.6168 997.848 86.9105 997.851H364.912C366.206 997.848 367.487 998.101 368.683 998.595C369.879 999.089 370.966 999.813 371.881 1000.73C372.797 1001.64 373.523 1002.73 374.019 1003.92C374.515 1005.12 374.77 1006.4 374.77 1007.69C374.77 1008.99 374.515 1010.27 374.019 1011.46C373.523 1012.66 372.797 1013.75 371.881 1014.66C370.966 1015.57 369.879 1016.3 368.683 1016.79C367.487 1017.29 366.206 1017.54 364.912 1017.54V1017.54Z" fill="#CCCCCC"/>
<path d="M584.922 1391.89V1285.79C584.925 1282.85 586.093 1280.04 588.168 1277.96C590.244 1275.89 593.058 1274.72 595.993 1274.72H685.888C688.823 1274.72 691.638 1275.89 693.713 1277.96C695.788 1280.04 696.956 1282.85 696.959 1285.79V1391.89C696.956 1394.83 695.788 1397.64 693.713 1399.72C691.638 1401.8 688.823 1402.96 685.888 1402.97H595.993C593.058 1402.96 590.244 1401.8 588.168 1399.72C586.093 1397.64 584.925 1394.83 584.922 1391.89V1391.89Z" fill="#E6E6E6"/>
<path d="M617.304 1356.56V1250.46C617.307 1247.52 618.475 1244.71 620.55 1242.63C622.626 1240.55 625.44 1239.39 628.375 1239.38H718.27C721.205 1239.39 724.02 1240.55 726.095 1242.63C728.171 1244.71 729.338 1247.52 729.341 1250.46V1356.56C729.338 1359.5 728.171 1362.31 726.095 1364.39C724.02 1366.46 721.205 1367.63 718.27 1367.63H628.375C625.44 1367.63 622.626 1366.46 620.55 1364.39C618.475 1362.31 617.307 1359.5 617.304 1356.56V1356.56Z" fill="#8C0000"/>
<path d="M1020.28 1322.61C1016.9 1320.65 1013.99 1317.98 1011.75 1314.78C1009.51 1311.58 1008 1307.92 1007.33 1304.07C1006.65 1300.22 1006.83 1296.27 1007.85 1292.5C1008.87 1288.73 1010.7 1285.22 1013.22 1282.24L985.356 1078.52L1043.4 1081.37L1052.51 1280.07C1057.25 1284.64 1060.15 1290.78 1060.66 1297.34C1061.17 1303.9 1059.26 1310.42 1055.29 1315.66C1051.31 1320.91 1045.56 1324.51 1039.1 1325.79C1032.65 1327.07 1025.95 1325.94 1020.28 1322.61V1322.61Z" fill="#A0616A"/>
<path d="M1051.37 1084.08C1050.18 1085.48 1048.65 1086.56 1046.94 1087.22L994.773 1107.13C992.153 1108.13 989.249 1108.09 986.66 1107.01C984.07 1105.93 981.991 1103.91 980.851 1101.34L934.644 997.478C930.208 987.843 929.453 976.917 932.521 966.763C934.79 959.517 938.972 953.016 944.625 947.947C950.278 942.878 957.194 939.428 964.643 937.96C970.372 936.781 976.289 936.865 981.982 938.205C988.804 939.726 995.14 942.925 1000.42 947.512C1005.69 952.098 1009.74 957.928 1012.19 964.474L1053.28 1073.09C1053.97 1074.93 1054.16 1076.92 1053.82 1078.85C1053.48 1080.78 1052.64 1082.59 1051.37 1084.08V1084.08Z" fill="#CCCCCC"/>
<path d="M779.543 1819.84H743.452L730.367 1679.95L779.549 1680.61L779.543 1819.84Z" fill="#A0616A"/>
<path d="M717.674 1809.53H787.277V1853.36H673.849C673.849 1847.61 674.983 1841.91 677.185 1836.59C679.388 1831.27 682.616 1826.44 686.685 1822.37C690.755 1818.3 695.586 1815.07 700.903 1812.87C706.22 1810.66 711.918 1809.53 717.674 1809.53V1809.53Z" fill="#2F2E41"/>
<path d="M947.341 1819.84H911.25L894.081 1680.61L947.347 1680.61L947.341 1819.84Z" fill="#A0616A"/>
<path d="M885.471 1809.53H955.074V1853.36H841.647C841.647 1847.61 842.781 1841.91 844.983 1836.59C847.185 1831.27 850.413 1826.44 854.483 1822.37C858.552 1818.3 863.383 1815.07 868.7 1812.87C874.017 1810.66 879.716 1809.53 885.471 1809.53V1809.53Z" fill="#2F2E41"/>
<path d="M951.88 1770.31L895.196 1766.11C891.973 1765.86 888.949 1764.45 886.693 1762.14C884.436 1759.82 883.103 1756.76 882.943 1753.53L870.304 1492.27C870.183 1489.76 869.151 1487.39 867.401 1485.59C865.652 1483.79 863.306 1482.69 860.804 1482.49C858.301 1482.3 855.815 1483.03 853.811 1484.54C851.807 1486.05 850.423 1488.24 849.919 1490.7L797.192 1748.07C796.539 1751.23 794.753 1754.05 792.169 1755.99C789.585 1757.94 786.38 1758.87 783.158 1758.61L731.919 1754.51C730.163 1754.37 728.452 1753.88 726.888 1753.07C725.323 1752.26 723.935 1751.15 722.806 1749.8C721.677 1748.45 720.829 1746.88 720.312 1745.2C719.795 1743.51 719.618 1741.74 719.794 1739.99L767.329 1264.53C767.515 1262.67 768.092 1260.87 769.021 1259.25C769.95 1257.63 771.212 1256.23 772.722 1255.13C774.233 1254.03 775.958 1253.27 777.785 1252.88C779.613 1252.5 781.5 1252.51 783.325 1252.9L964.093 1292.21C967.087 1292.86 969.762 1294.54 971.663 1296.94C973.564 1299.35 974.574 1302.34 974.523 1305.4L966.104 1757.34C966.038 1760.8 964.617 1764.11 962.147 1766.54C959.677 1768.97 956.354 1770.33 952.889 1770.34C952.554 1770.34 952.218 1770.33 951.88 1770.31Z" fill="#2F2E41"/>
<path d="M902.29 866.988C942.222 866.988 974.593 834.61 974.593 794.669C974.593 754.729 942.222 722.351 902.29 722.351C862.358 722.351 829.987 754.729 829.987 794.669C829.987 834.61 862.358 866.988 902.29 866.988Z" fill="#A0616A"/>
<path d="M790.107 1301.19C783.155 1294.96 777.635 1287.29 773.929 1278.72C770.222 1270.14 768.417 1260.87 768.636 1251.53C768.636 1147.59 858.586 915.372 861.406 908.126C861.681 906.38 864.055 905.627 876.506 897.213C888.966 888.794 906.931 887.5 929.905 893.369C932.241 893.967 934.367 895.194 936.054 896.917C937.741 898.64 938.923 900.792 939.473 903.139L943.747 909.316C944.118 910.882 944.852 912.339 945.89 913.57C946.927 914.8 948.239 915.77 949.719 916.401C968.246 924.208 1027.14 960.208 1007.07 1095.69C988.428 1221.55 980.864 1295.56 978.477 1321.55C978.196 1324.63 976.842 1327.52 974.652 1329.7C972.462 1331.89 969.574 1333.24 966.491 1333.52C957.407 1334.33 941.816 1335.41 923.248 1335.41C880.206 1335.41 821.167 1329.6 790.107 1301.19Z" fill="#CCCCCC"/>
<path d="M703.712 1262.69C701.992 1259.18 701.062 1255.34 700.988 1251.43C700.914 1247.52 701.698 1243.65 703.283 1240.07C704.869 1236.5 707.218 1233.32 710.165 1230.76C713.112 1228.19 716.586 1226.31 720.341 1225.23L810.696 1040.54L857.307 1075.25L754.173 1245.33C755.564 1251.76 754.548 1258.48 751.318 1264.21C748.089 1269.94 742.869 1274.29 736.649 1276.43C730.429 1278.57 723.64 1278.35 717.57 1275.82C711.499 1273.29 706.568 1268.61 703.711 1262.69L703.712 1262.69Z" fill="#A0616A"/>
<path d="M862.41 1081.95C860.642 1082.45 858.775 1082.49 856.985 1082.08L802.577 1069.54C799.844 1068.91 797.456 1067.26 795.906 1064.92C794.355 1062.59 793.759 1059.74 794.24 1056.98L813.735 944.981C815.419 934.508 820.878 925.015 829.083 918.294C835.005 913.541 842.098 910.473 849.617 909.415C857.135 908.357 864.799 909.346 871.802 912.28C877.216 914.493 882.083 917.86 886.064 922.147C890.881 927.212 894.36 933.399 896.185 940.148C898.01 946.897 898.124 953.994 896.517 960.798L870.118 1073.89C869.67 1075.8 868.718 1077.55 867.363 1078.97C866.007 1080.39 864.297 1081.42 862.41 1081.95Z" fill="#CCCCCC"/>
<path d="M885.361 860.011C881.842 856.42 879.244 852.031 877.789 847.218C876.334 842.405 876.064 837.312 877.004 832.372C879.524 819.183 881.005 810.553 881.286 807.413C882.246 796.673 871.391 787.978 860.649 786.595C860.233 786.54 859.885 786.504 859.594 786.481C859.867 786.75 860.161 787.024 860.419 787.267C862.459 789.183 864.999 791.57 864.395 794.032C864.031 795.514 862.677 796.567 860.254 797.244C843.456 801.946 830.519 797.63 819.539 783.652C816.453 779.68 814.332 775.045 813.342 770.113C809.41 750.812 819.889 734.359 829.374 723.958C837.195 715.381 849.873 704.969 865.86 704.077C878.293 703.382 893.078 710.538 897.503 723.434C899.59 720.34 902.368 717.775 905.619 715.942C908.869 714.109 912.502 713.059 916.229 712.875C924.717 712.691 933.071 715.015 940.246 719.556C975.304 739.643 990.371 787.492 973.148 824.047C962.314 847.041 938.84 864.159 911.888 868.721C910.201 869.007 908.492 869.152 906.781 869.153C902.779 869.146 898.821 868.334 895.14 866.763C891.46 865.192 888.134 862.896 885.361 860.011V860.011Z" fill="#2F2E41"/>
<path d="M546.31 1855H1120.35C1121.13 1855 1121.88 1854.69 1122.44 1854.14C1122.99 1853.59 1123.3 1852.84 1123.3 1852.06C1123.3 1851.27 1122.99 1850.53 1122.44 1849.97C1121.88 1849.42 1121.13 1849.11 1120.35 1849.11H546.31C545.529 1849.11 544.78 1849.42 544.228 1849.97C543.676 1850.53 543.366 1851.27 543.366 1852.06C543.366 1852.84 543.676 1853.59 544.228 1854.14C544.78 1854.69 545.529 1855 546.31 1855V1855Z" fill="#3F3D56"/>
</g>
<defs>
<clipPath id="clip0">
<rect width="1771" height="1855" fill="white"/>
</clipPath>
</defs>
</svg>
