<svg xmlns="http://www.w3.org/2000/svg" width="5950.052" height="7901.209" viewBox="0 0 5950.052 7901.209">
  <g id="Group_40" data-name="Group 40" transform="translate(14018.473 -13514)">
    <circle id="Ellipse_197" data-name="Ellipse 197" cx="854.59" cy="854.59" r="854.59" transform="translate(-11904.799 14035.44)" fill="#ffb8b8"/>
    <path id="Path_815" data-name="Path 815" d="M952.856,301.692s161.01,1213.766-86.7,1350S2340.018,1800.32,2340.018,1800.32,1956.072,747.564,2129.467,425.544Z" transform="translate(-12640.912 15015.633)" fill="#ffb8b8"/>
    <path id="Path_816" data-name="Path 816" d="M4679.835,988.718l-143.176,651.959L4233.923,3020.018l-9.064,75.539L4120.38,3970.064l-69.5,580.952-46.6,390.246C3720.954,5086.878,3515.6,5187.4,3515.6,5187.4s-17.664-88.555-46.137-201.863c-198.842,59.618-566.774,158.516-878.575,178.272,113.541,126.557,165.721,245.442,94.946,333.186-213.6,264.5-1095.43-289.606-1403.861-496.232a834.946,834.946,0,0,0-8.134,149.451l-236.031-181.525,23.359-417.672,39.4-706.7,49.507-886.246a930.851,930.851,0,0,1-39.163-116.561c-72.284-257.065-160.026-770.382-227.315-1200.837-54.155-346.433-94.829-639.175-103.43-701.466-1.163-8.135-1.744-12.318-1.744-12.318L2085.014,349.544c92.855,215.344,526.448,280.075,526.448,280.075,359.216-24.753,640.8-214.182,640.8-214.182Z" transform="translate(-13723.628 15833.375)" fill="#004a7c"/>
    <path id="Path_817" data-name="Path 817" d="M2414.905,979.181s-55.318,18.943-145.268,45.788c-198.842,59.618-566.774,158.516-878.575,178.271-268.454,17.2-495.3-24.171-536.791-199.306-17.781-75.308,7.438-137.249,62.407-188.15,164.094-152.123,592.69-206.628,932.615-225.338,95.992-5.229,184.779-7.67,258.691-8.6,125.512-1.628,207.791.93,207.791.93l1.975,7.67Z" transform="translate(-12523.798 19793.945)" fill="#ffb8b8"/>
    <path id="Path_818" data-name="Path 818" d="M1057.6,769.667,897.813,705.7s334.1-367.826,798.938-335.84L1566.013,225.924s319.574-127.938,610.1,207.9c152.722,176.543,329.423,384.061,439.577,617.827H2786.81l-71.42,157.258,249.969,157.258-256.566-28.247a878.712,878.712,0,0,1,6.961,260.841,337.491,337.491,0,0,1-123.586,220.783h0S2394,1409.362,2394,1345.392v159.925s-159.787-143.931-159.787-239.885l-87.155,111.947-43.578-175.917-537.466,175.917,87.156-143.931-334.1,47.977,130.739-175.917s-377.678,207.9-392.207,383.818-125.071,342.607-125.071,342.607S636.344,1009.552,1057.6,769.667Z" transform="translate(-12818.749 13312)" fill="#2f2e41"/>
    <path id="Path_819" data-name="Path 819" d="M3268.572,3382.147c-87.045,94.365-302.738,236.494-564.217,390.361-97.271,57.178-200.818,116.1-306.457,174.67-252.066,139.807-515.99,278.333-733.773,390.246-283.328,145.616-488.678,246.142-488.678,246.142s-17.664-88.556-46.137-201.863c-38.117-151.658-95.527-347.712-155.377-434.524-2.094-3.021-4.184-5.811-6.275-8.6-17.434-22.895-34.98-36.259-52.3-36.259l864.861-536.1,373.744-231.73L1884.7,2491.717l-337.717-806.29,203.84-648.589,204.885-651.959h383.971S2466.814,662.4,2629.4,1049.389c24.289,57.874,49.389,118.189,74.957,180.479C3038.818,2043.364,3455.793,3179.354,3268.572,3382.147Z" transform="translate(-11383.47 16437.215)" fill="#004a7c"/>
    <path id="Path_820" data-name="Path 820" d="M2311.349,1640.324c-213.6,264.5-1095.43-289.605-1403.861-496.232-67.172-44.975-107.149-73.447-107.149-73.447l282.167-376.3,89.369-119.119s79.955,42.419,198.144,111.449c4.3,2.556,8.6,5.113,13.016,7.67,101.92,59.851,229.872,138.062,358.984,225.338C1920.174,1040.2,2100.3,1177.676,2216.4,1307.138,2329.943,1433.7,2382.123,1552.583,2311.349,1640.324Z" transform="translate(-13349.139 19690.047)" fill="#ffb8b8"/>
    <path id="Path_821" data-name="Path 821" d="M2758.444,3986.278a555.157,555.157,0,0,0-94.133,7.669c-267.176,45.906-345.969,287.747-368.4,449.749a834.936,834.936,0,0,0-8.134,149.451l-236.031-181.525-86-66.126c-206.977-72.169-391.408-200.353-551.318-351.547a2771.445,2771.445,0,0,1-371.3-440.335,3883.464,3883.464,0,0,1-287.282-492.745,362.391,362.391,0,0,1-5-307.387L1043.131,2102.1l427.2-952.023q4.705-33.992,10.343-66.474c84.721-485.773,311.685-701.466,311.685-701.466h173.392l115.981,701.466,144.105,871.486-100.99,329.351-233.356,760.618,223.014,242.19Z" transform="translate(-14737.564 16390.443)" fill="#004a7c"/>
    <path id="Path_823" data-name="Path 823" d="M6227.017,810.933v70.542a155.019,155.019,0,0,1-10.574,56.6,159.359,159.359,0,0,1-11.273,23.242,156.156,156.156,0,0,1-134.227,76.238l-5189.523,0a156.156,156.156,0,0,1-134.226-76.236,159.076,159.076,0,0,1-11.274-23.243,155.056,155.056,0,0,1-10.575-56.595V810.933A156.031,156.031,0,0,1,881.418,654.857h299.134V621.969a6.5,6.5,0,0,1,6.507-6.507h156.077a6.5,6.5,0,0,1,6.51,6.507l0,32.889h97.5V621.969a6.5,6.5,0,0,1,6.507-6.507h156.076a6.5,6.5,0,0,1,6.507,6.507v32.889h97.62V621.969a6.5,6.5,0,0,1,6.508-6.507h156.073a6.5,6.5,0,0,1,6.508,6.507v32.889h97.5V621.969a6.493,6.493,0,0,1,6.508-6.507h156.075a6.5,6.5,0,0,1,6.509,6.507v32.889h97.5V621.969a6.5,6.5,0,0,1,6.509-6.507H2409.63a6.5,6.5,0,0,1,6.507,6.507v32.889h97.62V621.969a6.493,6.493,0,0,1,6.507-6.507h156.075a6.5,6.5,0,0,1,6.509,6.507v32.889h97.5V621.969a6.5,6.5,0,0,1,6.507-6.507H4009.427a6.5,6.5,0,0,1,6.508,6.507v32.889h97.621V621.969a6.5,6.5,0,0,1,6.506-6.507h156.076a6.571,6.571,0,0,1,6.506,6.507l0,32.889h97.5V621.969a6.493,6.493,0,0,1,6.508-6.507h156.074a6.5,6.5,0,0,1,6.51,6.507v32.889h97.5V621.969a6.493,6.493,0,0,1,6.508-6.507h156.074a6.5,6.5,0,0,1,6.51,6.507v32.889h97.619V621.969a6.5,6.5,0,0,1,6.508-6.507h156.074a6.474,6.474,0,0,1,6.391,6.507l0,32.889h97.619V621.969a6.493,6.493,0,0,1,6.508-6.507h156.074a6.5,6.5,0,0,1,6.51,6.507l0,32.889h97.5V621.969a6.493,6.493,0,0,1,6.508-6.507h156.074a6.5,6.5,0,0,1,6.51,6.507l0,32.889h455.209a156.034,156.034,0,0,1,156.078,156.076Z" transform="translate(-14630.706 20377.658)" fill="#fff"/>
    <path id="Path_824" data-name="Path 824" d="M5620.853,499.7h-1934.3V459.833H2809.474V499.7H867.2A130.841,130.841,0,0,0,736.363,630.543V3279.187A130.84,130.84,0,0,0,867.2,3410.028H5620.853a130.839,130.839,0,0,0,130.838-130.841l0-2648.644A130.838,130.838,0,0,0,5620.853,499.7Z" transform="translate(-14442.396 17718.125)" fill="#fff"/>
    <circle id="Ellipse_198" data-name="Ellipse 198" cx="290.534" cy="290.534" r="290.534" transform="translate(-11485.096 18851.998)" fill="none" stroke="#d0cde1" stroke-miterlimit="10" stroke-width="2"/>
    <circle id="Ellipse_199" data-name="Ellipse 199" cx="290.534" cy="290.534" r="290.534" transform="translate(-11445.067 18956.59)" fill="#005691"/>
  </g>
</svg>
